{
.appVersion = "895";
copyright = "Copyright (c) 2010, The Josefin Sans Project Authors (hi@typemade.mx), with Reserved Font Name Josefin";
customParameters = (
{
name = licenseURL;
value = "http://scripts.sil.org/OFL";
},
{
name = trademark;
value = "Josefin Sans is a trademark of Typemade.";
},
{
name = license;
value = "This Font Software is licensed under the SIL Open Font License, Version 1.1. This license is available with a FAQ at: http://scripts.sil.org/OFL";
},
{
name = fsType;
value = "0";
},
{
name = "Use Typo Metrics";
value = 1;
}
);
date = "2016-08-26 16:01:20 +0000";
designer = "Santiago Orozco";
designerURL = "http://www.typemade.mx";
familyName = "Josefin Sans";
featurePrefixes = (
{
automatic = 1;
code = "languagesystem DFLT dflt;\012";
name = Languagesystems;
}
);
features = (
{
automatic = 1;
code = "feature sups;\012feature frac;\012feature ordn;\012";
name = aalt;
},
{
automatic = 1;
code = "sub one by onesuperior;\012sub two by twosuperior;\012sub three by threesuperior;\012";
name = sups;
},
{
automatic = 1;
code = "sub one slash four by onequarter;\012sub one slash two by onehalf;\012sub three slash four by threequarters;\012";
name = frac;
},
{
automatic = 1;
code = "sub [zero one two three four five six seven eight nine] [A a]' by ordfeminine;\012sub [zero one two three four five six seven eight nine] [O o]' by ordmasculine;\012";
name = ordn;
},
{
automatic = 1;
code = "sub f i by fi;\012sub f l by fl;\012";
name = liga;
}
);
fontMaster = (
{
alignmentZones = (
"{700, 32}",
"{375, 5}",
"{0, -7}",
"{-250, 0}"
);
ascender = 750;
capHeight = 700;
customParameters = (
{
name = typoDescender;
value = -250;
},
{
name = typoLineGap;
value = 0;
},
{
name = hheaLineGap;
value = 0;
},
{
name = hheaAscender;
value = 750;
},
{
name = typoAscender;
value = 750;
},
{
name = hheaDescender;
value = -250;
},
{
name = winDescent;
value = 271;
},
{
name = winAscent;
value = 991;
}
);
descender = -180;
horizontalStems = (
126,
24,
217
);
id = UUID0;

glyphs = (
{
glyphname = A;
lastChange = "2016-09-15 16:24:47 +0000";
layers = (
{
anchors = (
{
name = bottom;
position = "{340, 0}";
},
{
name = ogonek;
position = "{604, 10}";
},
{
name = top;
position = "{340, 700}";
}
);
hints = (
{
horizontal = 1;
place = "{36, 21}";
target = up;
type = BottomGhost;
},
{
horizontal = 1;
place = "{768, -20}";
target = down;
type = TopGhost;
}
);
layerId = UUID0;
paths = (
{
closed = 1;
nodes = (
"65 0 LINE",
"345 708 LINE",
"336 708 LINE",
"615 0 LINE",
"630 0 LINE",
"341 732 LINE",
"339 732 LINE",
"50 0 LINE"
);
},
{
closed = 1;
nodes = (
"186 318 LINE",
"495 318 LINE",
"495 331 LINE",
"186 331 LINE"
);
}
);
width = 680;
},
{
anchors = (
{
name = bottom;
position = "{368, 0}";
},
{
name = ogonek;
position = "{640, 10}";
},
{
name = top;
position = "{368, 776}";
}
);
hints = (
{
horizontal = 1;
place = "{0, 21}";
target = up;
type = BottomGhost;
},
{
horizontal = 1;
place = "{732, -20}";
target = down;
type = TopGhost;
}
);
layerId = UUID1;
paths = (
{
closed = 1;
nodes = (
"170 0 LINE",
"430 624 LINE",
"334 538 LINE",
"546 0 LINE",
"704 0 LINE",
"372 765 LINE",
"364 765 LINE",
"32 0 LINE"
);
},
{
closed = 1;
nodes = (
"234 184 LINE",
"511 184 LINE",
"460 306 LINE",
"279 306 LINE"
);
}
);
width = 736;
}
);
unicode = 0041;
},
{
glyphname = Aring;
lastChange = "2016-09-17 19:53:37 +0000";
layers = (
{
components = (
{
name = A;
}
);
hints = (
{
place = "{344, 162}";
},
{
horizontal = 1;
place = "{811, 162}";
}
);
layerId = UUID0;
paths = (
{
closed = 1;
nodes = (
"278 834 LINE SMOOTH",
"278 798 OFFCURVE",
"305 771 OFFCURVE",
"341 771 CURVE SMOOTH",
"377 771 OFFCURVE",
"404 798 OFFCURVE",
"404 834 CURVE SMOOTH",
"404 870 OFFCURVE",
"377 897 OFFCURVE",
"341 897 CURVE SMOOTH",
"305 897 OFFCURVE",
"278 870 OFFCURVE",
"278 834 CURVE SMOOTH"
);
},
{
closed = 1;
nodes = (
"292 834 LINE SMOOTH",
"292 860 OFFCURVE",
"315 883 OFFCURVE",
"341 883 CURVE SMOOTH",
"367 883 OFFCURVE",
"390 860 OFFCURVE",
"390 834 CURVE SMOOTH",
"390 808 OFFCURVE",
"367 785 OFFCURVE",
"341 785 CURVE SMOOTH",
"315 785 OFFCURVE",
"292 808 OFFCURVE",
"292 834 CURVE SMOOTH"
);
}
);
width = 720;
},
{
components = (
{
name = A;
},
{
name = ringcomb.case;
transform = "{1, 0, 0, 1, 237, 334}";
}
);
hints = (
{
place = "{339, 65}";
},
{
horizontal = 1;
place = "{805, 65}";
}
);
layerId = UUID1;
width = 736;
}
);
unicode = 00C5;
},
{
glyphname = AE;
lastChange = "2016-09-17 19:54:17 +0000";
layers = (
{
anchors = (
{
name = bottom;
position = "{338, 0}";
},
{
name = top;
position = "{338, 700}";
}
);
hints = (
{
horizontal = 1;
place = "{36, 21}";
target = up;
type = BottomGhost;
},
{
horizontal = 1;
place = "{736, -20}";
target = down;
type = TopGhost;
}
);
layerId = UUID0;
paths = (
{
closed = 1;
nodes = (
"327 0 LINE",
"596 0 LINE",
"596 14 LINE",
"341 14 LINE",
"341 346 LINE",
"543 346 LINE",
"543 360 LINE",
"341 360 LINE",
"341 686 LINE",
"582 686 LINE",
"582 700 LINE",
"327 700 LINE"
);
},
{
closed = 1;
nodes = (
"327 700 LINE",
"224 456 OFFCURVE",
"153 244 OFFCURVE",
"50 0 CURVE",
"65 0 LINE",
"160 225 OFFCURVE",
"236 450 OFFCURVE",
"331 675 CURVE SMOOTH",
"334 683 OFFCURVE",
"337 692 OFFCURVE",
"340 700 CURVE"
);
},
{
closed = 1;
nodes = (
"186 318 LINE",
"335 318 LINE",
"335 332 LINE",
"186 332 LINE"
);
}
);
width = 675;
},
{
anchors = (
{
name = bottom;
position = "{463, 0}";
},
{
name = top;
position = "{573, 756}";
}
);
hints = (
{
horizontal = 1;
place = "{0, 21}";
target = up;
type = BottomGhost;
},
{
horizontal = 1;
place = "{700, -20}";
target = down;
type = TopGhost;
}
);
layerId = UUID1;
paths = (
{
closed = 1;
nodes = (
"386 0 LINE",
"812 0 LINE",
"812 140 LINE",
"531 140 LINE",
"531 297 LINE",
"757 297 LINE",
"757 437 LINE",
"531 437 LINE",
"531 596 LINE",
"798 596 LINE",
"798 736 LINE",
"386 736 LINE"
);
},
{
closed = 1;
nodes = (
"386 736 LINE",
"386 736 OFFCURVE",
"5 0 OFFCURVE",
"5 0 CURVE",
"153 0 LINE",
"153 0 OFFCURVE",
"390 494 OFFCURVE",
"390 494 CURVE SMOOTH",
"390 494 OFFCURVE",
"398 520 OFFCURVE",
"401 535 CURVE"
);
},
{
closed = 1;
nodes = (
"197 161 LINE",
"403 161 LINE",
"403 276 LINE",
"242 276 LINE"
);
}
);
width = 867;
}
);
rightMetricsKey = E;
unicode = 00C6;
},
{
glyphname = B;
lastChange = "2016-09-17 14:23:21 +0000";
layers = (
{
anchors = (
{
name = bottom;
position = "{273, 0}";
},
{
name = top;
position = "{273, 700}";
}
);
hints = (
{
place = "{449, 72}";
},
{
horizontal = 1;
place = "{31, 21}";
target = up;
type = BottomGhost;
},
{
horizontal = 1;
place = "{731, -20}";
target = down;
type = TopGhost;
}
);
layerId = UUID0;
paths = (
{
closed = 1;
nodes = (
"120 700 LINE",
"120 0 LINE",
"283 0 LINE SMOOTH",
"393 0 OFFCURVE",
"495 62 OFFCURVE",
"495 179 CURVE SMOOTH",
"495 276 OFFCURVE",
"418 340 OFFCURVE",
"334 353 CURVE",
"333 349 LINE",
"424 366 OFFCURVE",
"458 444 OFFCURVE",
"458 522 CURVE SMOOTH",
"458 650 OFFCURVE",
"387 700 OFFCURVE",
"255 700 CURVE SMOOTH"
);
},
{
closed = 1;
nodes = (
"134 357 LINE",
"134 687 LINE",
"256 687 LINE SMOOTH",
"371 687 OFFCURVE",
"444 641 OFFCURVE",
"444 522 CURVE SMOOTH",
"444 427 OFFCURVE",
"397 357 OFFCURVE",
"281 357 CURVE SMOOTH"
);
},
{
closed = 1;
nodes = (
"134 13 LINE",
"134 344 LINE",
"282 344 LINE SMOOTH",
"375 344 OFFCURVE",
"481 293 OFFCURVE",
"481 176 CURVE SMOOTH",
"481 68 OFFCURVE",
"390 13 OFFCURVE",
"282 13 CURVE SMOOTH"
);
}
);
width = 570;
},
{
anchors = (
{
name = bottom;
position = "{331, 0}";
},
{
name = top;
position = "{331, 736}";
}
);
hints = (
{
place = "{377, 108}";
},
{
horizontal = 1;
place = "{0, 21}";
target = up;
type = BottomGhost;
},
{
horizontal = 1;
place = "{700, -20}";
target = down;
type = TopGhost;
}
);
layerId = UUID1;
paths = (
{
closed = 1;
nodes = (
"90 736 LINE",
"90 0 LINE",
"335 0 LINE",
"466 0 OFFCURVE",
"592 57 OFFCURVE",
"592 217 CURVE",
"592 346 OFFCURVE",
"459 425 OFFCURVE",
"278 425 CURVE",
"301 347 LINE",
"448 347 OFFCURVE",
"557 415 OFFCURVE",
"557 551 CURVE",
"557 673 OFFCURVE",
"459 736 OFFCURVE",
"306 736 CURVE"
);
},
{
closed = 1;
nodes = (
"235 435 LINE",
"235 596 LINE",
"313 596 LINE",
"370 596 OFFCURVE",
"407 571 OFFCURVE",
"407 520 CURVE",
"407 476 OFFCURVE",
"380 435 OFFCURVE",
"323 435 CURVE"
);
},
{
closed = 1;
nodes = (
"235 135 LINE",
"235 295 LINE",
"318 295 LINE",
"380 295 OFFCURVE",
"442 280 OFFCURVE",
"442 217 CURVE",
"442 160 OFFCURVE",
"392 135 OFFCURVE",
"328 135 CURVE"
);
}
);
width = 642;
}
);
leftMetricsKey = H;
rightMetricsKey = O;
unicode = 0042;
},
{
glyphname = C;
lastChange = "2016-09-17 23:29:09 +0000";
layers = (
{
anchors = (
{
name = bottom;
position = "{345, 0}";
},
{
name = top;
position = "{345, 700}";
}
);
hints = (
{
horizontal = 1;
place = "{744, -20}";
target = down;
type = TopGhost;
},
{
horizontal = 1;
place = "{28, 21}";
target = up;
type = BottomGhost;
}
);
layerId = UUID0;
paths = (
{
closed = 1;
nodes = (
"605 54 LINE",
"553 24 OFFCURVE",
"494 5 OFFCURVE",
"429 5 CURVE SMOOTH",
"222 5 OFFCURVE",
"89 163 OFFCURVE",
"89 345 CURVE SMOOTH",
"89 540 OFFCURVE",
"243 695 OFFCURVE",
"432 695 CURVE SMOOTH",
"495 695 OFFCURVE",
"556 677 OFFCURVE",
"607 646 CURVE",
"615 658 LINE",
"561 690 OFFCURVE",
"499 708 OFFCURVE",
"432 708 CURVE SMOOTH",
"235 708 OFFCURVE",
"75 549 OFFCURVE",
"75 346 CURVE SMOOTH",
"75 154 OFFCURVE",
"217 -8 OFFCURVE",
"429 -8 CURVE SMOOTH",
"501 -8 OFFCURVE",
"561 11 OFFCURVE",
"614 42 CURVE"
);
}
);
width = 690;
},
{
anchors = (
{
name = bottom;
position = "{399, 0}";
},
{
name = top;
position = "{389, 756}";
}
);
hints = (
{
horizontal = 1;
place = "{708, -20}";
target = down;
type = TopGhost;
},
{
horizontal = 1;
place = "{-8, 21}";
target = up;
type = BottomGhost;
}
);
layerId = UUID1;
paths = (
{
closed = 1;
nodes = (
"587 191 LINE",
"597 188 OFFCURVE",
"511 132 OFFCURVE",
"422 132 CURVE SMOOTH",
"287 132 OFFCURVE",
"201 228 OFFCURVE",
"201 370 CURVE SMOOTH",
"201 503 OFFCURVE",
"300 604 OFFCURVE",
"413 604 CURVE",
"485 604 OFFCURVE",
"542 569 OFFCURVE",
"575 544 CURVE",
"632 681 LINE",
"584 711 OFFCURVE",
"506 744 OFFCURVE",
"408 744 CURVE SMOOTH",
"194 744 OFFCURVE",
"50 586 OFFCURVE",
"50 362 CURVE SMOOTH",
"50 163 OFFCURVE",
"186 -4 OFFCURVE",
"419 -8 CURVE SMOOTH",
"532 -10 OFFCURVE",
"622 41 OFFCURVE",
"647 61 CURVE"
);
}
);
width = 697;
}
);
leftMetricsKey = O;
rightMetricsKey = O;
unicode = 0043;
},
{
glyphname = Ccedilla;
lastChange = "2016-09-17 20:01:34 +0000";
layers = (
{
hints = (
{
horizontal = 1;
place = "{-187, 265}";
},
{
horizontal = 1;
place = "{744, -20}";
target = down;
type = TopGhost;
}
);
layerId = UUID0;
paths = (
{
closed = 1;
nodes = (
"610 54 LINE",
"558 24 OFFCURVE",
"499 6 OFFCURVE",
"430 6 CURVE SMOOTH",
"227 6 OFFCURVE",
"94 163 OFFCURVE",
"94 345 CURVE SMOOTH",
"94 540 OFFCURVE",
"248 694 OFFCURVE",
"437 694 CURVE SMOOTH",
"500 694 OFFCURVE",
"561 677 OFFCURVE",
"612 646 CURVE",
"615 650 OFFCURVE",
"617 654 OFFCURVE",
"620 658 CURVE",
"566 690 OFFCURVE",
"504 708 OFFCURVE",
"437 708 CURVE SMOOTH",
"240 708 OFFCURVE",
"80 549 OFFCURVE",
"80 346 CURVE SMOOTH",
"80 154 OFFCURVE",
"222 -8 OFFCURVE",
"434 -8 CURVE SMOOTH",
"506 -8 OFFCURVE",
"566 11 OFFCURVE",
"619 42 CURVE"
);
},
{
closed = 1;
nodes = (
"437 0 LINE",
"423 0 LINE",
"423 -16 LINE SMOOTH",
"423 -69 OFFCURVE",
"506 -63 OFFCURVE",
"506 -137 CURVE SMOOTH",
"506 -178 OFFCURVE",
"477 -209 OFFCURVE",
"436 -209 CURVE SMOOTH",
"403 -209 OFFCURVE",
"378 -189 OFFCURVE",
"370 -161 CURVE",
"365 -162 OFFCURVE",
"360 -164 OFFCURVE",
"355 -165 CURVE",
"368 -204 OFFCURVE",
"401 -223 OFFCURVE",
"436 -223 CURVE SMOOTH",
"480 -223 OFFCURVE",
"520 -195 OFFCURVE",
"520 -127 CURVE SMOOTH",
"520 -109 OFFCURVE",
"508 -81 OFFCURVE",
"478 -61 CURVE SMOOTH",
"461 -50 OFFCURVE",
"437 -41 OFFCURVE",
"437 -6 CURVE SMOOTH"
);
}
);
width = 655;
},
{
components = (
{
name = C;
},
{
name = cedillacomb.case;
transform = "{1, 0, 0, 1, 277, 0}";
}
);
hints = (
{
horizontal = 1;
place = "{-250, 321}";
},
{
horizontal = 1;
place = "{708, -20}";
target = down;
type = TopGhost;
}
);
layerId = UUID1;
width = 697;
}
);
unicode = 00C7;
},
{
glyphname = D;
lastChange = "2016-09-17 20:02:35 +0000";
layers = (
{
anchors = (
{
name = bottom;
position = "{350, 0}";
},
{
name = center;
position = "{350, 350}";
},
{
name = top;
position = "{350, 700}";
}
);
hints = (
{
horizontal = 1;
place = "{31, 21}";
target = up;
type = BottomGhost;
},
{
horizontal = 1;
place = "{731, -20}";
target = down;
type = TopGhost;
}
);
layerId = UUID0;
paths = (
{
closed = 1;
nodes = (
"297 0 LINE SMOOTH",
"488 0 OFFCURVE",
"649 136 OFFCURVE",
"649 350 CURVE SMOOTH",
"649 508 OFFCURVE",
"545 700 OFFCURVE",
"263 700 CURVE SMOOTH",
"120 700 LINE",
"120 0 LINE"
);
},
{
closed = 1;
nodes = (
"134 686 LINE",
"272 686 LINE SMOOTH",
"537 686 OFFCURVE",
"636 501 OFFCURVE",
"636 350 CURVE SMOOTH",
"636 144 OFFCURVE",
"483 13 OFFCURVE",
"303 13 CURVE",
"134 13 LINE"
);
}
);
width = 724;
},
{
anchors = (
{
name = bottom;
position = "{393, 0}";
},
{
name = center;
position = "{393, 368}";
},
{
name = top;
position = "{313, 736}";
}
);
hints = (
{
horizontal = 1;
place = "{79, 21}";
target = up;
type = BottomGhost;
},
{
horizontal = 1;
place = "{622, -20}";
target = down;
type = TopGhost;
}
);
layerId = UUID1;
paths = (
{
closed = 1;
nodes = (
"346 0 LINE",
"546 0 OFFCURVE",
"716 136 OFFCURVE",
"716 355 CURVE",
"716 540 OFFCURVE",
"607 736 OFFCURVE",
"310 736 CURVE",
"90 736 LINE",
"90 0 LINE"
);
},
{
closed = 1;
nodes = (
"235 597 LINE",
"353 597 LINE",
"420 597 OFFCURVE",
"566 557 OFFCURVE",
"566 365 CURVE",
"566 217 OFFCURVE",
"468 140 OFFCURVE",
"321 140 CURVE",
"235 140 LINE"
);
}
);
width = 766;
}
);
leftMetricsKey = H;
rightMetricsKey = O;
unicode = 0044;
},
{
glyphname = Eth;
lastChange = "2016-09-13 15:44:56 +0000";
layers = (
{
hints = (
{
horizontal = 1;
place = "{36, 21}";
target = up;
type = BottomGhost;
},
{
horizontal = 1;
place = "{736, -20}";
target = down;
type = TopGhost;
}
);
layerId = UUID0;
paths = (
{
closed = 1;
nodes = (
"256 0 LINE SMOOTH",
"447 0 OFFCURVE",
"608 136 OFFCURVE",
"608 350 CURVE SMOOTH",
"608 508 OFFCURVE",
"504 700 OFFCURVE",
"222 700 CURVE SMOOTH",
"79 700 LINE",
"79 0 LINE"
);
},
{
closed = 1;
nodes = (
"302 346 LINE",
"302 360 LINE",
"21 360 LINE",
"21 346 LINE"
);
},
{
closed = 1;
nodes = (
"93 238 OFFCURVE",
"93 461 OFFCURVE",
"93 685 CURVE",
"231 685 LINE SMOOTH",
"496 685 OFFCURVE",
"595 501 OFFCURVE",
"595 350 CURVE SMOOTH",
"595 144 OFFCURVE",
"442 14 OFFCURVE",
"262 14 CURVE SMOOTH",
"93 14 LINE"
);
}
);
width = 703;
},
{
hints = (
{
horizontal = 1;
place = "{0, 21}";
target = up;
type = BottomGhost;
},
{
horizontal = 1;
place = "{700, -20}";
target = down;
type = TopGhost;
}
);
layerId = UUID1;
paths = (
{
closed = 1;
nodes = (
"323 0 LINE SMOOTH",
"523 0 OFFCURVE",
"693 136 OFFCURVE",
"693 355 CURVE SMOOTH",
"693 540 OFFCURVE",
"584 736 OFFCURVE",
"287 736 CURVE SMOOTH",
"87 736 LINE",
"87 0 LINE"
);
},
{
closed = 1;
nodes = (
"319 306 LINE",
"319 405 LINE",
"11 405 LINE",
"11 306 LINE"
);
},
{
closed = 1;
nodes = (
"237 291 OFFCURVE",
"237 444 OFFCURVE",
"237 592 CURVE",
"325 592 LINE SMOOTH",
"393 592 OFFCURVE",
"542 553 OFFCURVE",
"542 365 CURVE SMOOTH",
"542 218 OFFCURVE",
"442 142 OFFCURVE",
"298 142 CURVE SMOOTH",
"237 142 LINE"
);
}
);
width = 651;
}
);
unicode = 00D0;
},
{
glyphname = Dcroat;
lastChange = "2016-09-17 20:00:57 +0000";
layers = (
{
components = (
{
name = D;
}
);
layerId = UUID0;
paths = (
{
closed = 1;
nodes = (
"21 386 LINE",
"302 386 LINE",
"302 400 LINE",
"21 400 LINE"
);
}
);
width = 673;
},
{
components = (
{
alignment = -1;
name = Eth;
transform = "{1, 0, 0, 1, 14, 0}";
}
);
layerId = UUID1;
width = 757;
}
);
rightMetricsKey = D;
unicode = 0110;
},
{
glyphname = E;
lastChange = "2016-09-17 14:24:01 +0000";
layers = (
{
anchors = (
{
name = bottom;
position = "{315, 0}";
},
{
name = ogonek;
position = "{582, 10}";
},
{
name = top;
position = "{315, 700}";
},
{
name = topleft;
position = "{0, 700}";
}
);
hints = (
{
horizontal = 1;
place = "{36, 21}";
target = up;
type = BottomGhost;
},
{
horizontal = 1;
place = "{736, -20}";
target = down;
type = TopGhost;
}
);
layerId = UUID0;
paths = (
{
closed = 1;
nodes = (
"120 0 LINE",
"549 0 LINE",
"549 13 LINE",
"134 13 LINE",
"134 347 LINE",
"496 347 LINE",
"496 360 LINE",
"134 360 LINE",
"134 687 LINE",
"535 687 LINE",
"535 700 LINE",
"120 700 LINE"
);
}
);
width = 659;
},
{
anchors = (
{
name = bottom;
position = "{341, 0}";
},
{
name = ogonek;
position = "{542, 10}";
},
{
name = top;
position = "{341, 756}";
},
{
name = topleft;
position = "{40, 736}";
}
);
hints = (
{
horizontal = 1;
place = "{0, 21}";
target = up;
type = BottomGhost;
},
{
horizontal = 1;
place = "{700, -20}";
target = down;
type = TopGhost;
}
);
layerId = UUID1;
paths = (
{
closed = 1;
nodes = (
"90 0 LINE",
"606 0 LINE",
"606 140 LINE",
"235 140 LINE",
"235 299 LINE",
"551 299 LINE",
"551 439 LINE",
"235 439 LINE",
"235 596 LINE",
"592 596 LINE",
"592 736 LINE",
"90 736 LINE"
);
}
);
width = 661;
}
);
leftMetricsKey = H;
unicode = 0045;
},
{
glyphname = F;
lastChange = "2016-09-17 14:24:03 +0000";
layers = (
{
anchors = (
{
name = bottom;
position = "{288, 0}";
},
{
name = top;
position = "{288, 700}";
}
);
hints = (
{
horizontal = 1;
place = "{36, 21}";
target = up;
type = BottomGhost;
},
{
horizontal = 1;
place = "{736, -20}";
target = down;
type = TopGhost;
}
);
layerId = UUID0;
paths = (
{
closed = 1;
nodes = (
"120 0 LINE",
"134 0 LINE",
"134 336 LINE",
"456 336 LINE",
"456 349 LINE",
"134 349 LINE",
"134 687 LINE",
"495 687 LINE",
"495 700 LINE",
"120 700 LINE"
);
}
);
width = 605;
},
{
anchors = (
{
name = bottom;
position = "{308, 0}";
},
{
name = top;
position = "{308, 736}";
}
);
hints = (
{
horizontal = 1;
place = "{0, 21}";
target = up;
type = BottomGhost;
},
{
horizontal = 1;
place = "{700, -20}";
target = down;
type = TopGhost;
}
);
layerId = UUID1;
paths = (
{
closed = 1;
nodes = (
"90 0 LINE",
"235 0 LINE",
"235 289 LINE",
"508 289 LINE",
"508 429 LINE",
"235 429 LINE",
"235 596 LINE",
"550 596 LINE",
"550 736 LINE",
"90 736 LINE"
);
}
);
width = 596;
}
);
leftMetricsKey = H;
unicode = 0046;
},
{
glyphname = G;
lastChange = "2016-09-13 16:36:08 +0000";
layers = (
{
anchors = (
{
name = bottom;
position = "{370, 0}";
},
{
name = top;
position = "{370, 700}";
}
);
hints = (
{
horizontal = 1;
place = "{744, -20}";
target = down;
type = TopGhost;
},
{
horizontal = 1;
place = "{28, 21}";
target = up;
type = BottomGhost;
}
);
layerId = UUID0;
paths = (
{
closed = 1;
nodes = (
"634 300 LINE",
"448 300 LINE",
"448 287 LINE",
"620 287 LINE",
"620 51 LINE",
"569 22 OFFCURVE",
"491 5 OFFCURVE",
"429 5 CURVE SMOOTH",
"222 5 OFFCURVE",
"89 159 OFFCURVE",
"89 348 CURVE SMOOTH",
"89 538 OFFCURVE",
"243 695 OFFCURVE",
"432 695 CURVE SMOOTH",
"495 695 OFFCURVE",
"556 677 OFFCURVE",
"607 646 CURVE",
"615 658 LINE",
"561 690 OFFCURVE",
"499 708 OFFCURVE",
"432 708 CURVE SMOOTH",
"235 708 OFFCURVE",
"75 547 OFFCURVE",
"75 349 CURVE SMOOTH",
"75 152 OFFCURVE",
"215 -8 OFFCURVE",
"432 -8 CURVE SMOOTH",
"499 -8 OFFCURVE",
"581 11 OFFCURVE",
"634 42 CURVE"
);
}
);
width = 734;
},
{
anchors = (
{
name = bottom;
position = "{381, 0}";
},
{
name = top;
position = "{381, 736}";
}
);
hints = (
{
horizontal = 1;
place = "{708, -20}";
target = down;
type = TopGhost;
},
{
horizontal = 1;
place = "{-8, 21}";
target = up;
type = BottomGhost;
}
);
layerId = UUID1;
paths = (
{
closed = 1;
nodes = (
"692 385 LINE",
"418 385 LINE",
"418 245 LINE",
"545 245 LINE",
"545 156 LINE",
"521 142 OFFCURVE",
"485 137 OFFCURVE",
"444 137 CURVE",
"301 137 OFFCURVE",
"200 221 OFFCURVE",
"200 360 CURVE",
"200 518 OFFCURVE",
"288 598 OFFCURVE",
"447 598 CURVE",
"494 598 OFFCURVE",
"574 575 OFFCURVE",
"611 555 CURVE",
"658 690 LINE",
"603 720 OFFCURVE",
"523 744 OFFCURVE",
"428 744 CURVE",
"227 744 OFFCURVE",
"50 616 OFFCURVE",
"50 347 CURVE",
"50 141 OFFCURVE",
"201 -8 OFFCURVE",
"440 -8 CURVE",
"530 -8 OFFCURVE",
"657 37 OFFCURVE",
"692 74 CURVE"
);
}
);
width = 762;
}
);
leftMetricsKey = O;
unicode = 0047;
},
{
glyphname = H;
lastChange = "2016-09-17 14:23:15 +0000";
layers = (
{
anchors = (
{
name = bottom;
position = "{366, 0}";
},
{
name = center;
position = "{366, 350}";
},
{
name = top;
position = "{366, 700}";
},
{
name = topleft;
position = "{0, 700}";
}
);
hints = (
{
horizontal = 1;
place = "{36, 21}";
target = up;
type = BottomGhost;
},
{
horizontal = 1;
place = "{736, -20}";
target = down;
type = TopGhost;
}
);
layerId = UUID0;
paths = (
{
closed = 1;
nodes = (
"598 700 LINE",
"598 359 LINE",
"134 359 LINE",
"134 700 LINE",
"120 700 LINE",
"120 0 LINE",
"134 0 LINE",
"134 346 LINE",
"598 346 LINE",
"598 0 LINE",
"612 0 LINE",
"612 700 LINE"
);
}
);
width = 732;
},
{
anchors = (
{
name = bottom;
position = "{400, 0}";
},
{
name = center;
position = "{400, 368}";
},
{
name = top;
position = "{400, 736}";
},
{
name = topleft;
position = "{40, 736}";
}
);
hints = (
{
horizontal = 1;
place = "{0, 21}";
target = up;
type = BottomGhost;
},
{
horizontal = 1;
place = "{700, -20}";
target = down;
type = TopGhost;
}
);
layerId = UUID1;
paths = (
{
closed = 1;
nodes = (
"564 736 LINE",
"564 439 LINE",
"235 439 LINE",
"235 736 LINE",
"90 736 LINE",
"90 0 LINE",
"235 0 LINE",
"235 299 LINE",
"564 299 LINE",
"564 0 LINE",
"709 0 LINE",
"709 736 LINE"
);
}
);
width = 799;
}
);
unicode = 0048;
},
{
glyphname = Hbar;
lastChange = "2016-09-14 16:18:28 +0000";
layers = (
{
components = (
{
name = H;
}
);
hints = (
{
horizontal = 1;
place = "{528, 21}";
target = up;
type = BottomGhost;
},
{
horizontal = 1;
place = "{542, -20}";
target = down;
type = TopGhost;
}
);
layerId = UUID0;
paths = (
{
closed = 1;
nodes = (
"72 492 LINE",
"722 492 LINE",
"722 506 LINE",
"72 506 LINE"
);
}
);
width = 794;
},
{
components = (
{
name = H;
transform = "{1, 0, 0, 1, 67, 0}";
}
);
hints = (
{
horizontal = 1;
place = "{478, 21}";
target = up;
type = BottomGhost;
},
{
horizontal = 1;
place = "{531, -20}";
target = down;
type = TopGhost;
}
);
layerId = UUID1;
paths = (
{
closed = 1;
nodes = (
"70 499 LINE",
"825 499 LINE",
"825 606 LINE",
"70 606 LINE"
);
}
);
width = 895;
}
);
leftMetricsKey = H;
rightMetricsKey = H;
unicode = 0126;
},
{
glyphname = I;
lastChange = "2016-09-17 14:24:06 +0000";
layers = (
{
anchors = (
{
name = bottom;
position = "{127, 0}";
},
{
name = ogonek;
position = "{245, 10}";
},
{
name = top;
position = "{127, 700}";
},
{
name = topleft;
position = "{0, 700}";
}
);
hints = (
{
horizontal = 1;
place = "{36, 21}";
target = up;
type = BottomGhost;
},
{
horizontal = 1;
place = "{736, -20}";
target = down;
type = TopGhost;
}
);
layerId = UUID0;
paths = (
{
closed = 1;
nodes = (
"120 0 LINE",
"134 0 LINE",
"134 700 LINE",
"120 700 LINE"
);
}
);
width = 254;
},
{
anchors = (
{
name = bottom;
position = "{163, 0}";
},
{
name = ogonek;
position = "{208, 10}";
},
{
name = top;
position = "{163, 756}";
},
{
name = topleft;
position = "{40, 736}";
}
);
hints = (
{
horizontal = 1;
place = "{0, 21}";
target = up;
type = BottomGhost;
},
{
horizontal = 1;
place = "{700, -20}";
target = down;
type = TopGhost;
}
);
layerId = UUID1;
paths = (
{
closed = 1;
nodes = (
"90 0 LINE",
"235 0 LINE",
"235 736 LINE",
"90 736 LINE"
);
}
);
width = 325;
}
);
leftMetricsKey = H;
rightMetricsKey = H;
unicode = 0049;
},
{
glyphname = Iogonek;
lastChange = "2016-09-14 16:58:02 +0000";
layers = (
{
components = (
{
name = I;
},
{
name = ogonek;
transform = "{1, 0, 0, 1, -56, 0}";
}
);
layerId = UUID0;
width = 314;
},
{
anchors = (
{
name = _ogonek;
position = "{188, 10}";
}
);
components = (
{
name = I;
}
);
layerId = UUID1;
paths = (
{
closed = 1;
nodes = (
"215 0 CURVE",
"190 6 LINE",
"72 0 LINE",
"17 -22 OFFCURVE",
"-13 -69 OFFCURVE",
"-13 -113 CURVE SMOOTH",
"-13 -191 OFFCURVE",
"49 -226 OFFCURVE",
"131 -226 CURVE SMOOTH",
"188 -226 OFFCURVE",
"251 -193 OFFCURVE",
"271 -144 CURVE",
"201 -92 LINE",
"195 -110 OFFCURVE",
"173 -134 OFFCURVE",
"146 -134 CURVE SMOOTH",
"123 -134 OFFCURVE",
"102 -126 OFFCURVE",
"102 -92 CURVE SMOOTH",
"102 -50 OFFCURVE",
"147 -26 OFFCURVE"
);
}
);
width = 285;
}
);
unicode = 012E;
},
{
glyphname = J;
lastChange = "2016-09-17 20:03:45 +0000";
layers = (
{
anchors = (
{
name = bottom;
position = "{168, 0}";
},
{
name = top;
position = "{168, 700}";
}
);
hints = (
{
horizontal = 1;
place = "{-106, 21}";
target = up;
type = BottomGhost;
},
{
horizontal = 1;
place = "{736, -20}";
target = down;
type = TopGhost;
}
);
layerId = UUID0;
paths = (
{
closed = 1;
nodes = (
"185 700 LINE",
"171 700 LINE",
"171 93 LINE SMOOTH",
"171 -42 OFFCURVE",
"98 -124 OFFCURVE",
"0 -129 CURVE",
"0 -142 LINE",
"0 -142 LINE",
"101 -138 OFFCURVE",
"185 -58 OFFCURVE",
"185 90 CURVE SMOOTH"
);
}
);
width = 305;
},
{
anchors = (
{
name = bottom;
position = "{168, 0}";
},
{
name = top;
position = "{238, 756}";
}
);
hints = (
{
horizontal = 1;
place = "{-144, 21}";
target = up;
type = BottomGhost;
},
{
horizontal = 1;
place = "{700, -20}";
target = down;
type = TopGhost;
}
);
layerId = UUID1;
paths = (
{
closed = 1;
nodes = (
"305 736 LINE",
"159 736 LINE",
"159 158 LINE SMOOTH",
"159 38 OFFCURVE",
"96 -7 OFFCURVE",
"5 -12 CURVE",
"5 -153 LINE",
"5 -153 LINE",
"182 -148 OFFCURVE",
"305 -37 OFFCURVE",
"305 155 CURVE SMOOTH"
);
}
);
width = 395;
}
);
rightMetricsKey = H;
unicode = 004A;
},
{
glyphname = K;
lastChange = "2016-09-17 20:04:47 +0000";
layers = (
{
anchors = (
{
name = bottom;
position = "{304, 0}";
},
{
name = top;
position = "{304, 700}";
}
);
hints = (
{
horizontal = 1;
place = "{36, 21}";
target = up;
type = BottomGhost;
},
{
horizontal = 1;
place = "{737, -20}";
target = down;
type = TopGhost;
},
{
horizontal = 1;
place = "{736, -20}";
target = down;
type = TopGhost;
}
);
layerId = UUID0;
paths = (
{
closed = 1;
nodes = (
"134 700 LINE",
"120 700 LINE",
"120 0 LINE",
"134 0 LINE",
"133 316 LINE",
"237 414 LINE",
"565 0 LINE",
"583 0 LINE",
"248 424 LINE",
"538 700 LINE",
"520 700 LINE",
"129 328 LINE",
"133 326 LINE",
"134 360 LINE"
);
}
);
width = 638;
},
{
anchors = (
{
name = bottom;
position = "{325, 0}";
},
{
name = top;
position = "{375, 736}";
}
);
hints = (
{
horizontal = 1;
place = "{0, 21}";
target = up;
type = BottomGhost;
},
{
horizontal = 1;
place = "{700, -20}";
target = down;
type = TopGhost;
},
{
horizontal = 1;
place = "{700, -20}";
target = down;
type = TopGhost;
}
);
layerId = UUID1;
paths = (
{
closed = 1;
nodes = (
"237 736 LINE",
"90 736 LINE",
"90 0 LINE",
"237 0 LINE",
"237 278 LINE",
"273 314 LINE",
"500 0 LINE",
"684 0 LINE",
"379 406 LINE",
"683 736 LINE",
"495 736 LINE",
"255 465 LINE",
"233 437 LINE",
"237 474 LINE"
);
}
);
width = 699;
}
);
leftMetricsKey = H;
unicode = 004B;
},
{
glyphname = L;
lastChange = "2016-09-17 14:24:11 +0000";
layers = (
{
anchors = (
{
name = bottom;
position = "{310, 0}";
},
{
name = center;
position = "{310, 350}";
},
{
name = top;
position = "{310, 700}";
},
{
name = topright;
position = "{619, 700}";
}
);
hints = (
{
horizontal = 1;
place = "{36, 21}";
target = up;
type = BottomGhost;
},
{
horizontal = 1;
place = "{736, -20}";
target = down;
type = TopGhost;
}
);
layerId = UUID0;
paths = (
{
closed = 1;
nodes = (
"120 0 LINE",
"539 0 LINE",
"539 13 LINE",
"134 13 LINE",
"134 700 LINE",
"120 700 LINE"
);
}
);
width = 614;
},
{
anchors = (
{
name = bottom;
position = "{323, 0}";
},
{
name = center;
position = "{323, 368}";
},
{
name = top;
position = "{160, 756}";
},
{
name = topright;
position = "{606, 736}";
}
);
hints = (
{
horizontal = 1;
place = "{0, 21}";
target = up;
type = BottomGhost;
},
{
horizontal = 1;
place = "{700, -20}";
target = down;
type = TopGhost;
}
);
layerId = UUID1;
paths = (
{
closed = 1;
nodes = (
"90 0 LINE",
"581 0 LINE",
"581 140 LINE",
"235 140 LINE",
"235 736 LINE",
"90 736 LINE"
);
}
);
width = 626;
}
);
leftMetricsKey = H;
unicode = 004C;
},
{
glyphname = Lslash;
lastChange = "2016-09-17 20:05:21 +0000";
layers = (
{
components = (
{
name = L;
}
);
hints = (
{
horizontal = 1;
place = "{215, 21}";
target = up;
type = BottomGhost;
},
{
horizontal = 1;
place = "{229, -20}";
target = down;
type = TopGhost;
}
);
layerId = UUID0;
paths = (
{
closed = 1;
nodes = (
"33 293 LINE",
"33 279 LINE",
"347 394 LINE",
"347 408 LINE"
);
}
);
width = 570;
},
{
components = (
{
name = L;
}
);
hints = (
{
horizontal = 1;
place = "{327, 21}";
target = up;
type = BottomGhost;
},
{
horizontal = 1;
place = "{408, -20}";
target = down;
type = TopGhost;
}
);
layerId = UUID1;
paths = (
{
closed = 1;
nodes = (
"5 368 LINE",
"35 255 LINE",
"441 381 LINE",
"411 494 LINE"
);
}
);
width = 640;
}
);
unicode = 0141;
},
{
glyphname = M;
lastChange = "2016-09-17 14:24:13 +0000";
layers = (
{
anchors = (
{
name = bottom;
position = "{446, 0}";
},
{
name = top;
position = "{446, 700}";
}
);
hints = (
{
horizontal = 1;
place = "{36, 21}";
target = up;
type = BottomGhost;
},
{
horizontal = 1;
place = "{768, -20}";
target = down;
type = TopGhost;
}
);
layerId = UUID0;
paths = (
{
closed = 1;
nodes = (
"134 0 LINE",
"134 675 LINE",
"132 670 LINE",
"445 230 LINE",
"447 230 LINE",
"760 670 LINE",
"758 675 LINE",
"758 0 LINE",
"772 0 LINE",
"772 711 LINE",
"771 711 LINE",
"443 244 LINE",
"449 244 LINE",
"121 711 LINE",
"120 711 LINE",
"120 0 LINE"
);
}
);
width = 892;
},
{
anchors = (
{
name = bottom;
position = "{469, 0}";
},
{
name = top;
position = "{469, 736}";
}
);
hints = (
{
horizontal = 1;
place = "{0, 21}";
target = up;
type = BottomGhost;
},
{
horizontal = 1;
place = "{732, -20}";
target = down;
type = TopGhost;
}
);
layerId = UUID1;
paths = (
{
closed = 1;
nodes = (
"230 0 LINE",
"230 433 LINE",
"205 364 LINE",
"461 10 LINE",
"463 10 LINE",
"712 364 LINE",
"703 439 LINE",
"703 0 LINE",
"848 0 LINE",
"848 766 LINE",
"846 766 LINE",
"438 200 LINE",
"500 186 LINE",
"91 766 LINE",
"90 766 LINE",
"90 0 LINE"
);
}
);
width = 938;
}
);
leftMetricsKey = H;
rightMetricsKey = H;
unicode = 004D;
},
{
glyphname = N;
lastChange = "2016-09-17 14:24:17 +0000";
layers = (
{
anchors = (
{
name = bottom;
position = "{406, 0}";
},
{
name = top;
position = "{406, 700}";
}
);
hints = (
{
horizontal = 1;
place = "{768, -20}";
target = down;
type = TopGhost;
},
{
horizontal = 1;
place = "{4, 21}";
target = up;
type = BottomGhost;
}
);
layerId = UUID0;
paths = (
{
closed = 1;
nodes = (
"691 -12 LINE",
"691 700 LINE",
"677 700 LINE",
"677 16 LINE",
"687 14 LINE",
"121 711 LINE",
"120 711 LINE",
"120 0 LINE",
"134 0 LINE",
"134 686 LINE",
"130 676 LINE",
"690 -12 LINE"
);
}
);
width = 811;
},
{
anchors = (
{
name = bottom;
position = "{422, 0}";
},
{
name = top;
position = "{402, 736}";
}
);
hints = (
{
horizontal = 1;
place = "{732, -20}";
target = down;
type = TopGhost;
},
{
horizontal = 1;
place = "{-32, 21}";
target = up;
type = BottomGhost;
}
);
layerId = UUID1;
paths = (
{
closed = 1;
nodes = (
"753 -30 LINE",
"753 736 LINE",
"607 736 LINE",
"610 277 LINE",
"642 263 LINE",
"96 765 LINE",
"90 765 LINE",
"90 0 LINE",
"237 0 LINE",
"234 450 LINE",
"191 474 LINE",
"749 -30 LINE"
);
}
);
width = 843;
}
);
leftMetricsKey = H;
rightMetricsKey = H;
unicode = 004E;
},
{
glyphname = Eng;
lastChange = "2016-09-15 13:58:16 +0000";
layers = (
{
layerId = UUID0;
width = 620;
},
{
anchors = (
{
name = bottom;
position = "{402, 0}";
},
{
name = top;
position = "{402, 736}";
}
);
hints = (
{
horizontal = 1;
place = "{732, -20}";
target = down;
type = TopGhost;
},
{
horizontal = 1;
place = "{-32, 21}";
target = up;
type = BottomGhost;
},
{
horizontal = 1;
place = "{-181, 21}";
target = up;
type = BottomGhost;
},
{
horizontal = 1;
place = "{573, -20}";
target = down;
type = TopGhost;
}
);
layerId = UUID1;
paths = (
{
closed = 1;
nodes = (
"733 4 LINE",
"733 736 LINE",
"587 736 LINE",
"590 277 LINE",
"622 263 LINE",
"76 765 LINE",
"70 765 LINE",
"70 0 LINE",
"217 0 LINE",
"214 450 LINE",
"171 474 LINE",
"729 -30 LINE"
);
},
{
closed = 1;
nodes = (
"594 163 LINE",
"594 8 LINE",
"594 -53 OFFCURVE",
"571 -95 OFFCURVE",
"531 -124 CURVE",
"611 -211 LINE",
"611 -211 LINE",
"695 -167 OFFCURVE",
"733 -96 OFFCURVE",
"733 0 CURVE",
"733 30 LINE"
);
}
);
width = 803;
}
);
unicode = 014A;
},
{
glyphname = Nhookleft;
lastChange = "2016-09-15 13:59:00 +0000";
layers = (
{
layerId = UUID0;
width = 620;
},
{
layerId = UUID1;
paths = (
{
closed = 1;
nodes = (
"733 4 LINE",
"733 736 LINE",
"587 736 LINE",
"590 277 LINE",
"622 263 LINE",
"76 765 LINE",
"70 765 LINE",
"70 0 LINE",
"217 0 LINE",
"214 450 LINE",
"171 474 LINE",
"729 -30 LINE"
);
},
{
closed = 1;
nodes = (
"70 163 LINE",
"70 8 LINE",
"70 -53 OFFCURVE",
"47 -95 OFFCURVE",
"7 -124 CURVE",
"95 -211 LINE",
"95 -211 LINE",
"179 -167 OFFCURVE",
"217 -96 OFFCURVE",
"217 0 CURVE",
"217 30 LINE"
);
}
);
width = 600;
}
);
unicode = 019D;
},
{
glyphname = O;
lastChange = "2016-09-15 17:27:22 +0000";
layers = (
{
anchors = (
{
name = bottom;
position = "{433, 0}";
},
{
name = center;
position = "{433, 350}";
},
{
name = ogonek;
position = "{775, 10}";
},
{
name = top;
position = "{433, 700}";
},
{
name = topleft;
position = "{25, 700}";
},
{
name = topright;
position = "{841, 700}";
}
);
hints = (
{
horizontal = 1;
place = "{23, 21}";
target = up;
type = BottomGhost;
},
{
horizontal = 1;
place = "{739, -20}";
target = down;
type = TopGhost;
}
);
layerId = UUID0;
paths = (
{
closed = 1;
nodes = (
"75 141 OFFCURVE",
"235 -8 OFFCURVE",
"432 -8 CURVE SMOOTH",
"630 -8 OFFCURVE",
"791 152 OFFCURVE",
"791 349 CURVE SMOOTH",
"791 547 OFFCURVE",
"630 708 OFFCURVE",
"432 708 CURVE SMOOTH",
"235 708 OFFCURVE",
"75 547 OFFCURVE",
"75 349 CURVE"
);
},
{
closed = 1;
nodes = (
"89 532 OFFCURVE",
"237 695 OFFCURVE",
"432 695 CURVE SMOOTH",
"621 695 OFFCURVE",
"777 538 OFFCURVE",
"777 349 CURVE SMOOTH",
"777 158 OFFCURVE",
"621 5 OFFCURVE",
"429 5 CURVE SMOOTH",
"242 5 OFFCURVE",
"89 159 OFFCURVE",
"89 348 CURVE"
);
}
);
width = 866;
},
{
anchors = (
{
name = bottom;
position = "{426, 0}";
},
{
name = center;
position = "{426, 368}";
},
{
name = ogonek;
position = "{597, 10}";
},
{
name = top;
position = "{426, 746}";
},
{
name = topleft;
position = "{20, 736}";
},
{
name = topright;
position = "{692, 736}";
}
);
annotations = (
{
position = "{300.18, 381.51}";
type = Text;
}
);
hints = (
{
horizontal = 1;
place = "{71, 21}";
target = up;
type = BottomGhost;
},
{
horizontal = 1;
place = "{629, -20}";
target = down;
type = TopGhost;
}
);
layerId = UUID1;
paths = (
{
closed = 1;
nodes = (
"50 159 OFFCURVE",
"218 -8 OFFCURVE",
"425 -8 CURVE",
"630 -8 OFFCURVE",
"802 160 OFFCURVE",
"802 367 CURVE",
"802 570 OFFCURVE",
"630 744 OFFCURVE",
"425 744 CURVE",
"218 744 OFFCURVE",
"50 570 OFFCURVE",
"50 367 CURVE"
);
},
{
closed = 1;
nodes = (
"200 500 OFFCURVE",
"298 604 OFFCURVE",
"426 604 CURVE",
"553 604 OFFCURVE",
"652 500 OFFCURVE",
"652 367 CURVE",
"652 236 OFFCURVE",
"556 132 OFFCURVE",
"430 132 CURVE",
"300 132 OFFCURVE",
"200 237 OFFCURVE",
"200 367 CURVE"
);
}
);
width = 852;
}
);
unicode = 004F;
},
{
glyphname = Oogonek;
lastChange = "2016-09-14 16:59:52 +0000";
layers = (
{
components = (
{
name = O;
},
{
name = ogonek;
transform = "{1, 0, 0, 1, 10, 0}";
}
);
layerId = UUID0;
width = 620;
},
{
anchors = (
{
name = _ogonek;
position = "{597, 10}";
},
{
name = bottom;
position = "{426, 0}";
},
{
name = center;
position = "{426, 368}";
},
{
name = ogonek;
position = "{597, 10}";
},
{
name = top;
position = "{426, 746}";
},
{
name = topleft;
position = "{20, 736}";
},
{
name = topright;
position = "{832, 736}";
}
);
background = {
paths = (
{
closed = 1;
nodes = (
"481 0 LINE",
"426 -22 OFFCURVE",
"396 -69 OFFCURVE",
"396 -113 CURVE SMOOTH",
"396 -191 OFFCURVE",
"458 -226 OFFCURVE",
"540 -226 CURVE SMOOTH",
"597 -226 OFFCURVE",
"660 -193 OFFCURVE",
"680 -144 CURVE",
"610 -92 LINE",
"604 -110 OFFCURVE",
"582 -134 OFFCURVE",
"555 -134 CURVE SMOOTH",
"532 -134 OFFCURVE",
"511 -126 OFFCURVE",
"511 -71 CURVE SMOOTH",
"511 -9 OFFCURVE",
"554 11 OFFCURVE",
"620 47 CURVE SMOOTH",
"732 108 OFFCURVE",
"802 231 OFFCURVE",
"802 367 CURVE",
"802 570 OFFCURVE",
"630 744 OFFCURVE",
"425 744 CURVE",
"218 744 OFFCURVE",
"50 570 OFFCURVE",
"50 367 CURVE",
"50 160 OFFCURVE",
"218 -8 OFFCURVE",
"425 -8 CURVE",
"496 -8 OFFCURVE",
"555 12 OFFCURVE",
"613 47 CURVE"
);
},
{
closed = 1;
nodes = (
"200 496 OFFCURVE",
"298 600 OFFCURVE",
"426 600 CURVE",
"553 600 OFFCURVE",
"652 496 OFFCURVE",
"652 367 CURVE",
"652 237 OFFCURVE",
"556 133 OFFCURVE",
"430 133 CURVE",
"300 133 OFFCURVE",
"200 238 OFFCURVE",
"200 367 CURVE"
);
}
);
};
hints = (
{
horizontal = 1;
place = "{71, 21}";
target = up;
type = BottomGhost;
},
{
horizontal = 1;
place = "{629, -20}";
target = down;
type = TopGhost;
}
);
layerId = UUID1;
paths = (
{
closed = 1;
nodes = (
"481 0 LINE",
"426 -22 OFFCURVE",
"396 -69 OFFCURVE",
"396 -113 CURVE SMOOTH",
"396 -191 OFFCURVE",
"458 -226 OFFCURVE",
"540 -226 CURVE SMOOTH",
"597 -226 OFFCURVE",
"660 -193 OFFCURVE",
"680 -144 CURVE",
"610 -92 LINE",
"604 -110 OFFCURVE",
"582 -134 OFFCURVE",
"555 -134 CURVE SMOOTH",
"532 -134 OFFCURVE",
"511 -126 OFFCURVE",
"511 -90 CURVE SMOOTH",
"511 10 OFFCURVE",
"802 51 OFFCURVE",
"802 367 CURVE",
"802 570 OFFCURVE",
"630 744 OFFCURVE",
"425 744 CURVE",
"218 744 OFFCURVE",
"50 570 OFFCURVE",
"50 367 CURVE",
"50 160 OFFCURVE",
"218 -8 OFFCURVE",
"425 -8 CURVE",
"496 -8 OFFCURVE",
"555 12 OFFCURVE",
"613 47 CURVE"
);
},
{
closed = 1;
nodes = (
"200 496 OFFCURVE",
"298 600 OFFCURVE",
"426 600 CURVE",
"553 600 OFFCURVE",
"652 496 OFFCURVE",
"652 367 CURVE",
"652 237 OFFCURVE",
"556 133 OFFCURVE",
"430 133 CURVE",
"300 133 OFFCURVE",
"200 238 OFFCURVE",
"200 367 CURVE"
);
}
);
width = 852;
}
);
unicode = 01EA;
},
{
glyphname = Oslash;
lastChange = "2016-09-17 23:46:27 +0000";
layers = (
{
anchors = (
{
name = bottom;
position = "{428, 0}";
},
{
name = top;
position = "{428, 700}";
}
);
components = (
{
name = O;
}
);
hints = (
{
horizontal = 1;
place = "{28, 21}";
target = up;
type = BottomGhost;
},
{
horizontal = 1;
place = "{744, -20}";
target = down;
type = TopGhost;
}
);
layerId = UUID0;
paths = (
{
closed = 1;
nodes = (
"714 716 LINE",
"122 8 LINE",
"130 0 LINE",
"722 708 LINE"
);
}
);
width = 856;
},
{
anchors = (
{
name = bottom;
position = "{429, 0}";
},
{
name = top;
position = "{429, 736}";
}
);
components = (
{
name = O;
}
);
hints = (
{
horizontal = 1;
place = "{-17, 21}";
target = up;
type = BottomGhost;
},
{
horizontal = 1;
place = "{719, -20}";
target = down;
type = TopGhost;
}
);
layerId = UUID1;
paths = (
{
closed = 1;
nodes = (
"681 759 LINE",
"76 60 LINE",
"168 -23 LINE",
"771 675 LINE"
);
}
);
width = 858;
}
);
unicode = 00D8;
},
{
glyphname = OE;
lastChange = "2016-09-13 15:44:56 +0000";
layers = (
{
anchors = (
{
name = bottom;
position = "{504, 0}";
},
{
name = top;
position = "{504, 700}";
}
);
hints = (
{
horizontal = 1;
place = "{28, 21}";
target = up;
type = BottomGhost;
},
{
horizontal = 1;
place = "{744, -20}";
target = down;
type = TopGhost;
},
{
horizontal = 1;
place = "{36, 21}";
target = up;
type = BottomGhost;
},
{
horizontal = 1;
place = "{736, -20}";
target = down;
type = TopGhost;
}
);
layerId = UUID0;
paths = (
{
closed = 1;
nodes = (
"528 696 LINE",
"499 704 OFFCURVE",
"469 708 OFFCURVE",
"437 708 CURVE SMOOTH",
"240 708 OFFCURVE",
"80 547 OFFCURVE",
"80 349 CURVE SMOOTH",
"80 152 OFFCURVE",
"240 -8 OFFCURVE",
"437 -8 CURVE SMOOTH",
"468 -8 OFFCURVE",
"498 -4 OFFCURVE",
"526 3 CURVE",
"511 15 LINE",
"486 9 OFFCURVE",
"461 6 OFFCURVE",
"434 6 CURVE SMOOTH",
"247 6 OFFCURVE",
"94 159 OFFCURVE",
"94 348 CURVE SMOOTH",
"94 538 OFFCURVE",
"248 694 OFFCURVE",
"437 694 CURVE SMOOTH",
"463 694 OFFCURVE",
"488 691 OFFCURVE",
"512 686 CURVE"
);
},
{
closed = 1;
nodes = (
"506 0 LINE",
"905 0 LINE",
"905 14 LINE",
"520 14 LINE",
"520 346 LINE",
"852 346 LINE",
"852 360 LINE",
"520 360 LINE",
"520 686 LINE",
"891 686 LINE",
"891 700 LINE",
"506 700 LINE"
);
}
);
width = 1008;
},
{
anchors = (
{
name = bottom;
position = "{511, 0}";
},
{
name = top;
position = "{511, 736}";
}
);
hints = (
{
horizontal = 1;
place = "{71, 21}";
target = up;
type = BottomGhost;
},
{
horizontal = 1;
place = "{629, -20}";
target = down;
type = TopGhost;
},
{
horizontal = 1;
place = "{0, 21}";
target = up;
type = BottomGhost;
},
{
horizontal = 1;
place = "{700, -20}";
target = down;
type = TopGhost;
}
);
layerId = UUID1;
paths = (
{
closed = 1;
nodes = (
"529 731 LINE",
"499 739 OFFCURVE",
"467 744 OFFCURVE",
"434 744 CURVE SMOOTH",
"227 744 OFFCURVE",
"59 570 OFFCURVE",
"59 367 CURVE SMOOTH",
"59 160 OFFCURVE",
"227 -8 OFFCURVE",
"434 -8 CURVE SMOOTH",
"466 -8 OFFCURVE",
"496 -4 OFFCURVE",
"526 4 CURVE",
"489 139 LINE",
"473 135 OFFCURVE",
"456 133 OFFCURVE",
"439 133 CURVE SMOOTH",
"311 133 OFFCURVE",
"209 238 OFFCURVE",
"209 367 CURVE SMOOTH",
"209 496 OFFCURVE",
"309 600 OFFCURVE",
"435 600 CURVE SMOOTH",
"452 600 OFFCURVE",
"468 598 OFFCURVE",
"484 594 CURVE"
);
},
{
closed = 1;
nodes = (
"477 0 LINE",
"963 0 LINE",
"963 139 LINE",
"627 139 LINE",
"627 299 LINE",
"908 299 LINE",
"908 437 LINE",
"627 437 LINE",
"627 601 LINE",
"949 601 LINE",
"949 736 LINE",
"477 736 LINE"
);
}
);
width = 1021;
}
);
unicode = 0152;
},
{
glyphname = P;
lastChange = "2016-09-17 14:24:29 +0000";
layers = (
{
anchors = (
{
name = bottom;
position = "{255, 0}";
},
{
name = top;
position = "{255, 700}";
}
);
hints = (
{
horizontal = 1;
place = "{36, 21}";
target = up;
type = BottomGhost;
},
{
horizontal = 1;
place = "{736, -20}";
target = down;
type = TopGhost;
}
);
layerId = UUID0;
paths = (
{
closed = 1;
nodes = (
"120 700 LINE",
"120 0 LINE",
"134 0 LINE",
"134 321 LINE",
"246 321 LINE SMOOTH",
"395 321 OFFCURVE",
"460 416 OFFCURVE",
"460 516 CURVE SMOOTH",
"460 644 OFFCURVE",
"375 700 OFFCURVE",
"262 700 CURVE SMOOTH"
);
},
{
closed = 1;
nodes = (
"134 334 LINE",
"134 687 LINE",
"260 687 LINE SMOOTH",
"369 687 OFFCURVE",
"446 630 OFFCURVE",
"446 518 CURVE SMOOTH",
"446 446 OFFCURVE",
"404 334 OFFCURVE",
"246 334 CURVE SMOOTH"
);
}
);
width = 535;
},
{
anchors = (
{
name = bottom;
position = "{326, 0}";
},
{
name = top;
position = "{326, 736}";
}
);
hints = (
{
horizontal = 1;
place = "{0, 21}";
target = up;
type = BottomGhost;
},
{
horizontal = 1;
place = "{700, -20}";
target = down;
type = TopGhost;
}
);
layerId = UUID1;
paths = (
{
closed = 1;
nodes = (
"90 736 LINE",
"90 0 LINE",
"235 0 LINE",
"235 233 LINE",
"339 233 LINE SMOOTH",
"531 233 OFFCURVE",
"596 367 OFFCURVE",
"596 488 CURVE SMOOTH",
"596 639 OFFCURVE",
"495 736 OFFCURVE",
"313 736 CURVE SMOOTH"
);
},
{
closed = 1;
nodes = (
"235 374 LINE",
"235 596 LINE",
"339 596 LINE SMOOTH",
"441 596 OFFCURVE",
"451 513 OFFCURVE",
"451 484 CURVE SMOOTH",
"451 446 OFFCURVE",
"426 374 OFFCURVE",
"338 374 CURVE SMOOTH"
);
}
);
width = 646;
}
);
leftMetricsKey = H;
rightMetricsKey = O;
unicode = 0050;
},
{
glyphname = Thorn;
lastChange = "2016-09-17 23:51:22 +0000";
layers = (
{
anchors = (
{
name = bottom;
position = "{245, 0}";
},
{
name = top;
position = "{245, 700}";
}
);
hints = (
{
horizontal = 1;
place = "{736, -20}";
target = down;
type = TopGhost;
},
{
horizontal = 1;
place = "{36, 21}";
target = up;
type = BottomGhost;
}
);
layerId = UUID0;
paths = (
{
closed = 1;
nodes = (
"94 535 LINE",
"94 700 LINE",
"80 700 LINE",
"80 0 LINE",
"94 0 LINE",
"94 156 LINE",
"206 156 LINE SMOOTH",
"355 156 OFFCURVE",
"420 251 OFFCURVE",
"420 351 CURVE SMOOTH",
"420 489 OFFCURVE",
"297 535 OFFCURVE",
"220 535 CURVE SMOOTH"
);
},
{
closed = 1;
nodes = (
"94 170 LINE",
"94 521 LINE",
"210 521 LINE SMOOTH",
"321 521 OFFCURVE",
"406 455 OFFCURVE",
"406 353 CURVE SMOOTH",
"406 281 OFFCURVE",
"364 170 OFFCURVE",
"209 170 CURVE SMOOTH"
);
}
);
width = 490;
},
{
anchors = (
{
name = bottom;
position = "{267, 0}";
},
{
name = top;
position = "{267, 736}";
}
);
hints = (
{
horizontal = 1;
place = "{700, -20}";
target = down;
type = TopGhost;
},
{
horizontal = 1;
place = "{0, 21}";
target = up;
type = BottomGhost;
}
);
layerId = UUID1;
paths = (
{
closed = 1;
nodes = (
"240 616 LINE",
"240 714 LINE",
"90 714 LINE",
"90 0 LINE",
"240 0 LINE",
"240 113 LINE",
"349 113 LINE SMOOTH",
"541 113 OFFCURVE",
"596 247 OFFCURVE",
"596 368 CURVE SMOOTH",
"596 519 OFFCURVE",
"525 616 OFFCURVE",
"343 616 CURVE SMOOTH"
);
},
{
closed = 1;
nodes = (
"240 254 LINE",
"240 476 LINE",
"334 476 LINE SMOOTH",
"424 476 OFFCURVE",
"446 413 OFFCURVE",
"446 364 CURVE SMOOTH",
"446 306 OFFCURVE",
"409 254 OFFCURVE",
"333 254 CURVE SMOOTH"
);
}
);
width = 646;
}
);
leftMetricsKey = H;
rightMetricsKey = P;
unicode = 00DE;
},
{
glyphname = Q;
lastChange = "2016-09-13 16:48:50 +0000";
layers = (
{
anchors = (
{
name = bottom;
position = "{439, 0}";
},
{
name = top;
position = "{439, 700}";
}
);
hints = (
{
horizontal = 1;
place = "{23, 21}";
target = up;
type = BottomGhost;
},
{
horizontal = 1;
place = "{739, -20}";
target = down;
type = TopGhost;
}
);
layerId = UUID0;
paths = (
{
closed = 1;
nodes = (
"496 0 LINE",
"803 0 LINE",
"803 13 LINE",
"521 13 LINE"
);
},
{
closed = 1;
nodes = (
"75 141 OFFCURVE",
"235 -8 OFFCURVE",
"432 -8 CURVE SMOOTH",
"630 -8 OFFCURVE",
"791 152 OFFCURVE",
"791 349 CURVE SMOOTH",
"791 547 OFFCURVE",
"630 708 OFFCURVE",
"432 708 CURVE SMOOTH",
"235 708 OFFCURVE",
"75 547 OFFCURVE",
"75 349 CURVE"
);
},
{
closed = 1;
nodes = (
"89 532 OFFCURVE",
"237 695 OFFCURVE",
"432 695 CURVE SMOOTH",
"621 695 OFFCURVE",
"777 538 OFFCURVE",
"777 349 CURVE SMOOTH",
"777 158 OFFCURVE",
"621 5 OFFCURVE",
"429 5 CURVE SMOOTH",
"242 5 OFFCURVE",
"89 159 OFFCURVE",
"89 348 CURVE"
);
}
);
width = 878;
},
{
anchors = (
{
name = bottom;
position = "{435, 0}";
},
{
name = top;
position = "{435, 736}";
}
);
hints = (
{
horizontal = 1;
place = "{-8, 21}";
target = up;
type = BottomGhost;
},
{
horizontal = 1;
place = "{708, -20}";
target = down;
type = TopGhost;
}
);
layerId = UUID1;
paths = (
{
closed = 1;
nodes = (
"425 0 LINE",
"843 0 LINE",
"843 142 LINE",
"615 142 LINE"
);
},
{
closed = 1;
nodes = (
"50 160 OFFCURVE",
"218 -8 OFFCURVE",
"425 -8 CURVE",
"630 -8 OFFCURVE",
"802 160 OFFCURVE",
"802 367 CURVE",
"802 570 OFFCURVE",
"630 744 OFFCURVE",
"425 744 CURVE",
"218 744 OFFCURVE",
"50 570 OFFCURVE",
"50 367 CURVE"
);
},
{
closed = 1;
nodes = (
"200 496 OFFCURVE",
"298 600 OFFCURVE",
"426 600 CURVE",
"553 600 OFFCURVE",
"652 496 OFFCURVE",
"652 367 CURVE",
"652 237 OFFCURVE",
"556 133 OFFCURVE",
"430 133 CURVE",
"300 133 OFFCURVE",
"200 238 OFFCURVE",
"200 367 CURVE"
);
}
);
width = 893;
}
);
leftMetricsKey = O;
rightMetricsKey = O;
unicode = 0051;
},
{
glyphname = R;
lastChange = "2016-09-17 20:12:27 +0000";
layers = (
{
anchors = (
{
name = bottom;
position = "{261, 0}";
},
{
name = top;
position = "{261, 700}";
}
);
hints = (
{
horizontal = 1;
place = "{36, 21}";
target = up;
type = BottomGhost;
},
{
horizontal = 1;
place = "{736, -20}";
target = down;
type = TopGhost;
}
);
layerId = UUID0;
paths = (
{
closed = 1;
nodes = (
"120 700 LINE",
"120 0 LINE",
"134 0 LINE",
"134 321 LINE",
"246 321 LINE SMOOTH",
"403 321 OFFCURVE",
"460 416 OFFCURVE",
"460 516 CURVE SMOOTH",
"460 654 OFFCURVE",
"337 700 OFFCURVE",
"260 700 CURVE SMOOTH"
);
},
{
closed = 1;
nodes = (
"134 334 LINE",
"134 687 LINE",
"260 687 LINE SMOOTH",
"361 687 OFFCURVE",
"446 619 OFFCURVE",
"446 515 CURVE SMOOTH",
"446 431 OFFCURVE",
"404 334 OFFCURVE",
"243 334 CURVE SMOOTH"
);
},
{
closed = 1;
nodes = (
"316 337 LINE",
"518 0 LINE",
"534 0 LINE",
"332 337 LINE"
);
}
);
width = 614;
},
{
anchors = (
{
name = bottom;
position = "{356, 0}";
},
{
name = top;
position = "{316, 756}";
}
);
hints = (
{
horizontal = 1;
place = "{0, 21}";
target = up;
type = BottomGhost;
},
{
horizontal = 1;
place = "{700, -20}";
target = down;
type = TopGhost;
}
);
layerId = UUID1;
paths = (
{
closed = 1;
nodes = (
"90 736 LINE",
"90 0 LINE",
"235 0 LINE",
"235 234 LINE",
"339 234 LINE",
"535 234 OFFCURVE",
"601 367 OFFCURVE",
"601 488 CURVE",
"601 639 OFFCURVE",
"498 736 OFFCURVE",
"313 736 CURVE"
);
},
{
closed = 1;
nodes = (
"235 374 LINE",
"235 596 LINE",
"339 596 LINE",
"441 596 OFFCURVE",
"451 514 OFFCURVE",
"451 483 CURVE",
"451 441 OFFCURVE",
"426 374 OFFCURVE",
"338 374 CURVE"
);
},
{
closed = 1;
nodes = (
"301 280 LINE",
"487 0 LINE",
"656 0 LINE",
"474 284 LINE"
);
}
);
width = 691;
}
);
leftMetricsKey = H;
unicode = 0052;
},
{
glyphname = S;
lastChange = "2016-09-14 17:06:03 +0000";
layers = (
{
anchors = (
{
name = bottom;
position = "{294, 0}";
},
{
name = top;
position = "{294, 700}";
}
);
hints = (
{
horizontal = 1;
place = "{740, -20}";
target = down;
type = TopGhost;
},
{
horizontal = 1;
place = "{28, 21}";
target = up;
type = BottomGhost;
}
);
layerId = UUID0;
paths = (
{
closed = 1;
nodes = (
"469 667 LINE",
"421 689 OFFCURVE",
"345 704 OFFCURVE",
"297 704 CURVE SMOOTH",
"193 704 OFFCURVE",
"111 642 OFFCURVE",
"111 550 CURVE SMOOTH",
"111 453 OFFCURVE",
"203 416 OFFCURVE",
"296 382 CURVE SMOOTH",
"393 347 OFFCURVE",
"491 308 OFFCURVE",
"491 187 CURVE SMOOTH",
"491 65 OFFCURVE",
"390 5 OFFCURVE",
"291 5 CURVE SMOOTH",
"209 5 OFFCURVE",
"128 47 OFFCURVE",
"88 76 CURVE",
"80 63 LINE",
"103 49 OFFCURVE",
"179 -8 OFFCURVE",
"294 -8 CURVE SMOOTH",
"413 -8 OFFCURVE",
"505 66 OFFCURVE",
"505 188 CURVE SMOOTH",
"505 317 OFFCURVE",
"402 357 OFFCURVE",
"305 393 CURVE SMOOTH",
"211 428 OFFCURVE",
"125 463 OFFCURVE",
"125 553 CURVE SMOOTH",
"125 631 OFFCURVE",
"193 692 OFFCURVE",
"298 692 CURVE SMOOTH",
"361 692 OFFCURVE",
"427 672 OFFCURVE",
"463 656 CURVE"
);
}
);
width = 585;
},
{
anchors = (
{
name = bottom;
position = "{289, -10}";
},
{
name = top;
position = "{289, 736}";
}
);
hints = (
{
horizontal = 1;
place = "{704, -20}";
target = down;
type = TopGhost;
},
{
horizontal = 1;
place = "{-8, 21}";
target = up;
type = BottomGhost;
}
);
layerId = UUID1;
paths = (
{
closed = 1;
nodes = (
"543 669 LINE",
"484 708 OFFCURVE",
"418 740 OFFCURVE",
"299 740 CURVE",
"162 733 OFFCURVE",
"70 652 OFFCURVE",
"70 524 CURVE",
"70 383 OFFCURVE",
"188 337 OFFCURVE",
"278 302 CURVE SMOOTH",
"336 279 OFFCURVE",
"385 247 OFFCURVE",
"385 203 CURVE",
"385 139 OFFCURVE",
"323 120 OFFCURVE",
"271 120 CURVE",
"219 120 OFFCURVE",
"147 146 OFFCURVE",
"96 184 CURVE",
"32 71 LINE",
"109 16 OFFCURVE",
"200 -8 OFFCURVE",
"284 -8 CURVE",
"448 -8 OFFCURVE",
"536 91 OFFCURVE",
"536 203 CURVE",
"536 343 OFFCURVE",
"447 391 OFFCURVE",
"361 423 CURVE SMOOTH",
"290 449 OFFCURVE",
"220 483 OFFCURVE",
"220 535 CURVE",
"220 586 OFFCURVE",
"258 611 OFFCURVE",
"321 611 CURVE",
"372 611 OFFCURVE",
"432 589 OFFCURVE",
"488 558 CURVE"
);
}
);
width = 578;
}
);
unicode = 0053;
},
{
glyphname = Germandbls;
lastChange = "2016-09-17 20:13:10 +0000";
layers = (
{
layerId = UUID0;
width = 620;
},
{
hints = (
{
horizontal = 1;
place = "{704, -20}";
target = down;
type = TopGhost;
},
{
horizontal = 1;
place = "{-8, 21}";
target = up;
type = BottomGhost;
},
{
horizontal = 1;
place = "{0, 21}";
target = up;
type = BottomGhost;
},
{
horizontal = 1;
place = "{751, -20}";
target = down;
type = TopGhost;
}
);
layerId = UUID1;
paths = (
{
closed = 1;
nodes = (
"458 685 OFFCURVE",
"388 620 OFFCURVE",
"388 506 CURVE",
"388 399 OFFCURVE",
"476 339 OFFCURVE",
"546 302 CURVE",
"597 274 OFFCURVE",
"643 247 OFFCURVE",
"643 203 CURVE",
"643 139 OFFCURVE",
"591 120 OFFCURVE",
"549 120 CURVE",
"497 120 OFFCURVE",
"425 146 OFFCURVE",
"374 184 CURVE",
"310 71 LINE",
"387 16 OFFCURVE",
"478 -8 OFFCURVE",
"562 -8 CURVE",
"713 -8 OFFCURVE",
"794 91 OFFCURVE",
"794 203 CURVE",
"794 333 OFFCURVE",
"704 379 OFFCURVE",
"629 423 CURVE",
"583 452 OFFCURVE",
"532 478 OFFCURVE",
"532 530 CURVE",
"532 568 OFFCURVE",
"553 595 OFFCURVE",
"589 595 CURVE",
"610 595 OFFCURVE",
"625 587 OFFCURVE",
"634 580 CURVE",
"672 687 LINE",
"626 736 OFFCURVE",
"499 786 OFFCURVE",
"393 786 CURVE",
"202 786 OFFCURVE",
"90 637 OFFCURVE",
"90 421 CURVE",
"90 0 LINE",
"236 0 LINE",
"236 417 LINE",
"236 594 OFFCURVE",
"302 671 OFFCURVE",
"408 671 CURVE",
"474 671 OFFCURVE",
"537 649 OFFCURVE",
"587 597 CURVE",
"566 693 LINE"
);
}
);
width = 829;
}
);
leftMetricsKey = H;
rightMetricsKey = S;
unicode = 1E9E;
},
{
glyphname = Schwa;
lastChange = "2016-09-15 14:14:06 +0000";
layers = (
{
layerId = UUID0;
width = 620;
},
{
hints = (
{
horizontal = 1;
place = "{352, 21}";
target = up;
type = BottomGhost;
},
{
horizontal = 1;
place = "{745, 21}";
target = up;
type = BottomGhost;
}
);
layerId = UUID1;
paths = (
{
closed = 1;
nodes = (
"296 743 OFFCURVE",
"170 692 OFFCURVE",
"114 635 CURVE",
"186 517 LINE",
"224 565 OFFCURVE",
"306 601 OFFCURVE",
"373 601 CURVE",
"473 601 OFFCURVE",
"581 516 OFFCURVE",
"581 377 CURVE",
"581 235 OFFCURVE",
"488 129 OFFCURVE",
"384 129 CURVE",
"288 129 OFFCURVE",
"233 200 OFFCURVE",
"210 294 CURVE",
"165 251 LINE",
"639 410 LINE",
"608 516 LINE",
"40 332 LINE",
"74 123 OFFCURVE",
"194 0 OFFCURVE",
"373 0 CURVE",
"569 0 OFFCURVE",
"735 164 OFFCURVE",
"735 385 CURVE",
"735 589 OFFCURVE",
"600 743 OFFCURVE",
"376 743 CURVE"
);
}
);
width = 785;
}
);
rightMetricsKey = O;
unicode = 018F;
},
{
glyphname = T;
lastChange = "2016-09-13 15:48:58 +0000";
layers = (
{
anchors = (
{
name = bottom;
position = "{282, 0}";
},
{
name = center;
position = "{282, 350}";
},
{
name = top;
position = "{282, 700}";
}
);
hints = (
{
horizontal = 1;
place = "{736, -20}";
target = down;
type = TopGhost;
},
{
horizontal = 1;
place = "{36, 21}";
target = up;
type = BottomGhost;
}
);
layerId = UUID0;
paths = (
{
closed = 1;
nodes = (
"75 687 LINE",
"275 687 LINE",
"275 0 LINE",
"289 0 LINE",
"289 687 LINE",
"489 687 LINE",
"489 700 LINE",
"75 700 LINE"
);
}
);
width = 564;
},
{
anchors = (
{
name = bottom;
position = "{293, 0}";
},
{
name = center;
position = "{293, 368}";
},
{
name = top;
position = "{293, 736}";
}
);
hints = (
{
horizontal = 1;
place = "{700, -20}";
target = down;
type = TopGhost;
},
{
horizontal = 1;
place = "{0, 21}";
target = up;
type = BottomGhost;
}
);
layerId = UUID1;
paths = (
{
closed = 1;
nodes = (
"45 596 LINE",
"217 596 LINE",
"217 0 LINE",
"362 0 LINE",
"362 596 LINE",
"541 596 LINE",
"541 736 LINE",
"45 736 LINE"
);
}
);
width = 586;
}
);
unicode = 0054;
},
{
glyphname = U;
lastChange = "2016-09-17 14:24:38 +0000";
layers = (
{
anchors = (
{
name = bottom;
position = "{345, 0}";
},
{
name = ogonek;
position = "{637, 10}";
},
{
name = top;
position = "{345, 700}";
},
{
name = topright;
position = "{690, 700}";
}
);
hints = (
{
horizontal = 1;
place = "{28, 21}";
target = up;
type = BottomGhost;
},
{
horizontal = 1;
place = "{736, -20}";
target = down;
type = TopGhost;
}
);
layerId = UUID0;
paths = (
{
closed = 1;
nodes = (
"134 700 LINE",
"120 700 LINE",
"120 226 LINE SMOOTH",
"120 73 OFFCURVE",
"216 -8 OFFCURVE",
"345 -8 CURVE SMOOTH",
"345 -8 LINE SMOOTH",
"472 -8 OFFCURVE",
"570 73 OFFCURVE",
"570 226 CURVE SMOOTH",
"570 700 LINE",
"556 700 LINE",
"556 228 LINE SMOOTH",
"556 85 OFFCURVE",
"466 5 OFFCURVE",
"345 5 CURVE SMOOTH",
"222 5 OFFCURVE",
"134 85 OFFCURVE",
"134 228 CURVE SMOOTH"
);
}
);
width = 690;
},
{
anchors = (
{
name = bottom;
position = "{388, 0}";
},
{
name = ogonek;
position = "{552, 10}";
},
{
name = top;
position = "{388, 756}";
},
{
name = topright;
position = "{686, 736}";
}
);
hints = (
{
horizontal = 1;
place = "{-8, 21}";
target = up;
type = BottomGhost;
},
{
horizontal = 1;
place = "{700, -20}";
target = down;
type = TopGhost;
}
);
layerId = UUID1;
paths = (
{
closed = 1;
nodes = (
"235 736 LINE",
"90 736 LINE",
"90 269 LINE SMOOTH",
"90 107 OFFCURVE",
"222 -8 OFFCURVE",
"387 -8 CURVE SMOOTH",
"387 -8 LINE SMOOTH",
"553 -8 OFFCURVE",
"686 107 OFFCURVE",
"686 269 CURVE SMOOTH",
"686 736 LINE",
"543 736 LINE",
"543 272 LINE SMOOTH",
"543 202 OFFCURVE",
"476 133 OFFCURVE",
"387 133 CURVE SMOOTH",
"305 133 OFFCURVE",
"235 202 OFFCURVE",
"235 272 CURVE SMOOTH"
);
}
);
width = 776;
}
);
leftMetricsKey = H;
rightMetricsKey = H;
unicode = 0055;
},
{
glyphname = Uogonek;
lastChange = "2016-09-17 20:13:31 +0000";
layers = (
{
components = (
{
name = U;
},
{
name = ogonek;
transform = "{1, 0, 0, 1, 140, 0}";
}
);
layerId = UUID0;
width = 650;
},
{
anchors = (
{
name = _ogonek;
position = "{552, 10}";
},
{
name = bottom;
position = "{388, 0}";
},
{
name = ogonek;
position = "{552, 10}";
},
{
name = top;
position = "{388, 736}";
},
{
name = topright;
position = "{736, 736}";
}
);
background = {
paths = (
{
closed = 1;
nodes = (
"235 736 LINE",
"90 736 LINE",
"90 269 LINE SMOOTH",
"90 107 OFFCURVE",
"222 -8 OFFCURVE",
"387 -8 CURVE SMOOTH",
"387 -8 LINE SMOOTH",
"553 -8 OFFCURVE",
"686 107 OFFCURVE",
"686 269 CURVE SMOOTH",
"686 736 LINE",
"543 736 LINE",
"543 272 LINE SMOOTH",
"543 202 OFFCURVE",
"476 133 OFFCURVE",
"387 133 CURVE SMOOTH",
"305 133 OFFCURVE",
"235 202 OFFCURVE",
"235 272 CURVE SMOOTH"
);
},
{
closed = 1;
nodes = (
"594 0 CURVE",
"436 0 LINE",
"381 -22 OFFCURVE",
"351 -69 OFFCURVE",
"351 -113 CURVE SMOOTH",
"351 -191 OFFCURVE",
"413 -226 OFFCURVE",
"495 -226 CURVE SMOOTH",
"552 -226 OFFCURVE",
"615 -193 OFFCURVE",
"635 -144 CURVE",
"565 -92 LINE",
"559 -110 OFFCURVE",
"537 -134 OFFCURVE",
"510 -134 CURVE SMOOTH",
"487 -134 OFFCURVE",
"466 -126 OFFCURVE",
"466 -92 CURVE SMOOTH",
"466 -53 OFFCURVE",
"518 -29 OFFCURVE"
);
}
);
};
hints = (
{
horizontal = 1;
place = "{-8, 21}";
target = up;
type = BottomGhost;
},
{
horizontal = 1;
place = "{700, -20}";
target = down;
type = TopGhost;
}
);
layerId = UUID1;
paths = (
{
closed = 1;
nodes = (
"436 10 LINE",
"381 -12 OFFCURVE",
"351 -59 OFFCURVE",
"351 -103 CURVE SMOOTH",
"351 -181 OFFCURVE",
"413 -226 OFFCURVE",
"495 -226 CURVE SMOOTH",
"552 -226 OFFCURVE",
"615 -193 OFFCURVE",
"635 -144 CURVE",
"565 -92 LINE",
"559 -110 OFFCURVE",
"537 -134 OFFCURVE",
"510 -134 CURVE SMOOTH",
"487 -134 OFFCURVE",
"466 -126 OFFCURVE",
"466 -92 CURVE SMOOTH",
"466 22 OFFCURVE",
"686 52 OFFCURVE",
"686 260 CURVE SMOOTH",
"686 736 LINE",
"543 736 LINE",
"543 272 LINE SMOOTH",
"543 202 OFFCURVE",
"476 133 OFFCURVE",
"387 133 CURVE SMOOTH",
"305 133 OFFCURVE",
"235 202 OFFCURVE",
"235 272 CURVE SMOOTH",
"235 736 LINE",
"90 736 LINE",
"90 269 LINE SMOOTH",
"90 107 OFFCURVE",
"222 -8 OFFCURVE",
"387 -8 CURVE SMOOTH",
"387 -8 LINE SMOOTH",
"425 -8 OFFCURVE",
"460 -2 OFFCURVE",
"493 9 CURVE",
"477 69 LINE"
);
}
);
width = 776;
}
);
leftMetricsKey = U;
rightMetricsKey = U;
unicode = 0172;
},
{
glyphname = Uring;
lastChange = "2016-09-17 20:01:15 +0000";
layers = (
{
components = (
{
name = U;
}
);
layerId = UUID0;
paths = (
{
closed = 1;
nodes = (
"268 813 LINE SMOOTH",
"268 777 OFFCURVE",
"295 750 OFFCURVE",
"331 750 CURVE SMOOTH",
"367 750 OFFCURVE",
"394 777 OFFCURVE",
"394 813 CURVE SMOOTH",
"394 849 OFFCURVE",
"367 876 OFFCURVE",
"331 876 CURVE SMOOTH",
"295 876 OFFCURVE",
"268 849 OFFCURVE",
"268 813 CURVE SMOOTH"
);
},
{
closed = 1;
nodes = (
"282 813 LINE SMOOTH",
"282 839 OFFCURVE",
"305 862 OFFCURVE",
"331 862 CURVE SMOOTH",
"357 862 OFFCURVE",
"380 839 OFFCURVE",
"380 813 CURVE SMOOTH",
"380 787 OFFCURVE",
"357 764 OFFCURVE",
"331 764 CURVE SMOOTH",
"305 764 OFFCURVE",
"282 787 OFFCURVE",
"282 813 CURVE SMOOTH"
);
}
);
width = 650;
},
{
components = (
{
name = U;
},
{
name = ringcomb.case;
transform = "{1, 0, 0, 1, 257, 314}";
}
);
layerId = UUID1;
width = 776;
}
);
unicode = 016E;
},
{
glyphname = V;
lastChange = "2016-09-13 15:44:56 +0000";
layers = (
{
anchors = (
{
name = bottom;
position = "{345, 0}";
},
{
name = top;
position = "{345, 700}";
}
);
hints = (
{
horizontal = 1;
place = "{736, -20}";
target = down;
type = TopGhost;
},
{
horizontal = 1;
place = "{4, 21}";
target = up;
type = BottomGhost;
}
);
layerId = UUID0;
paths = (
{
closed = 1;
nodes = (
"55 700 LINE",
"345 -32 LINE",
"635 700 LINE",
"620 700 LINE",
"342 -13 LINE",
"349 -13 LINE",
"70 700 LINE"
);
}
);
width = 690;
},
{
anchors = (
{
name = bottom;
position = "{368, 0}";
},
{
name = top;
position = "{368, 736}";
}
);
hints = (
{
horizontal = 1;
place = "{700, -20}";
target = down;
type = TopGhost;
},
{
horizontal = 1;
place = "{-32, 21}";
target = up;
type = BottomGhost;
}
);
layerId = UUID1;
paths = (
{
closed = 1;
nodes = (
"32 736 LINE",
"368 -34 LINE",
"704 736 LINE",
"562 736 LINE",
"367 233 LINE",
"401 216 LINE",
"186 736 LINE"
);
}
);
width = 736;
}
);
unicode = 0056;
},
{
glyphname = W;
lastChange = "2016-09-17 20:13:21 +0000";
layers = (
{
anchors = (
{
name = bottom;
position = "{491, 0}";
},
{
name = top;
position = "{491, 700}";
}
);
hints = (
{
horizontal = 1;
place = "{736, -20}";
target = down;
type = TopGhost;
},
{
horizontal = 1;
place = "{4, 21}";
target = up;
type = BottomGhost;
}
);
layerId = UUID0;
paths = (
{
closed = 1;
nodes = (
"330 -32 LINE",
"486 400 LINE",
"478 415 LINE",
"327 -6 LINE",
"333 -7 LINE",
"70 700 LINE",
"55 700 LINE"
);
},
{
closed = 1;
nodes = (
"642 -32 LINE",
"927 700 LINE",
"912 700 LINE",
"638 -9 LINE",
"648 -13 LINE",
"382 700 LINE",
"367 700 LINE"
);
}
);
width = 982;
},
{
anchors = (
{
name = bottom;
position = "{512, 0}";
},
{
name = top;
position = "{512, 746}";
}
);
hints = (
{
horizontal = 1;
place = "{700, -20}";
target = down;
type = TopGhost;
},
{
horizontal = 1;
place = "{-32, 21}";
target = up;
type = BottomGhost;
}
);
layerId = UUID1;
paths = (
{
closed = 1;
nodes = (
"328 -34 LINE",
"540 421 LINE",
"473 620 LINE",
"336 279 LINE",
"359 269 LINE",
"202 731 LINE",
"32 731 LINE"
);
},
{
closed = 1;
nodes = (
"707 -32 LINE",
"991 731 LINE",
"835 731 LINE",
"700 288 LINE",
"726 284 LINE",
"545 731 LINE",
"401 731 LINE"
);
}
);
width = 1023;
}
);
leftMetricsKey = V;
rightMetricsKey = V;
unicode = 0057;
},
{
glyphname = X;
lastChange = "2016-09-13 19:25:02 +0000";
layers = (
{
anchors = (
{
name = bottom;
position = "{329, 0}";
},
{
name = top;
position = "{329, 700}";
}
);
hints = (
{
horizontal = 1;
place = "{36, 21}";
target = up;
type = BottomGhost;
},
{
horizontal = 1;
place = "{736, -20}";
target = down;
type = TopGhost;
}
);
layerId = UUID0;
paths = (
{
closed = 1;
nodes = (
"555 0 LINE",
"572 0 LINE",
"495 119 OFFCURVE",
"415 240 OFFCURVE",
"338 359 CURVE",
"411 474 OFFCURVE",
"483 585 OFFCURVE",
"556 700 CURVE",
"543 700 LINE",
"475 594 OFFCURVE",
"408 487 OFFCURVE",
"340 381 CURVE",
"337 377 OFFCURVE",
"335 372 OFFCURVE",
"332 368 CURVE",
"329 372 OFFCURVE",
"327 377 OFFCURVE",
"324 381 CURVE",
"255 487 OFFCURVE",
"185 594 OFFCURVE",
"116 700 CURVE",
"100 700 LINE",
"173 587 OFFCURVE",
"247 473 OFFCURVE",
"320 360 CURVE",
"320 360 LINE",
"243 240 OFFCURVE",
"167 120 OFFCURVE",
"90 0 CURVE",
"103 0 LINE",
"174 112 OFFCURVE",
"247 226 OFFCURVE",
"318 338 CURVE",
"321 342 OFFCURVE",
"323 347 OFFCURVE",
"326 351 CURVE",
"342 330 OFFCURVE",
"357 301 OFFCURVE",
"372 279 CURVE"
);
}
);
width = 657;
},
{
anchors = (
{
name = bottom;
position = "{363, 0}";
},
{
name = top;
position = "{363, 736}";
}
);
hints = (
{
horizontal = 1;
place = "{0, 21}";
target = up;
type = BottomGhost;
},
{
horizontal = 1;
place = "{700, -20}";
target = down;
type = TopGhost;
}
);
layerId = UUID1;
paths = (
{
closed = 1;
nodes = (
"513 0 LINE",
"700 0 LINE",
"700 0 OFFCURVE",
"463 368 OFFCURVE",
"463 368 CURVE",
"463 368 OFFCURVE",
"693 736 OFFCURVE",
"693 736 CURVE",
"517 736 LINE",
"517 736 OFFCURVE",
"395 522 OFFCURVE",
"395 522 CURVE",
"395 522 OFFCURVE",
"378 486 OFFCURVE",
"373 471 CURVE",
"368 486 OFFCURVE",
"347 522 OFFCURVE",
"347 522 CURVE",
"347 522 OFFCURVE",
"220 736 OFFCURVE",
"220 736 CURVE",
"35 736 LINE",
"35 736 OFFCURVE",
"266 376 OFFCURVE",
"266 376 CURVE",
"266 376 LINE",
"266 376 OFFCURVE",
"25 0 OFFCURVE",
"25 0 CURVE",
"205 0 LINE",
"205 0 OFFCURVE",
"333 221 OFFCURVE",
"333 221 CURVE",
"333 221 OFFCURVE",
"350 249 OFFCURVE",
"355 264 CURVE",
"356 259 OFFCURVE",
"380 221 OFFCURVE",
"380 221 CURVE"
);
}
);
width = 725;
}
);
unicode = 0058;
},
{
glyphname = Y;
lastChange = "2016-09-17 14:25:03 +0000";
layers = (
{
anchors = (
{
name = bottom;
position = "{320, 0}";
},
{
name = top;
position = "{320, 700}";
},
{
name = topleft;
position = "{30, 700}";
}
);
hints = (
{
horizontal = 1;
place = "{736, -20}";
target = down;
type = TopGhost;
},
{
horizontal = 1;
place = "{36, 21}";
target = up;
type = BottomGhost;
}
);
layerId = UUID0;
paths = (
{
closed = 1;
nodes = (
"313 0 LINE",
"327 0 LINE",
"327 262 LINE",
"589 700 LINE",
"573 700 LINE",
"493 566 OFFCURVE",
"413 432 OFFCURVE",
"333 298 CURVE",
"329 289 OFFCURVE",
"325 281 OFFCURVE",
"321 272 CURVE",
"308 298 LINE",
"230 433 OFFCURVE",
"147 566 OFFCURVE",
"67 700 CURVE",
"50 700 LINE",
"138 554 OFFCURVE",
"225 408 OFFCURVE",
"313 262 CURVE"
);
}
);
width = 639;
},
{
anchors = (
{
name = bottom;
position = "{371, 0}";
},
{
name = top;
position = "{391, 736}";
},
{
name = topleft;
position = "{20, 736}";
}
);
hints = (
{
horizontal = 1;
place = "{700, -20}";
target = down;
type = TopGhost;
},
{
horizontal = 1;
place = "{0, 21}";
target = up;
type = BottomGhost;
}
);
layerId = UUID1;
paths = (
{
closed = 1;
nodes = (
"296 0 LINE",
"441 0 LINE",
"441 229 LINE",
"717 736 LINE",
"558 736 LINE",
"371 351 LINE",
"394 354 LINE",
"204 736 LINE",
"25 736 LINE",
"25 736 OFFCURVE",
"296 229 OFFCURVE",
"296 229 CURVE"
);
}
);
width = 742;
}
);
unicode = 0059;
},
{
glyphname = Z;
lastChange = "2016-09-13 15:44:56 +0000";
layers = (
{
anchors = (
{
name = bottom;
position = "{348, 0}";
},
{
name = top;
position = "{348, 700}";
}
);
hints = (
{
horizontal = 1;
place = "{771, -20}";
target = down;
type = TopGhost;
},
{
horizontal = 1;
place = "{36, 21}";
target = up;
type = BottomGhost;
}
);
layerId = UUID0;
paths = (
{
closed = 1;
nodes = (
"636 0 LINE",
"636 13 LINE",
"79 13 LINE",
"81 9 LINE",
"603 700 LINE",
"128 700 LINE",
"128 700 LINE",
"106 700 OFFCURVE",
"98 711 OFFCURVE",
"98 723 CURVE SMOOTH",
"98 735 LINE",
"82 735 LINE",
"82 731 LINE SMOOTH",
"82 693 OFFCURVE",
"101 687 OFFCURVE",
"137 687 CURVE SMOOTH",
"586 687 LINE",
"580 691 LINE",
"415 473 OFFCURVE",
"225 231 OFFCURVE",
"60 0 CURVE"
);
}
);
width = 696;
},
{
anchors = (
{
name = bottom;
position = "{361, 0}";
},
{
name = top;
position = "{361, 736}";
}
);
hints = (
{
horizontal = 1;
place = "{735, -20}";
target = down;
type = TopGhost;
},
{
horizontal = 1;
place = "{0, 21}";
target = up;
type = BottomGhost;
}
);
layerId = UUID1;
paths = (
{
closed = 1;
nodes = (
"671 0 LINE",
"671 140 LINE",
"276 140 LINE",
"284 124 LINE",
"672 736 LINE",
"263 736 LINE",
"263 736 LINE",
"239 736 OFFCURVE",
"231 730 OFFCURVE",
"231 759 CURVE SMOOTH",
"231 773 LINE",
"98 773 LINE",
"98 668 LINE SMOOTH",
"98 627 OFFCURVE",
"152 596 OFFCURVE",
"195 596 CURVE SMOOTH",
"460 596 LINE",
"444 636 LINE",
"444 636 OFFCURVE",
"45 0 OFFCURVE",
"45 0 CURVE"
);
}
);
width = 722;
}
);
unicode = 005A;
},
{
glyphname = a;
lastChange = "2016-09-17 20:14:04 +0000";
layers = (
{
anchors = (
{
name = bottom;
position = "{270, 0}";
},
{
name = ogonek;
position = "{481, 10}";
},
{
name = top;
position = "{270, 375}";
}
);
hints = (
{
horizontal = 1;
place = "{19, 21}";
target = up;
type = BottomGhost;
},
{
horizontal = 1;
place = "{408, -20}";
target = down;
type = TopGhost;
}
);
layerId = UUID0;
paths = (
{
closed = 1;
nodes = (
"332 -6 OFFCURVE",
"403 45 OFFCURVE",
"431 117 CURVE",
"430 131 LINE",
"430 0 LINE",
"444 0 LINE",
"444 375 LINE",
"434 375 LINE",
"430 260 LINE",
"401 332 OFFCURVE",
"331 383 OFFCURVE",
"249 383 CURVE SMOOTH",
"143 383 OFFCURVE",
"55 312 OFFCURVE",
"55 188 CURVE SMOOTH",
"55 80 OFFCURVE",
"141 -6 OFFCURVE",
"249 -6 CURVE SMOOTH"
);
},
{
closed = 1;
nodes = (
"149 7 OFFCURVE",
"69 88 OFFCURVE",
"69 188 CURVE SMOOTH",
"69 299 OFFCURVE",
"149 370 OFFCURVE",
"249 370 CURVE SMOOTH",
"338 370 OFFCURVE",
"414 303 OFFCURVE",
"430 219 CURVE",
"430 181 LINE",
"430 81 OFFCURVE",
"349 7 OFFCURVE",
"249 7 CURVE SMOOTH"
);
}
);
width = 539;
},
{
anchors = (
{
name = bottom;
position = "{311, 0}";
},
{
name = ogonek;
position = "{633, 10}";
},
{
name = top;
position = "{331, 457}";
}
);
hints = (
{
horizontal = 1;
place = "{-9, 21}";
target = up;
type = BottomGhost;
},
{
horizontal = 1;
place = "{382, -20}";
target = down;
type = TopGhost;
}
);
layerId = UUID1;
paths = (
{
closed = 1;
nodes = (
"363 -12 OFFCURVE",
"412 65 OFFCURVE",
"417 65 CURVE",
"406 95 LINE",
"406 0 LINE",
"546 0 LINE",
"546 437 LINE",
"416 437 LINE",
"407 390 LINE",
"378 425 OFFCURVE",
"342 459 OFFCURVE",
"255 459 CURVE",
"144 459 OFFCURVE",
"42 366 OFFCURVE",
"42 218 CURVE",
"42 59 OFFCURVE",
"138 -12 OFFCURVE",
"260 -12 CURVE"
);
},
{
closed = 1;
nodes = (
"238 102 OFFCURVE",
"184 155 OFFCURVE",
"184 225 CURVE",
"184 295 OFFCURVE",
"235 345 OFFCURVE",
"295 345 CURVE",
"348 345 OFFCURVE",
"390 318 OFFCURVE",
"406 275 CURVE",
"406 168 LINE",
"384 124 OFFCURVE",
"350 102 OFFCURVE",
"300 102 CURVE"
);
}
);
width = 621;
}
);
leftMetricsKey = o;
rightMetricsKey = n;
unicode = 0061;
},
{
glyphname = aogonek;
lastChange = "2016-09-17 23:20:45 +0000";
layers = (
{
anchors = (
{
name = _ogonek;
position = "{481, 10}";
},
{
name = bottom;
position = "{270, 0}";
},
{
name = ogonek;
position = "{481, 10}";
},
{
name = top;
position = "{270, 375}";
}
);
hints = (
{
horizontal = 1;
place = "{19, 21}";
target = up;
type = BottomGhost;
},
{
horizontal = 1;
place = "{408, -20}";
target = down;
type = TopGhost;
}
);
layerId = UUID0;
paths = (
{
closed = 1;
nodes = (
"433 8 LINE",
"390 -14 OFFCURVE",
"339 -60.986 OFFCURVE",
"339 -111 CURVE SMOOTH",
"339 -156 OFFCURVE",
"372 -186 OFFCURVE",
"408 -186 CURVE SMOOTH",
"441 -186 OFFCURVE",
"468 -161 OFFCURVE",
"481 -133 CURVE",
"470 -127 LINE",
"456 -152 OFFCURVE",
"435 -172 OFFCURVE",
"409 -172 CURVE SMOOTH",
"381 -172 OFFCURVE",
"354 -148 OFFCURVE",
"354 -111 CURVE SMOOTH",
"354 -72 OFFCURVE",
"387 -33 OFFCURVE",
"444 1 CURVE",
"444 375 LINE",
"434 375 LINE",
"430 260 LINE",
"401 332 OFFCURVE",
"331 383 OFFCURVE",
"249 383 CURVE SMOOTH",
"143 383 OFFCURVE",
"55 312 OFFCURVE",
"55 188 CURVE SMOOTH",
"55 80 OFFCURVE",
"141 -6 OFFCURVE",
"249 -6 CURVE SMOOTH",
"331.029 -6 OFFCURVE",
"407 47 OFFCURVE",
"432 117 CURVE",
"430 131 LINE",
"430 0 LINE",
"437 4 LINE"
);
},
{
closed = 1;
nodes = (
"149 7 OFFCURVE",
"69 88 OFFCURVE",
"69 188 CURVE SMOOTH",
"69 299 OFFCURVE",
"149 370 OFFCURVE",
"249 370 CURVE SMOOTH",
"338 370 OFFCURVE",
"414 303 OFFCURVE",
"430 219 CURVE",
"430 181 LINE",
"430 82 OFFCURVE",
"349 7 OFFCURVE",
"249 7 CURVE SMOOTH"
);
}
);
width = 539;
},
{
anchors = (
{
name = _ogonek;
position = "{633, 10}";
},
{
name = bottom;
position = "{311, 0}";
},
{
name = ogonek;
position = "{633, 10}";
},
{
name = top;
position = "{331, 437}";
}
);
hints = (
{
horizontal = 1;
place = "{-9, 21}";
target = up;
type = BottomGhost;
},
{
horizontal = 1;
place = "{382, -20}";
target = down;
type = TopGhost;
}
);
layerId = UUID1;
paths = (
{
closed = 1;
nodes = (
"410 10 LINE",
"355 -12 OFFCURVE",
"325 -59 OFFCURVE",
"325 -103 CURVE SMOOTH",
"325 -181 OFFCURVE",
"387 -226 OFFCURVE",
"469 -226 CURVE SMOOTH",
"526 -226 OFFCURVE",
"589 -193 OFFCURVE",
"609 -144 CURVE",
"539 -92 LINE",
"533 -110 OFFCURVE",
"511 -134 OFFCURVE",
"484 -134 CURVE SMOOTH",
"461 -134 OFFCURVE",
"440 -126 OFFCURVE",
"440 -92 CURVE SMOOTH",
"440 -49 OFFCURVE",
"484 -25 OFFCURVE",
"546 0 CURVE",
"546 437 LINE",
"416 437 LINE",
"407 390 LINE",
"378 425 OFFCURVE",
"342 459 OFFCURVE",
"255 459 CURVE",
"144 459 OFFCURVE",
"42 366 OFFCURVE",
"42 218 CURVE",
"42 59 OFFCURVE",
"136 -12 OFFCURVE",
"255 -12 CURVE",
"362 -12 OFFCURVE",
"412 65 OFFCURVE",
"417 65 CURVE",
"406 95 LINE",
"406 -26 LINE",
"422 -7 LINE"
);
},
{
closed = 1;
nodes = (
"235 102 OFFCURVE",
"184 155 OFFCURVE",
"184 225 CURVE",
"184 295 OFFCURVE",
"235 345 OFFCURVE",
"295 345 CURVE",
"348 345 OFFCURVE",
"390 318 OFFCURVE",
"406 275 CURVE",
"406 168 LINE",
"383 124 OFFCURVE",
"348 102 OFFCURVE",
"295 102 CURVE"
);
}
);
width = 621;
}
);
unicode = 0105;
},
{
glyphname = aring;
lastChange = "2016-09-17 20:15:36 +0000";
layers = (
{
components = (
{
name = a;
}
);
hints = (
{
place = "{212, 151}";
},
{
horizontal = 1;
place = "{502, 151}";
}
);
layerId = UUID0;
paths = (
{
closed = 1;
nodes = (
"173 469 LINE SMOOTH",
"173 433 OFFCURVE",
"200 406 OFFCURVE",
"236 406 CURVE SMOOTH",
"272 406 OFFCURVE",
"299 433 OFFCURVE",
"299 469 CURVE SMOOTH",
"299 505 OFFCURVE",
"272 532 OFFCURVE",
"236 532 CURVE SMOOTH",
"200 532 OFFCURVE",
"173 505 OFFCURVE",
"173 469 CURVE SMOOTH"
);
},
{
closed = 1;
nodes = (
"187 469 LINE SMOOTH",
"187 495 OFFCURVE",
"210 518 OFFCURVE",
"236 518 CURVE SMOOTH",
"262 518 OFFCURVE",
"285 495 OFFCURVE",
"285 469 CURVE SMOOTH",
"285 443 OFFCURVE",
"262 420 OFFCURVE",
"236 420 CURVE SMOOTH",
"210 420 OFFCURVE",
"187 443 OFFCURVE",
"187 469 CURVE SMOOTH"
);
}
);
width = 561;
},
{
components = (
{
name = a;
},
{
name = ringcomb;
transform = "{1, 0, 0, 1, 155, 20}";
}
);
hints = (
{
place = "{218, 65}";
},
{
horizontal = 1;
place = "{507, 65}";
}
);
layerId = UUID1;
width = 621;
}
);
unicode = 00E5;
},
{
glyphname = ae;
lastChange = "2016-09-17 23:30:35 +0000";
layers = (
{
hints = (
{
horizontal = 1;
place = "{19, 224}";
},
{
horizontal = 1;
place = "{204, 229}";
},
{
horizontal = 1;
place = "{17, 21}";
target = up;
type = BottomGhost;
}
);
layerId = UUID0;
paths = (
{
closed = 1;
nodes = (
"528 56 LINE",
"496 26 OFFCURVE",
"453 8 OFFCURVE",
"405 8 CURVE SMOOTH",
"328 8 OFFCURVE",
"263 55 OFFCURVE",
"237 122 CURVE",
"338 164 OFFCURVE",
"474 218 OFFCURVE",
"574 259 CURVE",
"545 330 OFFCURVE",
"487 384 OFFCURVE",
"405 384 CURVE SMOOTH",
"297 384 OFFCURVE",
"211 296 OFFCURVE",
"211 188 CURVE SMOOTH",
"211 80 OFFCURVE",
"297 -6 OFFCURVE",
"405 -6 CURVE SMOOTH",
"457 -6 OFFCURVE",
"504 14 OFFCURVE",
"539 46 CURVE"
);
},
{
closed = 1;
nodes = (
"220 178 LINE",
"221 195 LINE",
"143 195 LINE SMOOTH",
"87 195 OFFCURVE",
"24 165 OFFCURVE",
"24 104 CURVE SMOOTH",
"24 45 OFFCURVE",
"77 -8 OFFCURVE",
"164 -8 CURVE SMOOTH",
"234 -8 OFFCURVE",
"295 15 OFFCURVE",
"311 75 CURVE",
"300 93 LINE",
"294 48 OFFCURVE",
"249 8 OFFCURVE",
"171 8 CURVE SMOOTH",
"109 8 OFFCURVE",
"41 33 OFFCURVE",
"41 105 CURVE SMOOTH",
"41 137 OFFCURVE",
"66 178 OFFCURVE",
"160 178 CURVE SMOOTH"
);
},
{
closed = 1;
nodes = (
"44 332 LINE",
"72 352 OFFCURVE",
"101 367 OFFCURVE",
"166 367 CURVE SMOOTH",
"229 367 OFFCURVE",
"265 352 OFFCURVE",
"283 324 CURVE",
"295 334 LINE",
"275 365 OFFCURVE",
"237 383 OFFCURVE",
"171 383 CURVE SMOOTH",
"108 383 OFFCURVE",
"63 367 OFFCURVE",
"36 346 CURVE"
);
},
{
closed = 1;
nodes = (
"555 266 LINE",
"456 225 OFFCURVE",
"330 176 OFFCURVE",
"232 135 CURVE",
"227 152 OFFCURVE",
"225 169 OFFCURVE",
"225 188 CURVE SMOOTH",
"225 288 OFFCURVE",
"305 369 OFFCURVE",
"405 369 CURVE SMOOTH",
"476 369 OFFCURVE",
"527 326 OFFCURVE",
"555 266 CURVE"
);
}
);
width = 615;
},
{
anchors = (
{
name = bottom;
position = "{422, 0}";
},
{
name = top;
position = "{422, 437}";
}
);
hints = (
{
horizontal = 1;
place = "{-8, 230}";
},
{
horizontal = 1;
place = "{136, 249}";
},
{
horizontal = 1;
place = "{-8, 21}";
target = up;
type = BottomGhost;
},
{
horizontal = 1;
place = "{384, -20}";
target = down;
type = TopGhost;
},
{
horizontal = 1;
place = "{-9, 21}";
target = up;
type = BottomGhost;
}
);
layerId = UUID1;
paths = (
{
closed = 1;
nodes = (
"331 242 LINE",
"466 301 LINE",
"444 413 OFFCURVE",
"372 458 OFFCURVE",
"265 458 CURVE SMOOTH",
"172 458 OFFCURVE",
"107 415 OFFCURVE",
"63 368 CURVE",
"133 280 LINE",
"133 280 LINE",
"152 308 OFFCURVE",
"192 344 OFFCURVE",
"245 344 CURVE SMOOTH",
"266 344 OFFCURVE",
"331 328 OFFCURVE",
"331 263 CURVE"
);
},
{
closed = 1;
nodes = (
"384 230 LINE",
"354 247 OFFCURVE",
"291 264 OFFCURVE",
"233 264 CURVE SMOOTH",
"134 264 OFFCURVE",
"42 212 OFFCURVE",
"42 128 CURVE",
"42 46 OFFCURVE",
"96 -11 OFFCURVE",
"214 -11 CURVE",
"298 -11 OFFCURVE",
"353 19 OFFCURVE",
"393 73 CURVE",
"351 135 LINE",
"333 111 OFFCURVE",
"291 85 OFFCURVE",
"254 85 CURVE",
"219 85 OFFCURVE",
"196 101 OFFCURVE",
"196 131 CURVE",
"196 161 OFFCURVE",
"223 174 OFFCURVE",
"282 174 CURVE SMOOTH",
"318 174 OFFCURVE",
"325 164 OFFCURVE",
"362 150 CURVE"
);
},
{
closed = 1;
nodes = (
"428 167 LINE",
"814 246 LINE",
"790 383 OFFCURVE",
"706 458 OFFCURVE",
"581 458 CURVE",
"441 458 OFFCURVE",
"329 354 OFFCURVE",
"329 223 CURVE",
"329 80 OFFCURVE",
"417 -12 OFFCURVE",
"578 -12 CURVE",
"626 -12 OFFCURVE",
"683 5 OFFCURVE",
"730 32 CURVE",
"668 136 LINE",
"640 118 OFFCURVE",
"612 107 OFFCURVE",
"581 107 CURVE",
"517 107 OFFCURVE",
"467 149 OFFCURVE",
"467 231 CURVE",
"469 303 OFFCURVE",
"507 349 OFFCURVE",
"570 349 CURVE",
"625 349 OFFCURVE",
"649 318 OFFCURVE",
"660 284 CURVE",
"689 297 LINE",
"414 240 LINE"
);
}
);
width = 844;
}
);
leftMetricsKey = a;
rightMetricsKey = e;
unicode = 00E6;
},
{
glyphname = b;
lastChange = "2016-09-13 16:25:05 +0000";
layers = (
{
anchors = (
{
name = bottom;
position = "{270, 0}";
},
{
name = top;
position = "{270, 375}";
}
);
annotations = (
{
position = "{46.849, 157.628}";
type = Text;
}
);
hints = (
{
horizontal = 1;
place = "{775, -20}";
target = down;
type = TopGhost;
},
{
horizontal = 1;
place = "{19, 21}";
target = up;
type = BottomGhost;
}
);
layerId = UUID0;
paths = (
{
closed = 1;
nodes = (
"396 -6 OFFCURVE",
"484 61 OFFCURVE",
"484 188 CURVE",
"484 296 OFFCURVE",
"398 383 OFFCURVE",
"290 383 CURVE SMOOTH",
"208 383 OFFCURVE",
"138 332 OFFCURVE",
"109 260 CURVE",
"109 245 LINE",
"109 750 LINE",
"95 750 LINE",
"95 0 LINE",
"109 0 LINE",
"109 143 LINE",
"107 122 LINE",
"135 50 OFFCURVE",
"207 -6 OFFCURVE",
"290 -6 CURVE SMOOTH"
);
},
{
closed = 1;
nodes = (
"190 7 OFFCURVE",
"109 89 OFFCURVE",
"109 174 CURVE",
"109 218 LINE",
"123 304 OFFCURVE",
"197 370 OFFCURVE",
"290 370 CURVE SMOOTH",
"400 370 OFFCURVE",
"470 285 OFFCURVE",
"470 188 CURVE",
"470 82 OFFCURVE",
"404 7 OFFCURVE",
"290 7 CURVE SMOOTH"
);
}
);
width = 539;
},
{
anchors = (
{
name = bottom;
position = "{316, 0}";
},
{
name = top;
position = "{316, 437}";
}
);
hints = (
{
horizontal = 1;
place = "{750, -20}";
target = down;
type = TopGhost;
},
{
horizontal = 1;
place = "{-9, 21}";
target = up;
type = BottomGhost;
}
);
layerId = UUID1;
paths = (
{
closed = 1;
nodes = (
"482 -12 OFFCURVE",
"589 79 OFFCURVE",
"589 228 CURVE",
"589 376 OFFCURVE",
"494 459 OFFCURVE",
"381 459 CURVE",
"307 459 OFFCURVE",
"249 436 OFFCURVE",
"214 407 CURVE",
"214 362 LINE",
"214 789 LINE",
"75 789 LINE",
"75 0 LINE",
"215 0 LINE",
"215 85 LINE",
"204 55 LINE",
"241 15 OFFCURVE",
"288 -12 OFFCURVE",
"362 -12 CURVE"
);
},
{
closed = 1;
nodes = (
"276 106 OFFCURVE",
"239 128 OFFCURVE",
"215 172 CURVE",
"215 279 LINE",
"232 322 OFFCURVE",
"276 349 OFFCURVE",
"331 349 CURVE",
"393 349 OFFCURVE",
"447 299 OFFCURVE",
"447 229 CURVE",
"447 159 OFFCURVE",
"393 106 OFFCURVE",
"331 106 CURVE"
);
}
);
width = 631;
}
);
leftMetricsKey = n;
rightMetricsKey = o;
unicode = 0062;
},
{
glyphname = c;
lastChange = "2016-09-17 23:26:43 +0000";
layers = (
{
anchors = (
{
name = bottom;
position = "{209, 0}";
},
{
name = top;
position = "{249, 375}";
}
);
hints = (
{
horizontal = 1;
place = "{408, -20}";
target = down;
type = TopGhost;
},
{
horizontal = 1;
place = "{19, 21}";
target = up;
type = BottomGhost;
}
);
layerId = UUID0;
paths = (
{
closed = 1;
nodes = (
"362 46 LINE",
"331 22 OFFCURVE",
"292 7 OFFCURVE",
"249 7 CURVE SMOOTH",
"149 7 OFFCURVE",
"69 88 OFFCURVE",
"69 188 CURVE SMOOTH",
"69 288 OFFCURVE",
"149 370 OFFCURVE",
"249 370 CURVE SMOOTH",
"292 370 OFFCURVE",
"332 354 OFFCURVE",
"363 329 CURVE",
"372 340 LINE",
"339 367 OFFCURVE",
"296 383 OFFCURVE",
"249 383 CURVE SMOOTH",
"141 383 OFFCURVE",
"55 296 OFFCURVE",
"55 188 CURVE SMOOTH",
"55 80 OFFCURVE",
"141 -6 OFFCURVE",
"249 -6 CURVE SMOOTH",
"296 -6 OFFCURVE",
"338 10 OFFCURVE",
"372 37 CURVE",
"362 47 LINE"
);
}
);
width = 417;
},
{
anchors = (
{
name = bottom;
position = "{242, 0}";
},
{
name = top;
position = "{260, 447}";
}
);
hints = (
{
horizontal = 1;
place = "{384, -20}";
target = down;
type = TopGhost;
},
{
horizontal = 1;
place = "{-9, 21}";
target = up;
type = BottomGhost;
}
);
layerId = UUID1;
paths = (
{
closed = 1;
nodes = (
"377 127 LINE",
"358 111 OFFCURVE",
"332 102 OFFCURVE",
"301 102 CURVE SMOOTH",
"229 102 OFFCURVE",
"182 154 OFFCURVE",
"182 219 CURVE SMOOTH",
"182 287 OFFCURVE",
"229 335 OFFCURVE",
"287 335 CURVE SMOOTH",
"331 335 OFFCURVE",
"364 316 OFFCURVE",
"383 301 CURVE",
"451 391 LINE",
"410 426 OFFCURVE",
"353 449 OFFCURVE",
"274 449 CURVE SMOOTH",
"155 449 OFFCURVE",
"42 365 OFFCURVE",
"42 219 CURVE SMOOTH",
"42 73 OFFCURVE",
"139 -12 OFFCURVE",
"289 -12 CURVE SMOOTH",
"345 -12 OFFCURVE",
"408 8 OFFCURVE",
"447 39 CURVE",
"377 127 LINE"
);
}
);
width = 483;
}
);
leftMetricsKey = o;
unicode = 0063;
},
{
glyphname = ccedilla;
lastChange = "2016-09-15 15:55:54 +0000";
layers = (
{
hints = (
{
horizontal = 1;
place = "{-198, 256}";
},
{
horizontal = 1;
place = "{408, -20}";
target = down;
type = TopGhost;
},
{
horizontal = 1;
place = "{408, -20}";
target = down;
type = TopGhost;
},
{
horizontal = 1;
place = "{19, 21}";
target = up;
type = BottomGhost;
}
);
layerId = UUID0;
paths = (
{
closed = 1;
nodes = (
"348 47 LINE",
"317 23 OFFCURVE",
"278 8 OFFCURVE",
"235 8 CURVE SMOOTH",
"135 8 OFFCURVE",
"55 88 OFFCURVE",
"55 188 CURVE SMOOTH",
"55 288 OFFCURVE",
"135 369 OFFCURVE",
"235 369 CURVE SMOOTH",
"278 369 OFFCURVE",
"317 354 OFFCURVE",
"348 329 CURVE",
"351 333 OFFCURVE",
"355 336 OFFCURVE",
"358 340 CURVE",
"325 367 OFFCURVE",
"282 383 OFFCURVE",
"235 383 CURVE SMOOTH",
"127 383 OFFCURVE",
"41 296 OFFCURVE",
"41 188 CURVE SMOOTH",
"41 80 OFFCURVE",
"127 -6 OFFCURVE",
"235 -6 CURVE SMOOTH",
"282 -6 OFFCURVE",
"324 10 OFFCURVE",
"358 37 CURVE",
"355 40 OFFCURVE",
"351 44 OFFCURVE",
"348 47 CURVE"
);
},
{
closed = 1;
nodes = (
"232 0 LINE",
"218 0 LINE",
"218 -16 LINE SMOOTH",
"218 -69 OFFCURVE",
"301 -63 OFFCURVE",
"301 -137 CURVE SMOOTH",
"301 -178 OFFCURVE",
"272 -209 OFFCURVE",
"231 -209 CURVE SMOOTH",
"198 -209 OFFCURVE",
"173 -189 OFFCURVE",
"165 -161 CURVE",
"160 -162 OFFCURVE",
"155 -164 OFFCURVE",
"150 -165 CURVE",
"163 -204 OFFCURVE",
"196 -223 OFFCURVE",
"231 -223 CURVE SMOOTH",
"275 -223 OFFCURVE",
"315 -195 OFFCURVE",
"315 -127 CURVE SMOOTH",
"315 -109 OFFCURVE",
"303 -81 OFFCURVE",
"273 -61 CURVE SMOOTH",
"256 -50 OFFCURVE",
"232 -41 OFFCURVE",
"232 -6 CURVE SMOOTH"
);
}
);
width = 389;
},
{
components = (
{
name = c;
},
{
name = cedillacomb;
transform = "{1, 0, 0, 1, 121, 0}";
}
);
hints = (
{
horizontal = 1;
place = "{-244, 316}";
},
{
horizontal = 1;
place = "{384, -20}";
target = down;
type = TopGhost;
},
{
horizontal = 1;
place = "{384, -20}";
target = down;
type = TopGhost;
},
{
horizontal = 1;
place = "{-9, 21}";
target = up;
type = BottomGhost;
}
);
layerId = UUID1;
width = 483;
}
);
unicode = 00E7;
},
{
glyphname = d;
lastChange = "2016-09-17 21:18:38 +0000";
layers = (
{
anchors = (
{
name = bottom;
position = "{270, 0}";
},
{
name = center;
position = "{270, 188}";
},
{
name = top;
position = "{270, 375}";
},
{
name = topright;
position = "{514, 375}";
}
);
hints = (
{
horizontal = 1;
place = "{19, 21}";
target = up;
type = BottomGhost;
},
{
horizontal = 1;
place = "{775, -20}";
target = down;
type = TopGhost;
}
);
layerId = UUID0;
paths = (
{
closed = 1;
nodes = (
"332 -6 OFFCURVE",
"403 45 OFFCURVE",
"431 117 CURVE",
"430 132 LINE",
"430 0 LINE",
"444 0 LINE",
"444 750 LINE",
"430 750 LINE",
"430 245 LINE",
"433 255 LINE",
"404 327 OFFCURVE",
"331 383 OFFCURVE",
"249 383 CURVE SMOOTH",
"143 383 OFFCURVE",
"55 305 OFFCURVE",
"55 188 CURVE SMOOTH",
"55 80 OFFCURVE",
"141 -6 OFFCURVE",
"249 -6 CURVE SMOOTH"
);
},
{
closed = 1;
nodes = (
"149 7 OFFCURVE",
"69 88 OFFCURVE",
"69 188 CURVE SMOOTH",
"69 296 OFFCURVE",
"148 370 OFFCURVE",
"249 370 CURVE SMOOTH",
"339 370 OFFCURVE",
"415 300 OFFCURVE",
"430 214 CURVE",
"430 184 LINE",
"430 84 OFFCURVE",
"349 7 OFFCURVE",
"249 7 CURVE SMOOTH"
);
}
);
width = 539;
},
{
anchors = (
{
name = bottom;
position = "{316, 0}";
},
{
name = center;
position = "{316, 219}";
},
{
name = top;
position = "{316, 437}";
},
{
name = topright;
position = "{611, 437}";
}
);
hints = (
{
horizontal = 1;
place = "{-9, 21}";
target = up;
type = BottomGhost;
},
{
horizontal = 1;
place = "{750, -20}";
target = down;
type = TopGhost;
}
);
layerId = UUID1;
paths = (
{
closed = 1;
nodes = (
"327 -12 OFFCURVE",
"382 17 OFFCURVE",
"427 55 CURVE",
"416 85 LINE",
"416 0 LINE",
"556 0 LINE",
"556 789 LINE",
"417 789 LINE",
"417 362 LINE",
"417 406 LINE",
"382 442 OFFCURVE",
"328 459 OFFCURVE",
"272 459 CURVE",
"139 459 OFFCURVE",
"42 375 OFFCURVE",
"42 227 CURVE",
"42 78 OFFCURVE",
"132 -12 OFFCURVE",
"254 -12 CURVE"
);
},
{
closed = 1;
nodes = (
"238 106 OFFCURVE",
"184 159 OFFCURVE",
"184 229 CURVE",
"184 299 OFFCURVE",
"238 349 OFFCURVE",
"300 349 CURVE",
"356 349 OFFCURVE",
"400 322 OFFCURVE",
"416 279 CURVE",
"416 172 LINE",
"392 128 OFFCURVE",
"356 106 OFFCURVE",
"300 106 CURVE"
);
}
);
width = 631;
}
);
leftMetricsKey = o;
rightMetricsKey = n;
unicode = 0064;
},
{
glyphname = eth;
lastChange = "2016-09-15 14:22:03 +0000";
layers = (
{
components = (
{
name = o;
transform = "{1, 0, 0, 1, 13, 0}";
}
);
hints = (
{
horizontal = 1;
place = "{19, 21}";
target = up;
type = BottomGhost;
},
{
horizontal = 1;
place = "{751, -20}";
target = down;
type = TopGhost;
}
);
layerId = UUID0;
paths = (
{
closed = 1;
nodes = (
"151 547 LINE",
"154 544 OFFCURVE",
"156 542 OFFCURVE",
"159 539 CURVE",
"184 566 OFFCURVE",
"209 593 OFFCURVE",
"234 620 CURVE",
"345 492 OFFCURVE",
"397 370 OFFCURVE",
"414 295 CURVE",
"432 210 OFFCURVE",
"446 115 OFFCURVE",
"446 188 CURVE SMOOTH",
"446 333 OFFCURVE",
"352 500 OFFCURVE",
"242 629 CURVE",
"266 655 OFFCURVE",
"289 681 OFFCURVE",
"313 707 CURVE",
"310 709 OFFCURVE",
"308 712 OFFCURVE",
"305 714 CURVE",
"282 688 OFFCURVE",
"258 663 OFFCURVE",
"235 637 CURVE",
"204 671 OFFCURVE",
"172 701 OFFCURVE",
"139 726 CURVE",
"137 723 OFFCURVE",
"135 720 OFFCURVE",
"133 717 CURVE",
"167 690 OFFCURVE",
"198 660 OFFCURVE",
"227 629 CURVE",
"202 602 OFFCURVE",
"176 574 OFFCURVE",
"151 547 CURVE"
);
}
);
width = 503;
},
{
anchors = (
{
name = ogonek;
position = "{521, 10}";
},
{
name = top;
position = "{290, 457}";
}
);
hints = (
{
horizontal = 1;
place = "{-6, 21}";
target = up;
type = BottomGhost;
},
{
horizontal = 1;
place = "{738, -20}";
target = down;
type = TopGhost;
},
{
horizontal = 1;
place = "{-9, 21}";
target = up;
type = BottomGhost;
},
{
horizontal = 1;
place = "{384, -20}";
target = down;
type = TopGhost;
}
);
layerId = UUID1;
paths = (
{
closed = 1;
nodes = (
"449 328 OFFCURVE",
"381 458 OFFCURVE",
"256 458 CURVE",
"136 458 OFFCURVE",
"42 358 OFFCURVE",
"42 224 CURVE",
"42 76 OFFCURVE",
"146 -12 OFFCURVE",
"277 -12 CURVE",
"452 -12 OFFCURVE",
"537 135 OFFCURVE",
"537 316 CURVE",
"537 473 OFFCURVE",
"451 654 OFFCURVE",
"263 789 CURVE",
"159 697 LINE",
"318 569 OFFCURVE",
"396 477 OFFCURVE",
"396 254 CURVE",
"449 224 LINE"
);
},
{
closed = 1;
nodes = (
"183 292 OFFCURVE",
"228 344 OFFCURVE",
"289 344 CURVE",
"354 344 OFFCURVE",
"396 292 OFFCURVE",
"396 223 CURVE",
"396 154 OFFCURVE",
"354 102 OFFCURVE",
"289 102 CURVE",
"228 102 OFFCURVE",
"183 154 OFFCURVE",
"183 223 CURVE"
);
},
{
closed = 1;
nodes = (
"451 760 LINE",
"173 590 LINE",
"218 497 LINE",
"496 667 LINE"
);
}
);
width = 579;
}
);
unicode = 00F0;
},
{
glyphname = dcroat;
lastChange = "2016-09-14 16:27:50 +0000";
layers = (
{
components = (
{
name = d;
}
);
layerId = UUID0;
paths = (
{
closed = 1;
nodes = (
"216 616 LINE",
"497 616 LINE",
"497 630 LINE",
"216 630 LINE"
);
}
);
width = 515;
},
{
components = (
{
name = d;
}
);
layerId = UUID1;
paths = (
{
closed = 1;
nodes = (
"261 601 LINE",
"609 601 LINE",
"609 700 LINE",
"261 700 LINE"
);
}
);
width = 595;
}
);
unicode = 0111;
},
{
glyphname = e;
lastChange = "2016-09-17 23:05:33 +0000";
layers = (
{
anchors = (
{
name = bottom;
position = "{232, 0}";
},
{
name = ogonek;
position = "{413, 10}";
},
{
name = top;
position = "{232, 375}";
}
);
background = {
paths = (
{
closed = 1;
nodes = (
"367 56 LINE",
"335 26 OFFCURVE",
"292 8 OFFCURVE",
"244 8 CURVE SMOOTH",
"167 8 OFFCURVE",
"102 55 OFFCURVE",
"76 122 CURVE",
"177 164 OFFCURVE",
"313 218 OFFCURVE",
"413 259 CURVE",
"384 330 OFFCURVE",
"326 384 OFFCURVE",
"244 384 CURVE SMOOTH",
"136 384 OFFCURVE",
"50 296 OFFCURVE",
"50 188 CURVE SMOOTH",
"50 80 OFFCURVE",
"136 -6 OFFCURVE",
"244 -6 CURVE SMOOTH",
"296 -6 OFFCURVE",
"343 14 OFFCURVE",
"378 46 CURVE"
);
},
{
closed = 1;
nodes = (
"394 266 LINE",
"295 225 OFFCURVE",
"169 176 OFFCURVE",
"71 135 CURVE",
"66 152 OFFCURVE",
"64 169 OFFCURVE",
"64 188 CURVE SMOOTH",
"64 288 OFFCURVE",
"144 369 OFFCURVE",
"244 369 CURVE SMOOTH",
"315 369 OFFCURVE",
"366 326 OFFCURVE",
"394 266 CURVE"
);
}
);
};
hints = (
{
horizontal = 1;
place = "{409, -20}";
target = down;
type = TopGhost;
},
{
horizontal = 1;
place = "{16, 21}";
target = up;
type = BottomGhost;
}
);
layerId = UUID0;
paths = (
{
closed = 1;
nodes = (
"301 -6 OFFCURVE",
"348 14 OFFCURVE",
"383 46 CURVE",
"373 55 LINE",
"341 25 OFFCURVE",
"297 7 OFFCURVE",
"249 7 CURVE SMOOTH",
"140 7 OFFCURVE",
"69 96 OFFCURVE",
"69 188 CURVE SMOOTH",
"69 288 OFFCURVE",
"149 370 OFFCURVE",
"249 370 CURVE SMOOTH",
"320 370 OFFCURVE",
"374 320 OFFCURVE",
"402 260 CURVE",
"407 269 LINE",
"71 133 LINE",
"75 119 LINE",
"418 259 LINE",
"389 330 OFFCURVE",
"331 384 OFFCURVE",
"249 384 CURVE SMOOTH",
"141 384 OFFCURVE",
"55 296 OFFCURVE",
"55 188 CURVE SMOOTH",
"55 80 OFFCURVE",
"141 -6 OFFCURVE",
"249 -6 CURVE SMOOTH"
);
}
);
width = 463;
},
{
anchors = (
{
name = bottom;
position = "{282, 0}";
},
{
name = ogonek;
position = "{479, 10}";
},
{
name = top;
position = "{262, 457}";
}
);
hints = (
{
horizontal = 1;
place = "{384, -20}";
target = down;
type = TopGhost;
},
{
horizontal = 1;
place = "{-9, 21}";
target = up;
type = BottomGhost;
}
);
layerId = UUID1;
paths = (
{
closed = 1;
nodes = (
"339 -12 OFFCURVE",
"396 5 OFFCURVE",
"443 32 CURVE",
"381 136 LINE",
"353 118 OFFCURVE",
"325 107 OFFCURVE",
"294 107 CURVE",
"230 107 OFFCURVE",
"180 149 OFFCURVE",
"180 231 CURVE",
"180 303 OFFCURVE",
"220 349 OFFCURVE",
"283 349 CURVE",
"338 349 OFFCURVE",
"362 318 OFFCURVE",
"373 284 CURVE",
"402 297 LINE",
"156 214 LINE",
"187 138 LINE",
"527 246 LINE",
"503 383 OFFCURVE",
"419 458 OFFCURVE",
"294 458 CURVE",
"154 458 OFFCURVE",
"42 354 OFFCURVE",
"42 223 CURVE",
"42 85 OFFCURVE",
"131 -12 OFFCURVE",
"291 -12 CURVE"
);
}
);
width = 557;
}
);
leftMetricsKey = o;
unicode = 0065;
},
{
glyphname = eogonek;
lastChange = "2016-09-17 23:09:06 +0000";
layers = (
{
hints = (
{
horizontal = 1;
place = "{409, -20}";
target = down;
type = TopGhost;
},
{
horizontal = 1;
place = "{16, 21}";
target = up;
type = BottomGhost;
}
);
layerId = UUID0;
paths = (
{
closed = 1;
nodes = (
"281 -6 OFFCURVE",
"313 2 OFFCURVE",
"340 16 CURVE",
"335 20 LINE",
"306 -11 OFFCURVE",
"271 -56 OFFCURVE",
"271 -111 CURVE",
"271 -156 OFFCURVE",
"304 -186 OFFCURVE",
"340 -186 CURVE",
"373 -186 OFFCURVE",
"400 -161 OFFCURVE",
"413 -133 CURVE",
"402 -127 LINE",
"388 -152 OFFCURVE",
"367 -172 OFFCURVE",
"341 -172 CURVE",
"313 -172 OFFCURVE",
"286 -148 OFFCURVE",
"286 -111 CURVE",
"286 -36 OFFCURVE",
"341 14 OFFCURVE",
"383 46 CURVE",
"373 55 LINE",
"341 25 OFFCURVE",
"297 7 OFFCURVE",
"249 7 CURVE",
"140 7 OFFCURVE",
"69 96 OFFCURVE",
"69 188 CURVE",
"69 288 OFFCURVE",
"149 370 OFFCURVE",
"249 370 CURVE",
"320 370 OFFCURVE",
"374 320 OFFCURVE",
"402 260 CURVE",
"407 269 LINE",
"71 133 LINE",
"75 119 LINE",
"418 259 LINE",
"389 330 OFFCURVE",
"331 384 OFFCURVE",
"249 384 CURVE",
"141 384 OFFCURVE",
"55 296 OFFCURVE",
"55 188 CURVE",
"55 80 OFFCURVE",
"141 -6 OFFCURVE",
"249 -6 CURVE"
);
}
);
width = 463;
},
{
hints = (
{
horizontal = 1;
place = "{384, -20}";
target = down;
type = TopGhost;
},
{
horizontal = 1;
place = "{-9, 21}";
target = up;
type = BottomGhost;
}
);
layerId = UUID1;
paths = (
{
closed = 1;
nodes = (
"317 -12 OFFCURVE",
"385 7 OFFCURVE",
"404 32 CURVE",
"256 10 LINE",
"201 -12 OFFCURVE",
"171 -59 OFFCURVE",
"171 -103 CURVE SMOOTH",
"171 -181 OFFCURVE",
"229 -232 OFFCURVE",
"322 -232 CURVE SMOOTH",
"368 -232 OFFCURVE",
"427 -201 OFFCURVE",
"457 -157 CURVE",
"407 -85 LINE",
"385 -118 OFFCURVE",
"362 -134 OFFCURVE",
"335 -134 CURVE SMOOTH",
"312 -134 OFFCURVE",
"286 -115 OFFCURVE",
"286 -81 CURVE SMOOTH",
"286 -16 OFFCURVE",
"370 -8 OFFCURVE",
"443 32 CURVE",
"381 136 LINE",
"353 118 OFFCURVE",
"325 107 OFFCURVE",
"294 107 CURVE",
"230 107 OFFCURVE",
"180 149 OFFCURVE",
"180 231 CURVE",
"180 303 OFFCURVE",
"220 349 OFFCURVE",
"283 349 CURVE",
"338 349 OFFCURVE",
"362 318 OFFCURVE",
"373 284 CURVE",
"402 297 LINE",
"156 214 LINE",
"187 138 LINE",
"527 246 LINE",
"503 383 OFFCURVE",
"419 458 OFFCURVE",
"294 458 CURVE",
"154 458 OFFCURVE",
"42 354 OFFCURVE",
"42 223 CURVE",
"42 85 OFFCURVE",
"131 -12 OFFCURVE",
"291 -12 CURVE"
);
}
);
width = 557;
}
);
unicode = 0119;
},
{
glyphname = f;
lastChange = "2016-09-13 15:45:57 +0000";
layers = (
{
anchors = (
{
name = bottom;
position = "{142, 0}";
},
{
name = top;
position = "{142, 375}";
}
);
hints = (
{
horizontal = 1;
place = "{25, 21}";
target = up;
type = BottomGhost;
},
{
horizontal = 1;
place = "{775, -20}";
target = down;
type = TopGhost;
}
);
layerId = UUID0;
paths = (
{
closed = 1;
nodes = (
"129 0 LINE",
"129 359 LINE",
"259 359 LINE",
"259 372 LINE",
"129 372 LINE",
"129 589 LINE SMOOTH",
"129 706 OFFCURVE",
"158 745 OFFCURVE",
"222 745 CURVE SMOOTH",
"235 745 OFFCURVE",
"244 742 OFFCURVE",
"251 739 CURVE",
"257 749 LINE",
"245 753 OFFCURVE",
"233 756 OFFCURVE",
"221 756 CURVE SMOOTH",
"151 756 OFFCURVE",
"115 715 OFFCURVE",
"115 585 CURVE SMOOTH",
"115 372 LINE",
"50 372 LINE",
"50 359 LINE",
"115 359 LINE",
"115 0 LINE"
);
}
);
width = 284;
},
{
anchors = (
{
name = bottom;
position = "{218, 0}";
},
{
name = top;
position = "{218, 437}";
}
);
hints = (
{
horizontal = 1;
place = "{0, 21}";
target = up;
type = BottomGhost;
},
{
horizontal = 1;
place = "{751, -20}";
target = down;
type = TopGhost;
}
);
layerId = UUID1;
paths = (
{
closed = 1;
nodes = (
"254 0 LINE",
"254 315 LINE",
"386 315 LINE",
"386 439 LINE",
"254 439 LINE",
"254 587 LINE",
"254 645 OFFCURVE",
"282 671 OFFCURVE",
"322 671 CURVE",
"338 671 OFFCURVE",
"357 666 OFFCURVE",
"371 649 CURVE",
"430 750 LINE",
"395 775 OFFCURVE",
"344 786 OFFCURVE",
"307 786 CURVE",
"182 786 OFFCURVE",
"114 705 OFFCURVE",
"114 591 CURVE",
"114 439 LINE",
"40 439 LINE",
"40 315 LINE",
"114 315 LINE",
"114 0 LINE"
);
}
);
width = 435;
}
);
unicode = 0066;
},
{
glyphname = g;
lastChange = "2016-09-14 16:31:17 +0000";
layers = (
{
anchors = (
{
name = bottom;
position = "{270, 0}";
},
{
name = top;
position = "{270, 375}";
}
);
hints = (
{
horizontal = 1;
place = "{407, -20}";
target = down;
type = TopGhost;
},
{
horizontal = 1;
place = "{-226, 21}";
target = up;
type = BottomGhost;
}
);
layerId = UUID0;
paths = (
{
closed = 1;
nodes = (
"404 -180 OFFCURVE",
"444 -94 OFFCURVE",
"444 -8 CURVE SMOOTH",
"444 375 LINE",
"434 375 LINE",
"430 260 LINE",
"401 332 OFFCURVE",
"331 383 OFFCURVE",
"249 383 CURVE SMOOTH",
"143 383 OFFCURVE",
"55 304 OFFCURVE",
"55 188 CURVE SMOOTH",
"55 80 OFFCURVE",
"141 -6 OFFCURVE",
"249 -6 CURVE SMOOTH",
"332 -6 OFFCURVE",
"407 48 OFFCURVE",
"435 127 CURVE",
"430 131 LINE",
"429 -8 LINE",
"426 -93 OFFCURVE",
"391 -167 OFFCURVE",
"249 -167 CURVE SMOOTH",
"208 -167 OFFCURVE",
"157 -159 OFFCURVE",
"90 -94 CURVE",
"82 -103 LINE",
"150 -170 OFFCURVE",
"203 -180 OFFCURVE",
"250 -180 CURVE SMOOTH"
);
},
{
closed = 1;
nodes = (
"69 296 OFFCURVE",
"148 370 OFFCURVE",
"249 370 CURVE SMOOTH",
"339 370 OFFCURVE",
"415 304 OFFCURVE",
"430 218 CURVE",
"430 178 LINE",
"430 88 OFFCURVE",
"349 7 OFFCURVE",
"249 7 CURVE SMOOTH",
"149 7 OFFCURVE",
"69 88 OFFCURVE",
"69 188 CURVE SMOOTH"
);
}
);
width = 539;
},
{
anchors = (
{
name = bottom;
position = "{320, 0}";
},
{
name = top;
position = "{320, 457}";
}
);
hints = (
{
horizontal = 1;
place = "{382, -20}";
target = down;
type = TopGhost;
},
{
horizontal = 1;
place = "{-251, 21}";
target = up;
type = BottomGhost;
}
);
layerId = UUID1;
paths = (
{
closed = 1;
nodes = (
"445 -220 OFFCURVE",
"565 -128 OFFCURVE",
"565 0 CURVE",
"565 437 LINE",
"436 437 LINE",
"425 402 LINE",
"397 434 OFFCURVE",
"341 459 OFFCURVE",
"265 459 CURVE",
"151 459 OFFCURVE",
"42 358 OFFCURVE",
"42 221 CURVE",
"42 87 OFFCURVE",
"143 -12 OFFCURVE",
"262 -12 CURVE",
"353 -12 OFFCURVE",
"408 28 OFFCURVE",
"430 73 CURVE",
"425 98 LINE",
"425 2 LINE",
"425 -64 OFFCURVE",
"366 -98 OFFCURVE",
"300 -98 CURVE",
"233 -98 OFFCURVE",
"196 -66 OFFCURVE",
"166 -38 CURVE",
"84 -134 LINE",
"128 -170 OFFCURVE",
"184 -220 OFFCURVE",
"302 -220 CURVE"
);
},
{
closed = 1;
nodes = (
"183 295 OFFCURVE",
"236 345 OFFCURVE",
"304 345 CURVE",
"361 345 OFFCURVE",
"406 318 OFFCURVE",
"425 275 CURVE",
"425 168 LINE",
"400 124 OFFCURVE",
"361 102 OFFCURVE",
"304 102 CURVE",
"236 102 OFFCURVE",
"183 155 OFFCURVE",
"183 225 CURVE"
);
}
);
width = 640;
}
);
leftMetricsKey = o;
rightMetricsKey = n;
unicode = 0067;
},
{
glyphname = h;
lastChange = "2016-09-14 16:31:29 +0000";
layers = (
{
anchors = (
{
name = bottom;
position = "{241, 0}";
},
{
name = center;
position = "{241, 188}";
},
{
name = top;
position = "{241, 375}";
}
);
hints = (
{
horizontal = 1;
place = "{25, 21}";
target = up;
type = BottomGhost;
},
{
horizontal = 1;
place = "{775, -20}";
target = down;
type = TopGhost;
}
);
layerId = UUID0;
paths = (
{
closed = 1;
nodes = (
"109 0 LINE",
"109 221 LINE SMOOTH",
"109 305 OFFCURVE",
"188 369 OFFCURVE",
"272 369 CURVE",
"336 366 OFFCURVE",
"371 325 OFFCURVE",
"373 271 CURVE",
"373 0 LINE",
"387 0 LINE",
"387 270 LINE",
"385 336 OFFCURVE",
"341 382 OFFCURVE",
"271 382 CURVE SMOOTH",
"196 382 OFFCURVE",
"133 337 OFFCURVE",
"109 281 CURVE",
"109 750 LINE",
"95 750 LINE",
"95 0 LINE"
);
}
);
width = 482;
},
{
anchors = (
{
name = bottom;
position = "{300, 0}";
},
{
name = center;
position = "{300, 219}";
},
{
name = top;
position = "{382, 457}";
}
);
background = {
paths = (
{
closed = 1;
nodes = (
"191 789 LINE",
"75 789 LINE",
"75 0 LINE",
"191 0 LINE",
"191 201 LINE SMOOTH",
"191 277 OFFCURVE",
"239 334 OFFCURVE",
"314 334 CURVE",
"370 331 OFFCURVE",
"393 299 OFFCURVE",
"395 260 CURVE",
"395 0 LINE",
"511 0 LINE",
"511 318 LINE",
"509 397 OFFCURVE",
"448 450 OFFCURVE",
"357 449 CURVE SMOOTH",
"271 448 OFFCURVE",
"222 402 OFFCURVE",
"191 332 CURVE"
);
}
);
};
hints = (
{
horizontal = 1;
place = "{0, 21}";
target = up;
type = BottomGhost;
},
{
horizontal = 1;
place = "{750, -20}";
target = down;
type = TopGhost;
}
);
layerId = UUID1;
paths = (
{
closed = 1;
nodes = (
"215 0 LINE",
"215 178 LINE",
"215 271 OFFCURVE",
"256 339 OFFCURVE",
"321 339 CURVE",
"366 339 OFFCURVE",
"383 314 OFFCURVE",
"385 275 CURVE",
"385 0 LINE",
"525 0 LINE",
"525 327 LINE",
"523 404 OFFCURVE",
"461 458 OFFCURVE",
"379 458 CURVE",
"298 458 OFFCURVE",
"243 421 OFFCURVE",
"212 366 CURVE",
"212 789 LINE",
"75 789 LINE",
"75 0 LINE"
);
}
);
width = 600;
}
);
leftMetricsKey = n;
rightMetricsKey = n;
unicode = 0068;
},
{
glyphname = hbar;
lastChange = "2016-09-13 15:45:57 +0000";
layers = (
{
components = (
{
name = h;
}
);
hints = (
{
horizontal = 1;
place = "{517, 21}";
target = up;
type = BottomGhost;
},
{
horizontal = 1;
place = "{531, -20}";
target = down;
type = TopGhost;
}
);
layerId = UUID0;
paths = (
{
closed = 1;
nodes = (
"30 571 LINE",
"260 571 LINE",
"260 585 LINE",
"30 585 LINE"
);
}
);
width = 463;
},
{
components = (
{
name = h;
}
);
hints = (
{
horizontal = 1;
place = "{478, 21}";
target = up;
type = BottomGhost;
},
{
horizontal = 1;
place = "{531, -20}";
target = down;
type = TopGhost;
}
);
layerId = UUID1;
paths = (
{
closed = 1;
nodes = (
"15 539 LINE",
"340 539 LINE",
"340 616 LINE",
"15 616 LINE"
);
}
);
width = 606;
}
);
unicode = 0127;
},
{
glyphname = idotless;
lastChange = "2016-09-15 15:47:25 +0000";
layers = (
{
anchors = (
{
name = bottom;
position = "{92, 0}";
},
{
name = ogonek;
position = "{162, 10}";
},
{
name = top;
position = "{92, 375}";
}
);
hints = (
{
horizontal = 1;
place = "{25, 21}";
target = up;
type = BottomGhost;
},
{
horizontal = 1;
place = "{545, -20}";
target = down;
type = TopGhost;
}
);
layerId = UUID0;
paths = (
{
closed = 1;
nodes = (
"85 0 LINE",
"99 0 LINE",
"99 375 LINE",
"85 375 LINE"
);
}
);
width = 184;
},
{
anchors = (
{
name = bottom;
position = "{133, 0}";
},
{
name = ogonek;
position = "{303, 10}";
},
{
name = top;
position = "{147, 447}";
}
);
hints = (
{
horizontal = 1;
place = "{0, 21}";
target = up;
type = BottomGhost;
},
{
horizontal = 1;
place = "{573, -20}";
target = down;
type = TopGhost;
}
);
layerId = UUID1;
paths = (
{
closed = 1;
nodes = (
"75 0 LINE",
"215 0 LINE",
"215 437 LINE",
"75 437 LINE"
);
}
);
width = 290;
}
);
leftMetricsKey = n;
rightMetricsKey = n;
unicode = 0131;
},
{
glyphname = iacute;
lastChange = "2016-09-15 15:47:27 +0000";
layers = (
{
components = (
{
name = acute;
transform = "{1, 0, 0, 1, -15, 0}";
}
);
hints = (
{
horizontal = 1;
place = "{400, -20}";
target = down;
type = TopGhost;
},
{
horizontal = 1;
place = "{25, 21}";
target = up;
type = BottomGhost;
}
);
layerId = UUID0;
paths = (
{
closed = 1;
nodes = (
"85 0 LINE",
"99 0 LINE",
"99 375 LINE",
"85 375 LINE"
);
}
);
width = 266;
},
{
components = (
{
name = idotless;
},
{
name = acutecomb;
transform = "{1, 0, 0, 1, 108, 10}";
}
);
hints = (
{
horizontal = 1;
place = "{375, -20}";
target = down;
type = TopGhost;
},
{
horizontal = 1;
place = "{0, 21}";
target = up;
type = BottomGhost;
}
);
layerId = UUID1;
width = 290;
}
);
unicode = 00ED;
},
{
glyphname = icircumflex;
lastChange = "2016-09-15 15:54:37 +0000";
layers = (
{
components = (
{
name = asciicircum;
transform = "{1, 0, 0, 1, -139, 0}";
}
);
hints = (
{
horizontal = 1;
place = "{400, -20}";
target = down;
type = TopGhost;
},
{
horizontal = 1;
place = "{25, 21}";
target = up;
type = BottomGhost;
}
);
layerId = UUID0;
paths = (
{
closed = 1;
nodes = (
"85 0 LINE",
"99 0 LINE",
"99 375 LINE",
"85 375 LINE"
);
}
);
width = 184;
},
{
components = (
{
name = idotless;
},
{
name = circumflexcomb;
transform = "{1, 0, 0, 1, -52, 10}";
}
);
hints = (
{
horizontal = 1;
place = "{375, -20}";
target = down;
type = TopGhost;
},
{
horizontal = 1;
place = "{0, 21}";
target = up;
type = BottomGhost;
}
);
layerId = UUID1;
width = 290;
}
);
unicode = 00EE;
},
{
glyphname = idieresis;
lastChange = "2016-09-17 20:15:43 +0000";
layers = (
{
components = (
{
name = dieresis;
transform = "{1, 0, 0, 1, -92, 0}";
}
);
hints = (
{
horizontal = 1;
place = "{400, -20}";
target = down;
type = TopGhost;
},
{
horizontal = 1;
place = "{25, 21}";
target = up;
type = BottomGhost;
}
);
layerId = UUID0;
paths = (
{
closed = 1;
nodes = (
"85 0 LINE",
"99 0 LINE",
"99 375 LINE",
"85 375 LINE"
);
}
);
width = 189;
},
{
components = (
{
name = idotless;
},
{
name = dieresiscomb;
transform = "{1, 0, 0, 1, -95, 10}";
}
);
hints = (
{
horizontal = 1;
place = "{375, -20}";
target = down;
type = TopGhost;
},
{
horizontal = 1;
place = "{0, 21}";
target = up;
type = BottomGhost;
}
);
layerId = UUID1;
width = 290;
}
);
unicode = 00EF;
},
{
glyphname = igrave;
lastChange = "2016-09-17 19:57:38 +0000";
layers = (
{
components = (
{
name = grave;
transform = "{1, 0, 0, 1, 19, 0}";
}
);
hints = (
{
horizontal = 1;
place = "{400, -20}";
target = down;
type = TopGhost;
},
{
horizontal = 1;
place = "{25, 21}";
target = up;
type = BottomGhost;
}
);
layerId = UUID0;
paths = (
{
closed = 1;
nodes = (
"85 0 LINE",
"99 0 LINE",
"99 375 LINE",
"85 375 LINE"
);
}
);
width = 180;
},
{
components = (
{
name = idotless;
},
{
name = gravecomb;
transform = "{1, 0, 0, 1, -59, 10}";
}
);
hints = (
{
horizontal = 1;
place = "{375, -20}";
target = down;
type = TopGhost;
},
{
horizontal = 1;
place = "{0, 21}";
target = up;
type = BottomGhost;
}
);
layerId = UUID1;
width = 290;
}
);
unicode = 00EC;
},
{
glyphname = ij;
lastChange = "2016-09-15 16:09:53 +0000";
layers = (
{
components = (
{
name = i;
},
{
name = j;
transform = "{1, 0, 0, 1, 230, 0}";
}
);
layerId = UUID0;
width = 457;
},
{
background = {
paths = (
{
closed = 1;
nodes = (
"75 437 LINE",
"75 0 LINE",
"215 0 LINE",
"215 178 LINE",
"215 271 OFFCURVE",
"256 339 OFFCURVE",
"321 339 CURVE",
"366 339 OFFCURVE",
"383 314 OFFCURVE",
"385 275 CURVE",
"385 0 LINE",
"525 0 LINE",
"525 327 LINE",
"523 404 OFFCURVE",
"461 458 OFFCURVE",
"379 458 CURVE",
"298 458 OFFCURVE",
"243 421 OFFCURVE",
"212 366 CURVE",
"202 437 LINE"
);
}
);
};
components = (
{
name = i;
},
{
alignment = -1;
name = j;
transform = "{1, 0, 0, 1, 227, 0}";
}
);
layerId = UUID1;
width = 560;
}
);
leftMetricsKey = n;
rightMetricsKey = j;
unicode = 0133;
},
{
glyphname = iogonek;
lastChange = "2016-09-17 21:57:49 +0000";
layers = (
{
components = (
{
name = i;
},
{
name = ogonek;
transform = "{1, 0, 0, 1, -123, 0}";
}
);
layerId = UUID0;
width = 184;
},
{
anchors = (
{
name = _ogonek;
position = "{303, 10}";
}
);
components = (
{
name = idotless;
},
{
name = dotaccentcomb;
transform = "{1, 0, 0, 1, 24, -10}";
}
);
layerId = UUID1;
paths = (
{
closed = 1;
nodes = (
"214 0 CURVE",
"188 10 LINE",
"80 10 LINE",
"25 -12 OFFCURVE",
"-5 -59 OFFCURVE",
"-5 -103 CURVE SMOOTH",
"-5 -181 OFFCURVE",
"57 -226 OFFCURVE",
"139 -226 CURVE SMOOTH",
"196 -226 OFFCURVE",
"259 -193 OFFCURVE",
"279 -144 CURVE",
"209 -92 LINE",
"203 -110 OFFCURVE",
"181 -134 OFFCURVE",
"154 -134 CURVE SMOOTH",
"131 -134 OFFCURVE",
"110 -126 OFFCURVE",
"110 -92 CURVE SMOOTH",
"110 -48 OFFCURVE",
"151 -26 OFFCURVE"
);
}
);
width = 290;
}
);
unicode = 012F;
},
{
glyphname = j;
lastChange = "2016-09-17 20:04:25 +0000";
layers = (
{
hints = (
{
horizontal = 1;
place = "{-155, 21}";
target = up;
type = BottomGhost;
},
{
horizontal = 1;
place = "{545, -20}";
target = down;
type = TopGhost;
}
);
layerId = UUID0;
paths = (
{
closed = 1;
nodes = (
"62 -180 LINE",
"97 -141 OFFCURVE",
"119 -83 OFFCURVE",
"119 -7 CURVE SMOOTH",
"119 375 LINE",
"105 375 LINE",
"105 -11 LINE SMOOTH",
"105 -79 OFFCURVE",
"83 -134 OFFCURVE",
"50 -171 CURVE",
"62 -180 LINE"
);
},
{
closed = 1;
nodes = (
"92 489 OFFCURVE",
"101 480 OFFCURVE",
"112 480 CURVE SMOOTH",
"123 480 OFFCURVE",
"132 489 OFFCURVE",
"132 500 CURVE SMOOTH",
"132 511 OFFCURVE",
"123 520 OFFCURVE",
"112 520 CURVE SMOOTH",
"101 520 OFFCURVE",
"92 512 OFFCURVE",
"92 500 CURVE SMOOTH"
);
}
);
width = 227;
},
{
hints = (
{
horizontal = 1;
place = "{-181, 21}";
target = up;
type = BottomGhost;
},
{
horizontal = 1;
place = "{573, -20}";
target = down;
type = TopGhost;
}
);
layerId = UUID1;
paths = (
{
closed = 1;
nodes = (
"101 -211 LINE",
"185 -167 OFFCURVE",
"223 -96 OFFCURVE",
"223 0 CURVE",
"223 437 LINE",
"83 437 LINE",
"83 8 LINE",
"83 -53 OFFCURVE",
"60 -95 OFFCURVE",
"20 -124 CURVE",
"101 -211 LINE"
);
},
{
closed = 1;
nodes = (
"76 570 OFFCURVE",
"111 542 OFFCURVE",
"156 542 CURVE",
"201 542 OFFCURVE",
"234 570 OFFCURVE",
"234 612 CURVE",
"234 653 OFFCURVE",
"201 683 OFFCURVE",
"156 683 CURVE",
"111 683 OFFCURVE",
"76 653 OFFCURVE",
"76 612 CURVE"
);
}
);
width = 309;
}
);
rightMetricsKey = n;
unicode = 006A;
},
{
glyphname = jcircumflex;
lastChange = "2016-09-15 15:54:37 +0000";
layers = (
{
components = (
{
name = asciicircum;
transform = "{1, 0, 0, 1, -139, -1}";
}
);
hints = (
{
horizontal = 1;
place = "{-155, 21}";
target = up;
type = BottomGhost;
},
{
horizontal = 1;
place = "{545, -20}";
target = down;
type = TopGhost;
}
);
layerId = UUID0;
paths = (
{
closed = 1;
nodes = (
"42 -180 LINE",
"77 -141 OFFCURVE",
"99 -83 OFFCURVE",
"99 -7 CURVE SMOOTH",
"99 375 LINE",
"94 375 OFFCURVE",
"90 375 OFFCURVE",
"85 375 CURVE",
"85 -11 LINE SMOOTH",
"85 -79 OFFCURVE",
"63 -134 OFFCURVE",
"30 -171 CURVE",
"34 -174 OFFCURVE",
"38 -177 OFFCURVE",
"42 -180 CURVE"
);
}
);
width = 184;
},
{
components = (
{
name = dotlessj;
},
{
name = circumflexcomb;
transform = "{1, 0, 0, 1, -21, 2}";
}
);
hints = (
{
horizontal = 1;
place = "{-181, 21}";
target = up;
type = BottomGhost;
},
{
horizontal = 1;
place = "{573, -20}";
target = down;
type = TopGhost;
}
);
layerId = UUID1;
width = 340;
}
);
unicode = 0135;
},
{
glyphname = k;
lastChange = "2016-09-17 21:15:24 +0000";
layers = (
{
anchors = (
{
name = bottom;
position = "{209, 0}";
},
{
name = top;
position = "{209, 375}";
}
);
hints = (
{
horizontal = 1;
place = "{775, -20}";
target = down;
type = TopGhost;
},
{
horizontal = 1;
place = "{25, 21}";
target = up;
type = BottomGhost;
}
);
layerId = UUID0;
paths = (
{
closed = 1;
nodes = (
"109 0 LINE",
"109 750 LINE",
"95 750 LINE",
"95 0 LINE"
);
},
{
closed = 1;
nodes = (
"184 225 LINE",
"351 0 LINE",
"367 0 LINE",
"194 235 LINE",
"341 374 LINE",
"330 383 LINE",
"331 382 LINE",
"102 166 LINE",
"102 149 LINE"
);
}
);
width = 417;
},
{
anchors = (
{
name = bottom;
position = "{275, 0}";
},
{
name = top;
position = "{275, 437}";
}
);
hints = (
{
horizontal = 1;
place = "{750, -20}";
target = down;
type = TopGhost;
},
{
horizontal = 1;
place = "{0, 21}";
target = up;
type = BottomGhost;
}
);
layerId = UUID1;
paths = (
{
closed = 1;
nodes = (
"215 0 LINE",
"215 789 LINE",
"75 789 LINE",
"75 0 LINE"
);
},
{
closed = 1;
nodes = (
"234 217 LINE",
"361 0 LINE",
"524 0 LINE",
"326 297 LINE"
);
},
{
closed = 1;
nodes = (
"508 373 LINE",
"423 448 LINE",
"423 448 LINE",
"159 254 LINE",
"173 121 LINE"
);
}
);
width = 549;
}
);
leftMetricsKey = n;
unicode = 006B;
},
{
glyphname = kgreenlandic;
lastChange = "2016-09-15 15:30:52 +0000";
layers = (
{
layerId = UUID0;
width = 610;
},
{
hints = (
{
horizontal = 1;
place = "{0, 21}";
target = up;
type = BottomGhost;
},
{
horizontal = 1;
place = "{700, -20}";
target = down;
type = TopGhost;
},
{
horizontal = 1;
place = "{700, -20}";
target = down;
type = TopGhost;
}
);
layerId = UUID1;
paths = (
{
closed = 1;
nodes = (
"530 437 LINE",
"362 437 LINE",
"185 239 LINE",
"206 116 LINE"
);
},
{
closed = 1;
nodes = (
"215 437 LINE",
"75 437 LINE",
"75 0 LINE",
"215 0 LINE"
);
},
{
closed = 1;
nodes = (
"225 194 LINE",
"365 0 LINE",
"526 0 LINE",
"333 254 LINE"
);
}
);
width = 565;
}
);
leftMetricsKey = n;
unicode = 0138;
},
{
glyphname = l;
lastChange = "2016-09-14 16:34:08 +0000";
layers = (
{
anchors = (
{
name = bottom;
position = "{102, 0}";
},
{
name = center;
position = "{102, 188}";
},
{
name = top;
position = "{102, 375}";
},
{
name = topright;
position = "{179, 375}";
}
);
hints = (
{
horizontal = 1;
place = "{775, -20}";
target = down;
type = TopGhost;
},
{
horizontal = 1;
place = "{25, 21}";
target = up;
type = BottomGhost;
}
);
layerId = UUID0;
paths = (
{
closed = 1;
nodes = (
"95 0 LINE",
"109 0 LINE",
"109 750 LINE",
"95 750 LINE"
);
}
);
width = 204;
},
{
anchors = (
{
name = bottom;
position = "{145, 0}";
},
{
name = center;
position = "{145, 219}";
},
{
name = top;
position = "{145, 807}";
},
{
name = topright;
position = "{270, 437}";
}
);
hints = (
{
horizontal = 1;
place = "{750, -20}";
target = down;
type = TopGhost;
},
{
horizontal = 1;
place = "{0, 21}";
target = up;
type = BottomGhost;
}
);
layerId = UUID1;
paths = (
{
closed = 1;
nodes = (
"75 0 LINE",
"215 0 LINE",
"215 789 LINE",
"75 789 LINE"
);
}
);
width = 290;
}
);
leftMetricsKey = n;
rightMetricsKey = n;
unicode = 006C;
},
{
glyphname = lslash;
lastChange = "2016-09-17 21:15:53 +0000";
layers = (
{
components = (
{
name = l;
}
);
layerId = UUID0;
paths = (
{
closed = 1;
nodes = (
"28 293 LINE",
"28 279 LINE",
"179 335 LINE",
"179 349 LINE"
);
}
);
width = 184;
},
{
components = (
{
name = l;
transform = "{1, 0, 0, 1, 10, 0}";
}
);
layerId = UUID1;
paths = (
{
closed = 1;
nodes = (
"15 346 LINE",
"15 225 LINE",
"300 292 LINE",
"300 413 LINE"
);
}
);
width = 315;
}
);
unicode = 0142;
},
{
glyphname = m;
lastChange = "2016-09-13 16:03:44 +0000";
layers = (
{
anchors = (
{
name = bottom;
position = "{380, 0}";
},
{
name = top;
position = "{380, 375}";
}
);
hints = (
{
horizontal = 1;
place = "{25, 21}";
target = up;
type = BottomGhost;
},
{
horizontal = 1;
place = "{407, -20}";
target = down;
type = TopGhost;
}
);
layerId = UUID0;
paths = (
{
closed = 1;
nodes = (
"95 375 LINE",
"95 0 LINE",
"109 0 LINE",
"109 221 LINE SMOOTH",
"109 307 OFFCURVE",
"187 369 OFFCURVE",
"272 369 CURVE",
"336 366 OFFCURVE",
"371 325 OFFCURVE",
"373 277 CURVE",
"373 0 LINE",
"387 0 LINE",
"387 227 LINE",
"392 308 OFFCURVE",
"468 369 OFFCURVE",
"550 369 CURVE",
"614 366 OFFCURVE",
"649 325 OFFCURVE",
"651 277 CURVE",
"651 0 LINE",
"665 0 LINE",
"665 270 LINE",
"663 336 OFFCURVE",
"619 382 OFFCURVE",
"549 382 CURVE SMOOTH",
"476 382 OFFCURVE",
"413 343 OFFCURVE",
"388 274 CURVE",
"391 333 OFFCURVE",
"336 382 OFFCURVE",
"271 382 CURVE SMOOTH",
"196 382 OFFCURVE",
"131 337 OFFCURVE",
"107 265 CURVE",
"105 375 LINE"
);
}
);
width = 760;
},
{
anchors = (
{
name = bottom;
position = "{435, 0}";
},
{
name = top;
position = "{435, 437}";
}
);
hints = (
{
horizontal = 1;
place = "{0, 21}";
target = up;
type = BottomGhost;
},
{
horizontal = 1;
place = "{384, -20}";
target = down;
type = TopGhost;
}
);
layerId = UUID1;
paths = (
{
closed = 1;
nodes = (
"75 437 LINE",
"75 0 LINE",
"215 0 LINE",
"215 181 LINE",
"215 257 OFFCURVE",
"250 338 OFFCURVE",
"316 338 CURVE",
"355 335 OFFCURVE",
"363 309 OFFCURVE",
"365 270 CURVE",
"365 0 LINE",
"505 0 LINE",
"505 179 LINE",
"505 257 OFFCURVE",
"540 338 OFFCURVE",
"609 338 CURVE",
"647 335 OFFCURVE",
"653 309 OFFCURVE",
"655 270 CURVE",
"655 0 LINE",
"794 0 LINE",
"794 328 LINE",
"792 405 OFFCURVE",
"738 459 OFFCURVE",
"651 459 CURVE",
"592 459 OFFCURVE",
"541 429 OFFCURVE",
"504 372 CURVE",
"489 433 OFFCURVE",
"441 459 OFFCURVE",
"370 459 CURVE",
"297 459 OFFCURVE",
"246 425 OFFCURVE",
"212 366 CURVE",
"202 437 LINE"
);
}
);
width = 869;
}
);
leftMetricsKey = n;
rightMetricsKey = n;
unicode = 006D;
},
{
glyphname = n;
lastChange = "2016-09-14 16:35:12 +0000";
layers = (
{
anchors = (
{
name = bottom;
position = "{241, 0}";
},
{
name = top;
position = "{241, 375}";
}
);
hints = (
{
horizontal = 1;
place = "{25, 21}";
target = up;
type = BottomGhost;
},
{
horizontal = 1;
place = "{407, -20}";
target = down;
type = TopGhost;
}
);
layerId = UUID0;
paths = (
{
closed = 1;
nodes = (
"95 375 LINE",
"95 0 LINE",
"109 0 LINE",
"109 221 LINE SMOOTH",
"109 310 OFFCURVE",
"188 369 OFFCURVE",
"272 369 CURVE",
"336 366 OFFCURVE",
"371 325 OFFCURVE",
"373 271 CURVE",
"373 0 LINE",
"387 0 LINE",
"387 270 LINE",
"385 336 OFFCURVE",
"341 382 OFFCURVE",
"271 382 CURVE SMOOTH",
"196 382 OFFCURVE",
"129 338 OFFCURVE",
"108 266 CURVE",
"105 375 LINE"
);
}
);
width = 482;
},
{
anchors = (
{
name = bottom;
position = "{300, 0}";
},
{
name = top;
position = "{300, 447}";
}
);
hints = (
{
horizontal = 1;
place = "{0, 21}";
target = up;
type = BottomGhost;
},
{
horizontal = 1;
place = "{384, -20}";
target = down;
type = TopGhost;
}
);
layerId = UUID1;
paths = (
{
closed = 1;
nodes = (
"75 437 LINE",
"75 0 LINE",
"215 0 LINE",
"215 178 LINE",
"215 271 OFFCURVE",
"256 339 OFFCURVE",
"321 339 CURVE",
"366 339 OFFCURVE",
"383 314 OFFCURVE",
"385 275 CURVE",
"385 0 LINE",
"525 0 LINE",
"525 327 LINE",
"523 404 OFFCURVE",
"461 458 OFFCURVE",
"379 458 CURVE",
"298 458 OFFCURVE",
"243 421 OFFCURVE",
"212 366 CURVE",
"202 437 LINE"
);
}
);
width = 600;
}
);
unicode = 006E;
},
{
glyphname = eng;
lastChange = "2016-09-15 15:33:53 +0000";
layers = (
{
layerId = UUID0;
width = 610;
},
{
components = (
{
name = n;
}
);
hints = (
{
horizontal = 1;
place = "{-181, 21}";
target = up;
type = BottomGhost;
},
{
horizontal = 1;
place = "{573, -20}";
target = down;
type = TopGhost;
}
);
layerId = UUID1;
paths = (
{
closed = 1;
nodes = (
"403 -211 LINE",
"487 -167 OFFCURVE",
"525 -96 OFFCURVE",
"525 0 CURVE",
"525 38 LINE",
"385 38 LINE",
"385 8 LINE",
"385 -53 OFFCURVE",
"363 -95 OFFCURVE",
"323 -124 CURVE",
"403 -211 LINE"
);
}
);
width = 933;
}
);
unicode = 014B;
},
{
glyphname = nhookleft;
lastChange = "2016-09-15 15:34:15 +0000";
layers = (
{
layerId = UUID0;
width = 610;
},
{
components = (
{
name = n;
}
);
layerId = UUID1;
paths = (
{
closed = 1;
nodes = (
"93 -211 LINE",
"177 -167 OFFCURVE",
"215 -96 OFFCURVE",
"215 0 CURVE",
"215 38 LINE",
"75 38 LINE",
"75 8 LINE",
"75 -53 OFFCURVE",
"53 -95 OFFCURVE",
"13 -124 CURVE",
"93 -211 LINE"
);
}
);
width = 600;
}
);
unicode = 0272;
},
{
glyphname = nj;
lastChange = "2016-09-15 16:11:29 +0000";
layers = (
{
components = (
{
name = n;
},
{
name = j;
transform = "{1, 0, 0, 1, 482, 0}";
}
);
layerId = UUID0;
width = 709;
},
{
background = {
paths = (
{
closed = 1;
nodes = (
"385 437 LINE",
"385 0 LINE",
"525 0 LINE",
"525 178 LINE",
"525 271 OFFCURVE",
"566 339 OFFCURVE",
"631 339 CURVE",
"676 339 OFFCURVE",
"693 314 OFFCURVE",
"695 275 CURVE",
"695 0 LINE",
"835 0 LINE",
"835 327 LINE",
"833 404 OFFCURVE",
"771 458 OFFCURVE",
"689 458 CURVE",
"608 458 OFFCURVE",
"553 421 OFFCURVE",
"522 366 CURVE",
"512 437 LINE"
);
}
);
};
components = (
{
name = n;
},
{
alignment = -1;
name = j;
transform = "{1, 0, 0, 1, 568, 0}";
}
);
layerId = UUID1;
width = 901;
}
);
leftMetricsKey = n;
rightMetricsKey = j;
unicode = 01CC;
},
{
glyphname = o;
lastChange = "2016-09-17 22:58:27 +0000";
layers = (
{
anchors = (
{
name = bottom;
position = "{250, 0}";
},
{
name = center;
position = "{250, 188}";
},
{
name = ogonek;
position = "{414, 10}";
},
{
name = top;
position = "{250, 375}";
},
{
name = topright;
position = "{475, 375}";
}
);
hints = (
{
horizontal = 1;
place = "{19, 21}";
target = up;
type = BottomGhost;
},
{
horizontal = 1;
place = "{409, -20}";
target = down;
type = TopGhost;
}
);
layerId = UUID0;
paths = (
{
closed = 1;
nodes = (
"55 77 OFFCURVE",
"141 -6 OFFCURVE",
"249 -6 CURVE SMOOTH",
"357 -6 OFFCURVE",
"445 80 OFFCURVE",
"445 188 CURVE SMOOTH",
"445 296 OFFCURVE",
"357 384 OFFCURVE",
"249 384 CURVE SMOOTH",
"141 384 OFFCURVE",
"55 296 OFFCURVE",
"55 188 CURVE"
);
},
{
closed = 1;
nodes = (
"69 280 OFFCURVE",
"145 370 OFFCURVE",
"249 370 CURVE SMOOTH",
"349 370 OFFCURVE",
"430 288 OFFCURVE",
"430 188 CURVE SMOOTH",
"430 88 OFFCURVE",
"349 7 OFFCURVE",
"249 7 CURVE SMOOTH",
"149 7 OFFCURVE",
"69 88 OFFCURVE",
"69 188 CURVE"
);
}
);
width = 500;
},
{
anchors = (
{
name = bottom;
position = "{290, 0}";
},
{
name = center;
position = "{290, 219}";
},
{
name = ogonek;
position = "{521, 10}";
},
{
name = top;
position = "{290, 457}";
},
{
name = topright;
position = "{499, 437}";
}
);
hints = (
{
horizontal = 1;
place = "{-9, 21}";
target = up;
type = BottomGhost;
},
{
horizontal = 1;
place = "{384, -20}";
target = down;
type = TopGhost;
}
);
layerId = UUID1;
paths = (
{
closed = 1;
nodes = (
"42 76 OFFCURVE",
"146 -12 OFFCURVE",
"291 -12 CURVE",
"444 -12 OFFCURVE",
"537 90 OFFCURVE",
"537 224 CURVE",
"537 358 OFFCURVE",
"443 458 OFFCURVE",
"293 458 CURVE",
"144 458 OFFCURVE",
"42 358 OFFCURVE",
"42 224 CURVE"
);
},
{
closed = 1;
nodes = (
"183 292 OFFCURVE",
"228 344 OFFCURVE",
"289 344 CURVE",
"354 344 OFFCURVE",
"396 292 OFFCURVE",
"396 223 CURVE",
"396 154 OFFCURVE",
"354 102 OFFCURVE",
"289 102 CURVE",
"228 102 OFFCURVE",
"183 154 OFFCURVE",
"183 223 CURVE"
);
}
);
width = 579;
}
);
unicode = 006F;
},
{
glyphname = oogonek;
lastChange = "2016-09-17 23:05:12 +0000";
layers = (
{
hints = (
{
horizontal = 1;
place = "{19, 21}";
target = up;
type = BottomGhost;
},
{
horizontal = 1;
place = "{409, -20}";
target = down;
type = TopGhost;
}
);
layerId = UUID0;
paths = (
{
closed = 1;
nodes = (
"271 -6 OFFCURVE",
"315 1 OFFCURVE",
"340 15 CURVE",
"345 24 LINE",
"285 -20 OFFCURVE",
"252 -56 OFFCURVE",
"252 -100 CURVE",
"252 -136 OFFCURVE",
"275 -166 OFFCURVE",
"320 -166 CURVE",
"356 -166 OFFCURVE",
"399 -135 OFFCURVE",
"414 -93 CURVE",
"403 -87 LINE",
"386 -129 OFFCURVE",
"350 -152 OFFCURVE",
"322 -152 CURVE",
"284 -152 OFFCURVE",
"267 -128 OFFCURVE",
"267 -99 CURVE",
"267 -50 OFFCURVE",
"316 -15 OFFCURVE",
"367 32 CURVE SMOOTH",
"408 70 OFFCURVE",
"445 112 OFFCURVE",
"445 188 CURVE",
"445 296 OFFCURVE",
"357 384 OFFCURVE",
"249 384 CURVE",
"141 384 OFFCURVE",
"55 296 OFFCURVE",
"55 188 CURVE",
"55 77 OFFCURVE",
"141 -6 OFFCURVE",
"249 -6 CURVE"
);
},
{
closed = 1;
nodes = (
"69 280 OFFCURVE",
"145 370 OFFCURVE",
"249 370 CURVE",
"349 370 OFFCURVE",
"430 288 OFFCURVE",
"430 188 CURVE",
"430 88 OFFCURVE",
"349 7 OFFCURVE",
"249 7 CURVE",
"149 7 OFFCURVE",
"69 88 OFFCURVE",
"69 188 CURVE"
);
}
);
width = 500;
},
{
background = {
paths = (
{
closed = 1;
nodes = (
"456 0 CURVE",
"298 0 LINE",
"243 -22 OFFCURVE",
"213 -69 OFFCURVE",
"213 -113 CURVE SMOOTH",
"213 -191 OFFCURVE",
"275 -226 OFFCURVE",
"357 -226 CURVE SMOOTH",
"414 -226 OFFCURVE",
"477 -193 OFFCURVE",
"497 -144 CURVE",
"427 -92 LINE",
"421 -110 OFFCURVE",
"399 -134 OFFCURVE",
"372 -134 CURVE SMOOTH",
"349 -134 OFFCURVE",
"328 -126 OFFCURVE",
"328 -92 CURVE SMOOTH",
"328 -53 OFFCURVE",
"380 -29 OFFCURVE"
);
},
{
closed = 1;
nodes = (
"42 76 OFFCURVE",
"146 -12 OFFCURVE",
"291 -12 CURVE",
"444 -12 OFFCURVE",
"537 90 OFFCURVE",
"537 224 CURVE",
"537 358 OFFCURVE",
"443 458 OFFCURVE",
"293 458 CURVE",
"144 458 OFFCURVE",
"42 358 OFFCURVE",
"42 224 CURVE"
);
},
{
closed = 1;
nodes = (
"183 292 OFFCURVE",
"228 344 OFFCURVE",
"289 344 CURVE",
"354 344 OFFCURVE",
"396 292 OFFCURVE",
"396 223 CURVE",
"396 154 OFFCURVE",
"354 102 OFFCURVE",
"289 102 CURVE",
"228 102 OFFCURVE",
"183 154 OFFCURVE",
"183 223 CURVE"
);
}
);
};
hints = (
{
horizontal = 1;
place = "{-9, 21}";
target = up;
type = BottomGhost;
},
{
horizontal = 1;
place = "{384, -20}";
target = down;
type = TopGhost;
}
);
layerId = UUID1;
paths = (
{
closed = 1;
nodes = (
"300 -12 OFFCURVE",
"326 -2 OFFCURVE",
"332 2 CURVE",
"298 10 LINE",
"243 -12 OFFCURVE",
"213 -59 OFFCURVE",
"213 -103 CURVE SMOOTH",
"213 -181 OFFCURVE",
"275 -226 OFFCURVE",
"357 -226 CURVE SMOOTH",
"414 -226 OFFCURVE",
"477 -193 OFFCURVE",
"497 -144 CURVE",
"427 -92 LINE",
"421 -110 OFFCURVE",
"399 -134 OFFCURVE",
"372 -134 CURVE SMOOTH",
"349 -134 OFFCURVE",
"328 -126 OFFCURVE",
"328 -83 CURVE SMOOTH",
"328 -48 OFFCURVE",
"359 -29 OFFCURVE",
"406 1 CURVE SMOOTH",
"484 51 OFFCURVE",
"537 128 OFFCURVE",
"537 224 CURVE",
"537 358 OFFCURVE",
"443 458 OFFCURVE",
"293 458 CURVE",
"144 458 OFFCURVE",
"42 358 OFFCURVE",
"42 224 CURVE",
"42 76 OFFCURVE",
"146 -12 OFFCURVE",
"291 -12 CURVE"
);
},
{
closed = 1;
nodes = (
"183 292 OFFCURVE",
"228 344 OFFCURVE",
"289 344 CURVE",
"354 344 OFFCURVE",
"396 292 OFFCURVE",
"396 223 CURVE",
"396 154 OFFCURVE",
"354 102 OFFCURVE",
"289 102 CURVE",
"228 102 OFFCURVE",
"183 154 OFFCURVE",
"183 223 CURVE"
);
}
);
width = 579;
}
);
unicode = 01EB;
},
{
glyphname = oslash;
lastChange = "2016-09-15 16:12:02 +0000";
layers = (
{
anchors = (
{
name = top;
position = "{239, 375}";
}
);
components = (
{
name = o;
}
);
hints = (
{
horizontal = 1;
place = "{17, 21}";
target = up;
type = BottomGhost;
},
{
horizontal = 1;
place = "{408, -20}";
target = down;
type = TopGhost;
}
);
layerId = UUID0;
paths = (
{
closed = 1;
nodes = (
"374 375 LINE",
"305 293 OFFCURVE",
"137 92 OFFCURVE",
"68 10 CURVE",
"76 0 LINE",
"145 83 OFFCURVE",
"314 283 OFFCURVE",
"383 366 CURVE"
);
}
);
width = 478;
},
{
anchors = (
{
name = top;
position = "{273, 437}";
}
);
components = (
{
name = o;
}
);
hints = (
{
horizontal = 1;
place = "{-26, 21}";
target = up;
type = BottomGhost;
},
{
horizontal = 1;
place = "{401, -20}";
target = down;
type = TopGhost;
}
);
layerId = UUID1;
paths = (
{
closed = 1;
nodes = (
"448 484 LINE",
"42 24 LINE",
"109 -37 LINE",
"518 426 LINE"
);
}
);
width = 546;
}
);
unicode = 00F8;
},
{
glyphname = oe;
lastChange = "2016-09-17 21:18:11 +0000";
layers = (
{
anchors = (
{
name = bottom;
position = "{332, 0}";
},
{
name = top;
position = "{332, 375}";
}
);
hints = (
{
horizontal = 1;
place = "{409, -20}";
target = down;
type = TopGhost;
},
{
horizontal = 1;
place = "{16, 21}";
target = up;
type = BottomGhost;
},
{
horizontal = 1;
place = "{19, 21}";
target = up;
type = BottomGhost;
},
{
horizontal = 1;
place = "{409, -20}";
target = down;
type = TopGhost;
}
);
layerId = UUID0;
paths = (
{
closed = 1;
nodes = (
"350 347 LINE",
"318 370 OFFCURVE",
"278 384 OFFCURVE",
"235 384 CURVE SMOOTH",
"127 384 OFFCURVE",
"41 296 OFFCURVE",
"41 188 CURVE SMOOTH",
"41 80 OFFCURVE",
"127 -6 OFFCURVE",
"235 -6 CURVE SMOOTH",
"279 -6 OFFCURVE",
"319 8 OFFCURVE",
"352 32 CURVE",
"338 40 LINE",
"309 20 OFFCURVE",
"273 8 OFFCURVE",
"235 8 CURVE SMOOTH",
"135 8 OFFCURVE",
"55 88 OFFCURVE",
"55 188 CURVE SMOOTH",
"55 288 OFFCURVE",
"135 369 OFFCURVE",
"235 369 CURVE SMOOTH",
"273 369 OFFCURVE",
"309 357 OFFCURVE",
"338 337 CURVE"
);
},
{
closed = 1;
nodes = (
"578 56 LINE",
"546 26 OFFCURVE",
"503 8 OFFCURVE",
"455 8 CURVE SMOOTH",
"378 8 OFFCURVE",
"313 55 OFFCURVE",
"287 122 CURVE",
"388 164 OFFCURVE",
"524 218 OFFCURVE",
"624 259 CURVE",
"595 330 OFFCURVE",
"537 384 OFFCURVE",
"455 384 CURVE SMOOTH",
"347 384 OFFCURVE",
"261 296 OFFCURVE",
"261 188 CURVE SMOOTH",
"261 80 OFFCURVE",
"347 -6 OFFCURVE",
"455 -6 CURVE SMOOTH",
"507 -6 OFFCURVE",
"554 14 OFFCURVE",
"589 46 CURVE"
);
},
{
closed = 1;
nodes = (
"605 266 LINE",
"506 225 OFFCURVE",
"380 176 OFFCURVE",
"282 135 CURVE",
"277 152 OFFCURVE",
"275 169 OFFCURVE",
"275 188 CURVE SMOOTH",
"275 288 OFFCURVE",
"355 369 OFFCURVE",
"455 369 CURVE SMOOTH",
"526 369 OFFCURVE",
"577 326 OFFCURVE",
"605 266 CURVE"
);
}
);
width = 663;
},
{
anchors = (
{
name = bottom;
position = "{430, 0}";
},
{
name = top;
position = "{430, 437}";
}
);
components = (
{
name = c;
},
{
alignment = -1;
name = e;
transform = "{1, 0, 0, 1, 302, 0}";
}
);
hints = (
{
horizontal = 1;
place = "{384, -20}";
target = down;
type = TopGhost;
},
{
horizontal = 1;
place = "{-9, 21}";
target = up;
type = BottomGhost;
},
{
horizontal = 1;
place = "{-9, 21}";
target = up;
type = BottomGhost;
},
{
horizontal = 1;
place = "{384, -20}";
target = down;
type = TopGhost;
}
);
layerId = UUID1;
width = 859;
}
);
leftMetricsKey = o;
rightMetricsKey = e;
unicode = 0153;
},
{
glyphname = p;
lastChange = "2016-09-17 18:58:32 +0000";
layers = (
{
anchors = (
{
name = bottom;
position = "{270, 0}";
},
{
name = top;
position = "{270, 375}";
}
);
hints = (
{
horizontal = 1;
place = "{406, -20}";
target = down;
type = TopGhost;
},
{
horizontal = 1;
place = "{-225, 21}";
target = up;
type = BottomGhost;
}
);
layerId = UUID0;
paths = (
{
closed = 1;
nodes = (
"398 -6 OFFCURVE",
"484 79 OFFCURVE",
"484 188 CURVE SMOOTH",
"484 296 OFFCURVE",
"398 383 OFFCURVE",
"290 383 CURVE SMOOTH",
"208 383 OFFCURVE",
"138 332 OFFCURVE",
"109 260 CURVE",
"109 231 LINE",
"109 375 LINE",
"95 375 LINE",
"95 -180 LINE",
"109 -180 LINE",
"109 54 LINE",
"108 117 LINE",
"136 45 OFFCURVE",
"207 -6 OFFCURVE",
"290 -6 CURVE SMOOTH"
);
},
{
closed = 1;
nodes = (
"192 7 OFFCURVE",
"112 86 OFFCURVE",
"109 183 CURVE",
"109 188 LINE",
"109 288 OFFCURVE",
"190 370 OFFCURVE",
"290 370 CURVE SMOOTH",
"390 370 OFFCURVE",
"470 289 OFFCURVE",
"470 188 CURVE SMOOTH",
"470 88 OFFCURVE",
"390 7 OFFCURVE",
"290 7 CURVE SMOOTH"
);
}
);
width = 539;
},
{
anchors = (
{
name = bottom;
position = "{316, 0}";
},
{
name = top;
position = "{316, 437}";
}
);
hints = (
{
horizontal = 1;
place = "{382, -20}";
target = down;
type = TopGhost;
},
{
horizontal = 1;
place = "{-250, 21}";
target = up;
type = BottomGhost;
}
);
layerId = UUID1;
paths = (
{
closed = 1;
nodes = (
"488 -12 OFFCURVE",
"589 72 OFFCURVE",
"589 220 CURVE",
"589 369 OFFCURVE",
"499 459 OFFCURVE",
"377 459 CURVE",
"304 459 OFFCURVE",
"249 430 OFFCURVE",
"204 392 CURVE",
"215 362 LINE",
"195 447 LINE",
"75 447 LINE",
"75 -210 LINE",
"214 -210 LINE",
"214 85 LINE",
"214 41 LINE",
"247 5 OFFCURVE",
"297 -12 OFFCURVE",
"349 -12 CURVE"
);
},
{
closed = 1;
nodes = (
"270 98 OFFCURVE",
"230 125 OFFCURVE",
"215 168 CURVE",
"215 275 LINE",
"239 319 OFFCURVE",
"275 341 OFFCURVE",
"331 341 CURVE",
"393 341 OFFCURVE",
"447 288 OFFCURVE",
"447 218 CURVE",
"447 148 OFFCURVE",
"388 98 OFFCURVE",
"321 98 CURVE"
);
}
);
width = 631;
}
);
leftMetricsKey = n;
rightMetricsKey = o;
unicode = 0070;
},
{
glyphname = thorn;
lastChange = "2016-09-17 21:18:48 +0000";
layers = (
{
anchors = (
{
name = bottom;
position = "{258, 0}";
},
{
name = top;
position = "{258, 375}";
}
);
hints = (
{
horizontal = 1;
place = "{775, -20}";
target = down;
type = TopGhost;
},
{
horizontal = 1;
place = "{-225, 21}";
target = up;
type = BottomGhost;
},
{
horizontal = 1;
place = "{406, -20}";
target = down;
type = TopGhost;
},
{
horizontal = 1;
place = "{-225, 21}";
target = up;
type = BottomGhost;
}
);
layerId = UUID0;
paths = (
{
closed = 1;
nodes = (
"85 750 LINE",
"85 -180 LINE",
"99 -180 LINE",
"99 54 LINE SMOOTH",
"99 75 OFFCURVE",
"98 96 OFFCURVE",
"98 117 CURVE",
"126 45 OFFCURVE",
"197 -6 OFFCURVE",
"280 -6 CURVE SMOOTH",
"388 -6 OFFCURVE",
"474 80 OFFCURVE",
"474 188 CURVE SMOOTH",
"474 188 LINE SMOOTH",
"474 296 OFFCURVE",
"388 383 OFFCURVE",
"280 383 CURVE SMOOTH",
"198 383 OFFCURVE",
"128 332 OFFCURVE",
"99 260 CURVE",
"99 298 OFFCURVE",
"99 750 OFFCURVE",
"99 750 CURVE"
);
},
{
closed = 1;
nodes = (
"460 188 LINE SMOOTH",
"460 88 OFFCURVE",
"380 8 OFFCURVE",
"280 8 CURVE SMOOTH",
"180 8 OFFCURVE",
"99 88 OFFCURVE",
"99 188 CURVE SMOOTH",
"99 288 OFFCURVE",
"180 369 OFFCURVE",
"280 369 CURVE SMOOTH",
"380 369 OFFCURVE",
"460 288 OFFCURVE",
"460 188 CURVE SMOOTH"
);
}
);
width = 515;
},
{
anchors = (
{
name = bottom;
position = "{313, 0}";
},
{
name = top;
position = "{313, 437}";
}
);
hints = (
{
horizontal = 1;
place = "{750, -20}";
target = down;
type = TopGhost;
},
{
horizontal = 1;
place = "{-250, 21}";
target = up;
type = BottomGhost;
},
{
horizontal = 1;
place = "{382, -20}";
target = down;
type = TopGhost;
},
{
horizontal = 1;
place = "{-250, 21}";
target = up;
type = BottomGhost;
}
);
layerId = UUID1;
paths = (
{
closed = 1;
nodes = (
"488 -12 OFFCURVE",
"589 72 OFFCURVE",
"589 220 CURVE",
"589 369 OFFCURVE",
"499 459 OFFCURVE",
"377 459 CURVE",
"304 459 OFFCURVE",
"249 430 OFFCURVE",
"204 392 CURVE",
"215 362 LINE",
"215 789 LINE",
"75 789 LINE",
"75 -210 LINE",
"214 -210 LINE",
"214 85 LINE",
"214 41 LINE",
"247 5 OFFCURVE",
"297 -12 OFFCURVE",
"349 -12 CURVE"
);
},
{
closed = 1;
nodes = (
"270 98 OFFCURVE",
"230 125 OFFCURVE",
"215 168 CURVE",
"215 275 LINE",
"239 319 OFFCURVE",
"275 341 OFFCURVE",
"331 341 CURVE",
"393 341 OFFCURVE",
"447 288 OFFCURVE",
"447 218 CURVE",
"447 148 OFFCURVE",
"388 98 OFFCURVE",
"321 98 CURVE"
);
}
);
width = 625;
}
);
unicode = 00FE;
},
{
glyphname = q;
lastChange = "2016-09-13 15:45:57 +0000";
layers = (
{
anchors = (
{
name = bottom;
position = "{270, 0}";
},
{
name = top;
position = "{270, 375}";
}
);
hints = (
{
horizontal = 1;
place = "{-225, 21}";
target = up;
type = BottomGhost;
},
{
horizontal = 1;
place = "{406, -20}";
target = down;
type = TopGhost;
}
);
layerId = UUID0;
paths = (
{
closed = 1;
nodes = (
"332 -6 OFFCURVE",
"403 45 OFFCURVE",
"431 117 CURVE",
"430 54 LINE",
"430 -180 LINE",
"444 -180 LINE",
"444 375 LINE",
"430 375 LINE",
"430 232 LINE",
"430 260 LINE",
"401 332 OFFCURVE",
"331 383 OFFCURVE",
"249 383 CURVE SMOOTH",
"141 383 OFFCURVE",
"55 297 OFFCURVE",
"55 188 CURVE SMOOTH",
"55 80 OFFCURVE",
"141 -6 OFFCURVE",
"249 -6 CURVE SMOOTH"
);
},
{
closed = 1;
nodes = (
"149 7 OFFCURVE",
"69 88 OFFCURVE",
"69 188 CURVE SMOOTH",
"69 289 OFFCURVE",
"149 370 OFFCURVE",
"249 370 CURVE SMOOTH",
"349 370 OFFCURVE",
"430 288 OFFCURVE",
"430 188 CURVE",
"430 180 LINE",
"426 84 OFFCURVE",
"346 7 OFFCURVE",
"249 7 CURVE SMOOTH"
);
}
);
width = 539;
},
{
anchors = (
{
name = bottom;
position = "{316, 0}";
},
{
name = top;
position = "{316, 437}";
}
);
hints = (
{
horizontal = 1;
place = "{-250, 21}";
target = up;
type = BottomGhost;
},
{
horizontal = 1;
place = "{382, -20}";
target = down;
type = TopGhost;
}
);
layerId = UUID1;
paths = (
{
closed = 1;
nodes = (
"324 -12 OFFCURVE",
"382 11 OFFCURVE",
"417 40 CURVE",
"417 85 LINE",
"417 -210 LINE",
"556 -210 LINE",
"556 447 LINE",
"416 447 LINE",
"416 362 LINE",
"427 392 LINE",
"390 432 OFFCURVE",
"344 459 OFFCURVE",
"269 459 CURVE",
"149 459 OFFCURVE",
"42 368 OFFCURVE",
"42 219 CURVE",
"42 71 OFFCURVE",
"137 -12 OFFCURVE",
"250 -12 CURVE"
);
},
{
closed = 1;
nodes = (
"238 98 OFFCURVE",
"184 148 OFFCURVE",
"184 218 CURVE",
"184 288 OFFCURVE",
"238 341 OFFCURVE",
"300 341 CURVE",
"356 341 OFFCURVE",
"392 319 OFFCURVE",
"416 275 CURVE",
"416 168 LINE",
"400 125 OFFCURVE",
"356 98 OFFCURVE",
"300 98 CURVE"
);
}
);
width = 631;
}
);
leftMetricsKey = o;
rightMetricsKey = n;
unicode = 0071;
},
{
glyphname = r;
lastChange = "2016-09-15 16:13:21 +0000";
layers = (
{
anchors = (
{
name = bottom;
position = "{159, 0}";
},
{
name = top;
position = "{159, 375}";
}
);
hints = (
{
horizontal = 1;
place = "{407, -20}";
target = down;
type = TopGhost;
},
{
horizontal = 1;
place = "{25, 21}";
target = up;
type = BottomGhost;
}
);
layerId = UUID0;
paths = (
{
closed = 1;
nodes = (
"95 375 LINE",
"95 0 LINE",
"109 0 LINE",
"109 220 LINE SMOOTH",
"109 307 OFFCURVE",
"185 366 OFFCURVE",
"272 369 CURVE",
"272 382 LINE",
"197 380 OFFCURVE",
"128 339 OFFCURVE",
"106 268 CURVE",
"105 375 LINE"
);
}
);
width = 317;
},
{
anchors = (
{
name = bottom;
position = "{130, 0}";
},
{
name = top;
position = "{197, 437}";
}
);
hints = (
{
horizontal = 1;
place = "{383, -20}";
target = down;
type = TopGhost;
},
{
horizontal = 1;
place = "{0, 21}";
target = up;
type = BottomGhost;
}
);
layerId = UUID1;
paths = (
{
closed = 1;
nodes = (
"75 437 LINE",
"75 0 LINE",
"214 0 LINE",
"214 171 LINE",
"214 247 OFFCURVE",
"273 330 OFFCURVE",
"371 319 CURVE",
"378 459 LINE",
"343 459 OFFCURVE",
"249 412 OFFCURVE",
"211 335 CURVE",
"201 437 LINE"
);
}
);
width = 413;
}
);
leftMetricsKey = n;
unicode = 0072;
},
{
glyphname = s;
lastChange = "2016-09-17 23:57:41 +0000";
layers = (
{
anchors = (
{
name = bottom;
position = "{170, 0}";
},
{
name = top;
position = "{170, 375}";
}
);
hints = (
{
place = "{124, 240}";
},
{
horizontal = 1;
place = "{404, -20}";
target = down;
type = TopGhost;
},
{
horizontal = 1;
place = "{17, 21}";
target = up;
type = BottomGhost;
}
);
layerId = UUID0;
paths = (
{
closed = 1;
nodes = (
"244 -8 OFFCURVE",
"284 35 OFFCURVE",
"284 100 CURVE SMOOTH",
"284 169 OFFCURVE",
"222 185 OFFCURVE",
"167 204 CURVE SMOOTH",
"123 220 OFFCURVE",
"83 238 OFFCURVE",
"83 287 CURVE SMOOTH",
"83 343 OFFCURVE",
"134 366 OFFCURVE",
"169 366 CURVE SMOOTH",
"196 366 OFFCURVE",
"238 354 OFFCURVE",
"260 327 CURVE",
"269 336 LINE",
"241 368 OFFCURVE",
"198 379 OFFCURVE",
"169 379 CURVE SMOOTH",
"120 379 OFFCURVE",
"69 349 OFFCURVE",
"69 286 CURVE SMOOTH",
"69 227 OFFCURVE",
"114 207 OFFCURVE",
"162 191 CURVE SMOOTH",
"215 173 OFFCURVE",
"270 158 OFFCURVE",
"270 96 CURVE SMOOTH",
"270 27 OFFCURVE",
"218 5 OFFCURVE",
"170 5 CURVE SMOOTH",
"124 5 OFFCURVE",
"84 23 OFFCURVE",
"65 47 CURVE",
"55 39 LINE",
"83 4 OFFCURVE",
"133 -8 OFFCURVE",
"169 -8 CURVE SMOOTH"
);
}
);
width = 339;
},
{
anchors = (
{
name = bottom;
position = "{214, -10}";
},
{
name = top;
position = "{220, 447}";
}
);
hints = (
{
place = "{62, 243}";
},
{
horizontal = 1;
place = "{384, -20}";
target = down;
type = TopGhost;
},
{
horizontal = 1;
place = "{-8, 21}";
target = up;
type = BottomGhost;
}
);
layerId = UUID1;
paths = (
{
closed = 1;
nodes = (
"336 -9 OFFCURVE",
"397 65 OFFCURVE",
"397 146 CURVE",
"397 211 OFFCURVE",
"357 249 OFFCURVE",
"294 270 CURVE",
"247 285 OFFCURVE",
"191 292 OFFCURVE",
"193 331 CURVE",
"193 349 OFFCURVE",
"214 366 OFFCURVE",
"250 365 CURVE",
"277 364 OFFCURVE",
"311 348 OFFCURVE",
"336 328 CURVE",
"389 410 LINE",
"343 443 OFFCURVE",
"297 457 OFFCURVE",
"224 457 CURVE",
"101 457 OFFCURVE",
"51 378 OFFCURVE",
"51 312 CURVE",
"51 254 OFFCURVE",
"84 202 OFFCURVE",
"164 177 CURVE",
"211 163 OFFCURVE",
"257 154 OFFCURVE",
"257 120 CURVE",
"257 96 OFFCURVE",
"231 86 OFFCURVE",
"197 86 CURVE",
"168 86 OFFCURVE",
"130 101 OFFCURVE",
"88 140 CURVE",
"30 63 LINE",
"72 17 OFFCURVE",
"137 -9 OFFCURVE",
"209 -9 CURVE"
);
}
);
width = 422;
}
);
unicode = 0073;
},
{
glyphname = germandbls;
lastChange = "2016-09-15 16:09:27 +0000";
layers = (
{
anchors = (
{
name = bottom;
position = "{270, 0}";
},
{
name = top;
position = "{270, 375}";
}
);
hints = (
{
place = "{432, 103}";
},
{
horizontal = 1;
place = "{17, 21}";
target = up;
type = BottomGhost;
},
{
horizontal = 1;
place = "{683, -20}";
target = down;
type = TopGhost;
}
);
layerId = UUID0;
paths = (
{
closed = 1;
nodes = (
"101 384 LINE",
"36 384 LINE",
"36 370 LINE",
"101 370 LINE",
"101 0 LINE",
"115 0 LINE",
"115 430 LINE SMOOTH",
"115 559 OFFCURVE",
"170 644 OFFCURVE",
"276 644 CURVE SMOOTH",
"368 644 OFFCURVE",
"412 580 OFFCURVE",
"412 515 CURVE SMOOTH",
"412 442 OFFCURVE",
"355 396 OFFCURVE",
"286 396 CURVE",
"286 388 LINE SMOOTH",
"286 385 OFFCURVE",
"286 383 OFFCURVE",
"286 381 CURVE",
"286 381 LINE",
"391 381 OFFCURVE",
"476 296 OFFCURVE",
"476 195 CURVE SMOOTH",
"476 93 OFFCURVE",
"389 5 OFFCURVE",
"283 5 CURVE SMOOTH",
"247 5 OFFCURVE",
"213 15 OFFCURVE",
"185 33 CURVE",
"183 29 OFFCURVE",
"181 26 OFFCURVE",
"179 22 CURVE",
"179 22 LINE",
"210 3 OFFCURVE",
"246 -8 OFFCURVE",
"285 -8 CURVE SMOOTH",
"397 -8 OFFCURVE",
"490 83 OFFCURVE",
"490 195 CURVE SMOOTH",
"490 290 OFFCURVE",
"423 368 OFFCURVE",
"334 389 CURVE",
"390 410 OFFCURVE",
"426 453 OFFCURVE",
"426 520 CURVE SMOOTH",
"426 587 OFFCURVE",
"391 656 OFFCURVE",
"266 658 CURVE",
"165 654 OFFCURVE",
"101 574 OFFCURVE",
"101 426 CURVE SMOOTH"
);
}
);
width = 540;
},
{
hints = (
{
place = "{360, 142}";
},
{
horizontal = 1;
place = "{-9, 21}";
target = up;
type = BottomGhost;
},
{
horizontal = 1;
place = "{657, -20}";
target = down;
type = TopGhost;
}
);
layerId = UUID1;
paths = (
{
closed = 1;
nodes = (
"105 441 LINE",
"40 441 LINE",
"40 327 LINE",
"105 327 LINE",
"105 0 LINE",
"245 0 LINE",
"245 419 LINE SMOOTH",
"245 508 OFFCURVE",
"263 556 OFFCURVE",
"330 556 CURVE SMOOTH",
"374 556 OFFCURVE",
"400 536 OFFCURVE",
"400 496 CURVE SMOOTH",
"400 467 OFFCURVE",
"379 447 OFFCURVE",
"345 447 CURVE",
"346 326 LINE",
"352 326 LINE",
"409 328 OFFCURVE",
"440 287 OFFCURVE",
"440 205 CURVE SMOOTH",
"440 142 OFFCURVE",
"425 94 OFFCURVE",
"380 94 CURVE SMOOTH",
"357 94 OFFCURVE",
"339 104 OFFCURVE",
"308 124 CURVE",
"268 29 LINE",
"281 13 OFFCURVE",
"322 -10 OFFCURVE",
"386 -10 CURVE SMOOTH",
"503 -10 OFFCURVE",
"581 54 OFFCURVE",
"581 197 CURVE SMOOTH",
"581 316 OFFCURVE",
"539 368 OFFCURVE",
"477 398 CURVE",
"522 423 OFFCURVE",
"541 475 OFFCURVE",
"541 527 CURVE SMOOTH",
"541 607 OFFCURVE",
"465 670 OFFCURVE",
"329 670 CURVE",
"212 672 OFFCURVE",
"105 594 OFFCURVE",
"105 468 CURVE SMOOTH"
);
}
);
width = 606;
}
);
leftMetricsKey = f;
rightMetricsKey = s;
unicode = 00DF;
},
{
glyphname = t;
lastChange = "2016-09-14 16:37:41 +0000";
layers = (
{
anchors = (
{
name = bottom;
position = "{153, 0}";
},
{
name = center;
position = "{153, 188}";
},
{
name = top;
position = "{153, 375}";
},
{
name = topright;
position = "{275, 375}";
}
);
hints = (
{
horizontal = 1;
place = "{25, 21}";
target = up;
type = BottomGhost;
},
{
horizontal = 1;
place = "{644, -20}";
target = down;
type = TopGhost;
}
);
layerId = UUID0;
paths = (
{
closed = 1;
nodes = (
"134 367 LINE",
"45 367 LINE",
"45 354 LINE",
"134 354 LINE",
"134 0 LINE",
"148 0 LINE",
"148 354 LINE",
"275 354 LINE",
"275 367 LINE",
"148 367 LINE",
"148 539 LINE",
"134 539 LINE"
);
}
);
width = 300;
},
{
anchors = (
{
name = bottom;
position = "{176, 0}";
},
{
name = center;
position = "{187, 219}";
},
{
name = top;
position = "{187, 437}";
},
{
name = topright;
position = "{374, 437}";
}
);
hints = (
{
horizontal = 1;
place = "{0, 21}";
target = up;
type = BottomGhost;
},
{
horizontal = 1;
place = "{619, -20}";
target = down;
type = TopGhost;
}
);
layerId = UUID1;
paths = (
{
closed = 1;
nodes = (
"113 439 LINE",
"45 439 LINE",
"45 330 LINE",
"113 330 LINE",
"113 0 LINE",
"253 0 LINE",
"253 330 LINE",
"359 330 LINE",
"359 439 LINE",
"253 439 LINE",
"253 629 LINE",
"113 629 LINE"
);
}
);
width = 394;
}
);
unicode = 0074;
},
{
glyphname = u;
lastChange = "2016-09-17 23:58:10 +0000";
layers = (
{
anchors = (
{
name = bottom;
position = "{241, 0}";
},
{
name = ogonek;
position = "{430, 10}";
},
{
name = top;
position = "{241, 375}";
},
{
name = topright;
position = "{457, 375}";
}
);
hints = (
{
horizontal = 1;
place = "{400, -20}";
target = down;
type = TopGhost;
},
{
horizontal = 1;
place = "{18, 21}";
target = up;
type = BottomGhost;
}
);
layerId = UUID0;
paths = (
{
closed = 1;
nodes = (
"285 -7 OFFCURVE",
"357 46 OFFCURVE",
"374 109 CURVE",
"376 0 LINE",
"387 0 LINE",
"387 375 LINE",
"373 375 LINE",
"373 155 LINE SMOOTH",
"373 69 OFFCURVE",
"294 6 OFFCURVE",
"212 6 CURVE",
"146 9 OFFCURVE",
"111 50 OFFCURVE",
"109 98 CURVE",
"109 375 LINE",
"95 375 LINE",
"95 105 LINE",
"97 39 OFFCURVE",
"141 -7 OFFCURVE",
"211 -7 CURVE SMOOTH"
);
}
);
width = 482;
},
{
anchors = (
{
name = bottom;
position = "{295, 0}";
},
{
name = ogonek;
position = "{611, 10}";
},
{
name = top;
position = "{297, 457}";
},
{
name = topright;
position = "{510, 437}";
}
);
hints = (
{
horizontal = 1;
place = "{375, -20}";
target = down;
type = TopGhost;
},
{
horizontal = 1;
place = "{-9, 21}";
target = up;
type = BottomGhost;
}
);
layerId = UUID1;
paths = (
{
closed = 1;
nodes = (
"294 -21 OFFCURVE",
"348 16 OFFCURVE",
"378 71 CURVE",
"388 0 LINE",
"515 0 LINE",
"515 437 LINE",
"375 437 LINE",
"375 259 LINE",
"375 166 OFFCURVE",
"336 98 OFFCURVE",
"274 98 CURVE",
"233 98 OFFCURVE",
"217 123 OFFCURVE",
"215 162 CURVE",
"215 437 LINE",
"75 437 LINE",
"75 110 LINE",
"77 33 OFFCURVE",
"137 -21 OFFCURVE",
"216 -21 CURVE"
);
}
);
width = 590;
}
);
leftMetricsKey = n;
rightMetricsKey = n;
unicode = 0075;
},
{
glyphname = uogonek;
lastChange = "2016-09-15 16:10:26 +0000";
layers = (
{
components = (
{
name = u;
},
{
name = ogonek;
transform = "{1, 0, 0, 1, 155, 0}";
}
);
layerId = UUID0;
width = 462;
},
{
anchors = (
{
name = _ogonek;
position = "{611, 10}";
}
);
components = (
{
name = u;
}
);
layerId = UUID1;
paths = (
{
closed = 1;
nodes = (
"515 0 CURVE",
"466 23 LINE",
"388 10 LINE",
"333 -12 OFFCURVE",
"303 -59 OFFCURVE",
"303 -103 CURVE SMOOTH",
"303 -181 OFFCURVE",
"365 -226 OFFCURVE",
"447 -226 CURVE SMOOTH",
"504 -226 OFFCURVE",
"567 -193 OFFCURVE",
"587 -144 CURVE",
"517 -92 LINE",
"511 -110 OFFCURVE",
"489 -134 OFFCURVE",
"462 -134 CURVE SMOOTH",
"439 -134 OFFCURVE",
"418 -126 OFFCURVE",
"418 -92 CURVE SMOOTH",
"418 -48 OFFCURVE",
"457 -25 OFFCURVE"
);
}
);
width = 590;
}
);
unicode = 0173;
},
{
glyphname = uring;
lastChange = "2016-09-17 23:58:12 +0000";
layers = (
{
components = (
{
name = u;
}
);
layerId = UUID0;
paths = (
{
closed = 1;
nodes = (
"173 469 LINE SMOOTH",
"173 433 OFFCURVE",
"200 406 OFFCURVE",
"236 406 CURVE SMOOTH",
"272 406 OFFCURVE",
"299 433 OFFCURVE",
"299 469 CURVE SMOOTH",
"299 505 OFFCURVE",
"272 532 OFFCURVE",
"236 532 CURVE SMOOTH",
"200 532 OFFCURVE",
"173 505 OFFCURVE",
"173 469 CURVE SMOOTH"
);
},
{
closed = 1;
nodes = (
"187 469 LINE SMOOTH",
"187 495 OFFCURVE",
"210 518 OFFCURVE",
"236 518 CURVE SMOOTH",
"262 518 OFFCURVE",
"285 495 OFFCURVE",
"285 469 CURVE SMOOTH",
"285 443 OFFCURVE",
"262 420 OFFCURVE",
"236 420 CURVE SMOOTH",
"210 420 OFFCURVE",
"187 443 OFFCURVE",
"187 469 CURVE SMOOTH"
);
}
);
width = 462;
},
{
components = (
{
name = u;
},
{
name = ringcomb;
transform = "{1, 0, 0, 1, 121, 20}";
}
);
layerId = UUID1;
width = 590;
}
);
unicode = 016F;
},
{
glyphname = v;
lastChange = "2016-09-13 15:45:57 +0000";
layers = (
{
anchors = (
{
name = bottom;
position = "{213, 0}";
},
{
name = top;
position = "{213, 375}";
}
);
hints = (
{
horizontal = 1;
place = "{2, 21}";
target = up;
type = BottomGhost;
},
{
horizontal = 1;
place = "{400, -20}";
target = down;
type = TopGhost;
}
);
layerId = UUID0;
paths = (
{
closed = 1;
nodes = (
"216 -17 LINE",
"391 375 LINE",
"376 375 LINE",
"209 0 LINE",
"217 0 LINE",
"50 375 LINE",
"35 375 LINE",
"210 -17 LINE"
);
}
);
width = 426;
},
{
anchors = (
{
name = bottom;
position = "{267, 0}";
},
{
name = top;
position = "{267, 437}";
}
);
hints = (
{
horizontal = 1;
place = "{-23, 21}";
target = up;
type = BottomGhost;
},
{
horizontal = 1;
place = "{375, -20}";
target = down;
type = TopGhost;
}
);
layerId = UUID1;
paths = (
{
closed = 1;
nodes = (
"276 -9 LINE",
"524 437 LINE",
"368 437 LINE",
"239 138 LINE",
"325 135 LINE",
"176 437 LINE",
"10 437 LINE",
"272 -9 LINE"
);
}
);
width = 534;
}
);
unicode = 0076;
},
{
glyphname = w;
lastChange = "2016-09-17 23:10:49 +0000";
layers = (
{
anchors = (
{
name = bottom;
position = "{329, 0}";
},
{
name = top;
position = "{329, 375}";
}
);
hints = (
{
horizontal = 1;
place = "{400, -20}";
target = down;
type = TopGhost;
},
{
horizontal = 1;
place = "{2, 21}";
target = up;
type = BottomGhost;
}
);
layerId = UUID0;
paths = (
{
closed = 1;
nodes = (
"267 375 LINE",
"316 266 LINE",
"316 266 LINE",
"211 4 LINE",
"217 0 LINE",
"50 375 LINE",
"35 375 LINE",
"213 -23 LINE",
"324 251 LINE",
"445 -23 LINE",
"623 375 LINE",
"608 375 LINE",
"443 2 LINE",
"449 2 LINE",
"282 375 LINE"
);
}
);
width = 658;
},
{
anchors = (
{
name = bottom;
position = "{342, 0}";
},
{
name = top;
position = "{342, 437}";
}
);
hints = (
{
horizontal = 1;
place = "{375, -20}";
target = down;
type = TopGhost;
},
{
horizontal = 1;
place = "{-23, 21}";
target = up;
type = BottomGhost;
}
);
layerId = UUID1;
paths = (
{
closed = 1;
nodes = (
"265 437 LINE",
"288 387 LINE",
"288 387 LINE",
"204 201 LINE",
"252 194 LINE",
"146 437 LINE",
"10 437 LINE",
"209 -26 LINE",
"337 264 LINE",
"477 -26 LINE",
"674 437 LINE",
"538 437 LINE",
"454 210 LINE",
"480 212 LINE",
"384 437 LINE"
);
}
);
width = 684;
}
);
leftMetricsKey = v;
rightMetricsKey = v;
unicode = 0077;
},
{
glyphname = x;
lastChange = "2016-09-13 20:06:47 +0000";
layers = (
{
anchors = (
{
name = bottom;
position = "{181, 0}";
},
{
name = top;
position = "{181, 375}";
}
);
hints = (
{
horizontal = 1;
place = "{25, 21}";
target = up;
type = BottomGhost;
},
{
horizontal = 1;
place = "{399, -20}";
target = down;
type = TopGhost;
},
{
horizontal = 1;
place = "{400, -20}";
target = down;
type = TopGhost;
}
);
layerId = UUID0;
paths = (
{
closed = 1;
nodes = (
"190 183 LINE",
"325 374 LINE",
"308 374 LINE",
"180 194 LINE"
);
},
{
closed = 1;
nodes = (
"53 375 LINE",
"35 375 LINE",
"311 0 LINE",
"327 0 LINE"
);
},
{
closed = 1;
nodes = (
"173 187 LINE",
"39 0 LINE",
"57 0 LINE",
"185 178 LINE"
);
}
);
width = 362;
},
{
anchors = (
{
name = bottom;
position = "{256, 0}";
},
{
name = top;
position = "{256, 437}";
}
);
hints = (
{
horizontal = 1;
place = "{0, 21}";
target = up;
type = BottomGhost;
},
{
horizontal = 1;
place = "{375, -20}";
target = down;
type = TopGhost;
},
{
horizontal = 1;
place = "{375, -20}";
target = down;
type = TopGhost;
}
);
layerId = UUID1;
paths = (
{
closed = 1;
nodes = (
"319 197 LINE",
"492 437 LINE",
"353 437 LINE",
"270 298 LINE"
);
},
{
closed = 1;
nodes = (
"182 437 LINE",
"10 437 LINE",
"347 0 LINE",
"516 0 LINE"
);
},
{
closed = 1;
nodes = (
"188 234 LINE",
"15 0 LINE",
"154 0 LINE",
"252 140 LINE"
);
}
);
width = 526;
}
);
unicode = 0078;
},
{
glyphname = y;
lastChange = "2016-09-15 16:20:35 +0000";
layers = (
{
anchors = (
{
name = bottom;
position = "{213, 0}";
},
{
name = top;
position = "{213, 375}";
}
);
hints = (
{
horizontal = 1;
place = "{-225, 21}";
target = up;
type = BottomGhost;
},
{
horizontal = 1;
place = "{400, -20}";
target = down;
type = TopGhost;
}
);
layerId = UUID0;
paths = (
{
closed = 1;
nodes = (
"150 -180 LINE",
"391 375 LINE",
"374 375 LINE",
"131 -180 LINE"
);
},
{
closed = 1;
nodes = (
"221 4 LINE",
"50 375 LINE",
"35 375 LINE",
"209 -5 LINE"
);
}
);
width = 426;
},
{
anchors = (
{
name = bottom;
position = "{437, -10}";
},
{
name = top;
position = "{277, 437}";
}
);
hints = (
{
horizontal = 1;
place = "{-250, 21}";
target = up;
type = BottomGhost;
},
{
horizontal = 1;
place = "{375, -20}";
target = down;
type = TopGhost;
}
);
layerId = UUID1;
paths = (
{
closed = 1;
nodes = (
"242 -210 LINE",
"524 437 LINE",
"398 437 LINE",
"107 -210 LINE"
);
},
{
closed = 1;
nodes = (
"332 68 LINE",
"167 437 LINE",
"10 437 LINE",
"224 -2 LINE"
);
}
);
width = 534;
}
);
leftMetricsKey = v;
rightMetricsKey = v;
unicode = 0079;
},
{
glyphname = z;
lastChange = "2016-09-13 16:24:05 +0000";
layers = (
{
anchors = (
{
name = bottom;
position = "{212, 0}";
},
{
name = top;
position = "{212, 375}";
}
);
hints = (
{
horizontal = 1;
place = "{430, -20}";
target = down;
type = TopGhost;
},
{
horizontal = 1;
place = "{25, 21}";
target = up;
type = BottomGhost;
}
);
layerId = UUID0;
paths = (
{
closed = 1;
nodes = (
"351 362 LINE",
"345 366 LINE",
"85 0 LINE",
"364 0 LINE",
"364 13 LINE",
"106 13 LINE",
"110 10 LINE",
"369 375 LINE",
"124 375 LINE SMOOTH",
"102 375 OFFCURVE",
"91 386 OFFCURVE",
"91 398 CURVE SMOOTH",
"91 410 LINE",
"78 410 LINE",
"78 406 LINE SMOOTH",
"78 368 OFFCURVE",
"97 362 OFFCURVE",
"127 362 CURVE SMOOTH"
);
}
);
width = 424;
},
{
anchors = (
{
name = bottom;
position = "{261, 0}";
},
{
name = top;
position = "{261, 437}";
}
);
hints = (
{
horizontal = 1;
place = "{405, -20}";
target = down;
type = TopGhost;
},
{
horizontal = 1;
place = "{0, 21}";
target = up;
type = BottomGhost;
}
);
layerId = UUID1;
paths = (
{
closed = 1;
nodes = (
"290 323 LINE",
"269 363 LINE",
"20 0 LINE",
"463 0 LINE",
"463 114 LINE",
"198 114 LINE",
"224 85 LINE",
"466 437 LINE",
"189 437 LINE SMOOTH",
"164 437 OFFCURVE",
"155 437 OFFCURVE",
"155 465 CURVE SMOOTH",
"155 479 LINE",
"50 479 LINE",
"50 419 LINE SMOOTH",
"50 360 OFFCURVE",
"92 323 OFFCURVE",
"140 323 CURVE SMOOTH"
);
}
);
width = 522;
}
);
unicode = 007A;
},
{
glyphname = f_f;
lastChange = "2016-09-14 16:39:21 +0000";
layers = (
{
components = (
{
name = f;
},
{
name = f;
transform = "{1, 0, 0, 1, 284, 0}";
}
);
layerId = UUID0;
width = 568;
},
{
background = {
paths = (
{
closed = 1;
nodes = (
"115 437 LINE",
"115 0 LINE",
"255 0 LINE",
"255 178 LINE",
"255 271 OFFCURVE",
"296 339 OFFCURVE",
"361 339 CURVE",
"406 339 OFFCURVE",
"423 314 OFFCURVE",
"425 275 CURVE",
"425 0 LINE",
"565 0 LINE",
"565 327 LINE",
"563 404 OFFCURVE",
"501 458 OFFCURVE",
"419 458 CURVE",
"338 458 OFFCURVE",
"283 421 OFFCURVE",
"252 366 CURVE",
"242 437 LINE"
);
}
);
};
components = (
{
name = f;
},
{
alignment = -1;
name = f;
transform = "{1, 0, 0, 1, 313, 0}";
}
);
layerId = UUID1;
width = 748;
}
);
leftMetricsKey = f;
rightMetricsKey = f;
},
{
glyphname = f_f_i;
lastChange = "2016-09-15 15:05:40 +0000";
layers = (
{
components = (
{
name = f_f;
},
{
name = i;
transform = "{1, 0, 0, 1, 568, 0}";
}
);
layerId = UUID0;
width = 798;
},
{
background = {
paths = (
{
closed = 1;
nodes = (
"429 437 LINE",
"429 0 LINE",
"569 0 LINE",
"569 178 LINE",
"569 271 OFFCURVE",
"610 339 OFFCURVE",
"675 339 CURVE",
"720 339 OFFCURVE",
"737 314 OFFCURVE",
"739 275 CURVE",
"739 0 LINE",
"879 0 LINE",
"879 327 LINE",
"877 404 OFFCURVE",
"815 458 OFFCURVE",
"733 458 CURVE",
"652 458 OFFCURVE",
"597 421 OFFCURVE",
"566 366 CURVE",
"556 437 LINE"
);
}
);
};
components = (
{
name = f_f;
},
{
alignment = -1;
name = i;
transform = "{1, 0, 0, 1, 665, 0}";
}
);
hints = (
{
horizontal = 1;
place = "{0, 21}";
target = up;
type = BottomGhost;
},
{
horizontal = 1;
place = "{751, -20}";
target = down;
type = TopGhost;
}
);
layerId = UUID1;
width = 955;
}
);
leftMetricsKey = f;
rightMetricsKey = i;
},
{
glyphname = f_f_ij;
lastChange = "2016-09-14 16:42:07 +0000";
layers = (
{
components = (
{
name = f;
},
{
name = f_ij;
transform = "{1, 0, 0, 1, 284, 0}";
}
);
layerId = UUID0;
width = 1025;
},
{
background = {
paths = (
{
closed = 1;
nodes = (
"116 437 LINE",
"116 0 LINE",
"256 0 LINE",
"256 178 LINE",
"256 271 OFFCURVE",
"297 339 OFFCURVE",
"362 339 CURVE",
"407 339 OFFCURVE",
"424 314 OFFCURVE",
"426 275 CURVE",
"426 0 LINE",
"566 0 LINE",
"566 327 LINE",
"564 404 OFFCURVE",
"502 458 OFFCURVE",
"420 458 CURVE",
"339 458 OFFCURVE",
"284 421 OFFCURVE",
"253 366 CURVE",
"243 437 LINE"
);
}
);
};
components = (
{
name = f;
},
{
alignment = -1;
name = f_ij;
transform = "{1, 0, 0, 1, 312, 0}";
}
);
layerId = UUID1;
width = 1272;
}
);
leftMetricsKey = f;
rightMetricsKey = ij;
},
{
glyphname = f_ij;
lastChange = "2016-09-14 16:41:39 +0000";
layers = (
{
components = (
{
name = f;
},
{
name = ij;
transform = "{1, 0, 0, 1, 284, 0}";
}
);
layerId = UUID0;
width = 741;
},
{
background = {
paths = (
{
closed = 1;
nodes = (
"115 437 LINE",
"115 0 LINE",
"255 0 LINE",
"255 178 LINE",
"255 271 OFFCURVE",
"296 339 OFFCURVE",
"361 339 CURVE",
"406 339 OFFCURVE",
"423 314 OFFCURVE",
"425 275 CURVE",
"425 0 LINE",
"565 0 LINE",
"565 327 LINE",
"563 404 OFFCURVE",
"501 458 OFFCURVE",
"419 458 CURVE",
"338 458 OFFCURVE",
"283 421 OFFCURVE",
"252 366 CURVE",
"242 437 LINE"
);
}
);
};
components = (
{
name = f;
},
{
alignment = -1;
name = ij;
transform = "{1, 0, 0, 1, 350, 0}";
}
);
layerId = UUID1;
width = 960;
}
);
leftMetricsKey = f;
rightMetricsKey = ij;
},
{
glyphname = fi;
lastChange = "2016-09-15 15:04:54 +0000";
layers = (
{
hints = (
{
horizontal = 1;
place = "{0, 21}";
target = up;
type = BottomGhost;
},
{
horizontal = 1;
place = "{520, -20}";
target = down;
type = TopGhost;
},
{
horizontal = 1;
place = "{0, 21}";
target = up;
type = BottomGhost;
},
{
horizontal = 1;
place = "{750, -20}";
target = down;
type = TopGhost;
}
);
layerId = UUID0;
paths = (
{
closed = 1;
nodes = (
"95 375 LINE",
"30 375 LINE",
"30 361 LINE",
"95 361 LINE",
"95 0 LINE",
"109 0 LINE",
"109 361 LINE",
"369 361 LINE",
"369 375 LINE",
"109 375 LINE",
"109 522 LINE SMOOTH",
"109 653 OFFCURVE",
"189 736 OFFCURVE",
"280 736 CURVE",
"280 750 LINE",
"179 746 OFFCURVE",
"95 666 OFFCURVE",
"95 518 CURVE SMOOTH"
);
},
{
closed = 1;
nodes = (
"360 0 LINE",
"374 0 LINE",
"374 375 LINE",
"360 375 LINE"
);
}
);
width = 454;
},
{
anchors = (
{
name = bottom;
position = "{218, 0}";
},
{
name = top;
position = "{218, 437}";
}
);
background = {
paths = (
{
closed = 1;
nodes = (
"115 437 LINE",
"115 0 LINE",
"255 0 LINE",
"255 178 LINE",
"255 271 OFFCURVE",
"296 339 OFFCURVE",
"361 339 CURVE",
"406 339 OFFCURVE",
"423 314 OFFCURVE",
"425 275 CURVE",
"425 0 LINE",
"565 0 LINE",
"565 327 LINE",
"563 404 OFFCURVE",
"501 458 OFFCURVE",
"419 458 CURVE",
"338 458 OFFCURVE",
"283 421 OFFCURVE",
"252 366 CURVE",
"242 437 LINE"
);
}
);
};
components = (
{
alignment = -1;
name = i;
transform = "{1, 0, 0, 1, 350, 0}";
}
);
hints = (
{
horizontal = 1;
place = "{0, 21}";
target = up;
type = BottomGhost;
},
{
horizontal = 1;
place = "{573, -20}";
target = down;
type = TopGhost;
},
{
horizontal = 1;
place = "{0, 21}";
target = up;
type = BottomGhost;
},
{
horizontal = 1;
place = "{751, -20}";
target = down;
type = TopGhost;
},
{
horizontal = 1;
place = "{0, 21}";
target = up;
type = BottomGhost;
},
{
horizontal = 1;
place = "{751, -20}";
target = down;
type = TopGhost;
}
);
layerId = UUID1;
paths = (
{
closed = 1;
nodes = (
"254 0 LINE",
"254 315 LINE",
"366 315 LINE",
"366 439 LINE",
"254 439 LINE",
"254 587 LINE",
"254 645 OFFCURVE",
"282 671 OFFCURVE",
"322 671 CURVE",
"338 671 OFFCURVE",
"357 666 OFFCURVE",
"371 649 CURVE",
"430 750 LINE",
"395 775 OFFCURVE",
"344 786 OFFCURVE",
"307 786 CURVE",
"182 786 OFFCURVE",
"114 705 OFFCURVE",
"114 591 CURVE",
"114 439 LINE",
"40 439 LINE",
"40 315 LINE",
"114 315 LINE",
"114 0 LINE"
);
}
);
width = 640;
}
);
leftMetricsKey = f;
rightMetricsKey = i;
unicode = FB01;
},
{
glyphname = fl;
lastChange = "2016-09-15 15:05:05 +0000";
layers = (
{
hints = (
{
horizontal = 1;
place = "{750, -20}";
target = down;
type = TopGhost;
},
{
horizontal = 1;
place = "{0, 21}";
target = up;
type = BottomGhost;
},
{
horizontal = 1;
place = "{0, 21}";
target = up;
type = BottomGhost;
},
{
horizontal = 1;
place = "{750, -20}";
target = down;
type = TopGhost;
}
);
layerId = UUID0;
paths = (
{
closed = 1;
nodes = (
"95 372 LINE",
"30 372 LINE",
"30 358 LINE",
"95 358 LINE",
"95 0 LINE",
"109 0 LINE",
"109 358 LINE",
"239 358 LINE",
"239 372 LINE",
"109 372 LINE",
"109 522 LINE SMOOTH",
"109 653 OFFCURVE",
"189 736 OFFCURVE",
"280 736 CURVE",
"280 750 LINE",
"179 746 OFFCURVE",
"95 666 OFFCURVE",
"95 518 CURVE SMOOTH"
);
},
{
closed = 1;
nodes = (
"280 736 LINE",
"367 736 LINE",
"367 750 LINE",
"280 750 LINE"
);
},
{
closed = 1;
nodes = (
"360 0 LINE",
"374 0 LINE",
"374 750 LINE",
"360 750 LINE"
);
}
);
width = 454;
},
{
anchors = (
{
name = bottom;
position = "{218, 0}";
},
{
name = top;
position = "{218, 437}";
}
);
background = {
paths = (
{
closed = 1;
nodes = (
"115 437 LINE",
"115 0 LINE",
"255 0 LINE",
"255 178 LINE",
"255 271 OFFCURVE",
"296 339 OFFCURVE",
"361 339 CURVE",
"406 339 OFFCURVE",
"423 314 OFFCURVE",
"425 275 CURVE",
"425 0 LINE",
"565 0 LINE",
"565 327 LINE",
"563 404 OFFCURVE",
"501 458 OFFCURVE",
"419 458 CURVE",
"338 458 OFFCURVE",
"283 421 OFFCURVE",
"252 366 CURVE",
"242 437 LINE"
);
}
);
};
components = (
{
alignment = -1;
name = l;
transform = "{1, 0, 0, 1, 350, 0}";
}
);
hints = (
{
horizontal = 1;
place = "{750, -20}";
target = down;
type = TopGhost;
},
{
horizontal = 1;
place = "{0, 21}";
target = up;
type = BottomGhost;
},
{
horizontal = 1;
place = "{0, 21}";
target = up;
type = BottomGhost;
},
{
horizontal = 1;
place = "{751, -20}";
target = down;
type = TopGhost;
},
{
horizontal = 1;
place = "{0, 21}";
target = up;
type = BottomGhost;
},
{
horizontal = 1;
place = "{751, -20}";
target = down;
type = TopGhost;
}
);
layerId = UUID1;
paths = (
{
closed = 1;
nodes = (
"254 0 LINE",
"254 315 LINE",
"366 315 LINE",
"366 439 LINE",
"254 439 LINE",
"254 587 LINE",
"254 645 OFFCURVE",
"282 671 OFFCURVE",
"322 671 CURVE",
"338 671 OFFCURVE",
"357 666 OFFCURVE",
"371 649 CURVE",
"430 750 LINE",
"395 775 OFFCURVE",
"344 786 OFFCURVE",
"307 786 CURVE",
"182 786 OFFCURVE",
"114 705 OFFCURVE",
"114 591 CURVE",
"114 439 LINE",
"40 439 LINE",
"40 315 LINE",
"114 315 LINE",
"114 0 LINE"
);
}
);
width = 640;
}
);
leftMetricsKey = f;
rightMetricsKey = l;
unicode = FB02;
},
{
glyphname = ordfeminine;
lastChange = "2016-09-17 21:24:15 +0000";
layers = (
{
components = (
{
name = a;
transform = "{0.7213, 0, 0, 0.7212, 0, 0}";
}
);
layerId = UUID0;
width = 389;
},
{
hints = (
{
horizontal = 1;
place = "{481.857, 21}";
target = up;
type = BottomGhost;
},
{
horizontal = 1;
place = "{705.275, -20}";
target = down;
type = TopGhost;
}
);
layerId = UUID1;
paths = (
{
closed = 1;
nodes = (
"208 427 OFFCURVE",
"236 471 OFFCURVE",
"239 471 CURVE",
"233 488 LINE",
"233 434 LINE",
"339 434 LINE",
"339 724 LINE",
"239 724 LINE",
"234 697 LINE",
"217 717 OFFCURVE",
"196 736 OFFCURVE",
"147 736 CURVE",
"83 736 OFFCURVE",
"25 675 OFFCURVE",
"25 579 CURVE",
"25 474 OFFCURVE",
"80 427 OFFCURVE",
"150 427 CURVE"
);
},
{
closed = 1;
nodes = (
"155 512 OFFCURVE",
"132 543 OFFCURVE",
"132 583 CURVE",
"132 623 OFFCURVE",
"154 651 OFFCURVE",
"183 651 CURVE",
"208 651 OFFCURVE",
"225 636 OFFCURVE",
"233 611 CURVE",
"233 550 LINE",
"222 526 OFFCURVE",
"209 512 OFFCURVE",
"185 512 CURVE"
);
}
);
width = 389;
}
);
unicode = 00AA;
},
{
glyphname = ordmasculine;
lastChange = "2016-09-17 21:22:58 +0000";
layers = (
{
components = (
{
name = o;
transform = "{0.7212, 0, 0, 0.7212, 0, 0}";
}
);
layerId = UUID0;
width = 361;
},
{
hints = (
{
horizontal = 1;
place = "{467.857, 21}";
target = up;
type = BottomGhost;
},
{
horizontal = 1;
place = "{692.418, -20}";
target = down;
type = TopGhost;
}
);
layerId = UUID1;
paths = (
{
closed = 1;
nodes = (
"24 484 OFFCURVE",
"91 426 OFFCURVE",
"186 426 CURVE",
"286 426 OFFCURVE",
"347 492 OFFCURVE",
"347 581 CURVE",
"347 670 OFFCURVE",
"285 735 OFFCURVE",
"187 735 CURVE",
"90 735 OFFCURVE",
"24 670 OFFCURVE",
"24 581 CURVE"
);
},
{
closed = 1;
nodes = (
"132 616 OFFCURVE",
"155 643 OFFCURVE",
"185 643 CURVE",
"218 643 OFFCURVE",
"239 616 OFFCURVE",
"239 580 CURVE",
"239 545 OFFCURVE",
"218 518 OFFCURVE",
"185 518 CURVE",
"155 518 OFFCURVE",
"132 545 OFFCURVE",
"132 580 CURVE"
);
}
);
width = 393;
}
);
unicode = 00BA;
},
{
glyphname = pi;
lastChange = "2016-09-13 15:45:57 +0000";
layers = (
{
hints = (
{
horizontal = 1;
place = "{25, 21}";
target = up;
type = BottomGhost;
},
{
horizontal = 1;
place = "{598, -20}";
target = down;
type = TopGhost;
},
{
horizontal = 1;
place = "{503, 21}";
target = up;
type = BottomGhost;
},
{
horizontal = 1;
place = "{556, -20}";
target = down;
type = TopGhost;
},
{
horizontal = 1;
place = "{25, 21}";
target = up;
type = BottomGhost;
},
{
horizontal = 1;
place = "{598, -20}";
target = down;
type = TopGhost;
}
);
layerId = UUID0;
paths = (
{
closed = 1;
nodes = (
"5 306 LINE",
"56 306 LINE",
"56 0 LINE",
"70 0 LINE",
"70 306 LINE",
"219 306 LINE",
"219 0 LINE",
"233 0 LINE",
"233 306 LINE",
"271 306 LINE",
"271 320 LINE",
"5 320 LINE"
);
}
);
width = 276;
},
{
hints = (
{
horizontal = 1;
place = "{0, 21}";
target = up;
type = BottomGhost;
},
{
horizontal = 1;
place = "{573, -20}";
target = down;
type = TopGhost;
},
{
horizontal = 1;
place = "{478, 21}";
target = up;
type = BottomGhost;
},
{
horizontal = 1;
place = "{531, -20}";
target = down;
type = TopGhost;
},
{
horizontal = 1;
place = "{0, 21}";
target = up;
type = BottomGhost;
},
{
horizontal = 1;
place = "{573, -20}";
target = down;
type = TopGhost;
}
);
layerId = UUID1;
paths = (
{
closed = 1;
nodes = (
"9 247 LINE",
"67 247 LINE",
"67 0 LINE",
"192 0 LINE",
"192 247 LINE",
"244 247 LINE",
"244 0 LINE",
"368 0 LINE",
"368 247 LINE",
"431 247 LINE",
"431 368 LINE",
"9 368 LINE"
);
}
);
width = 444;
}
);
unicode = 03C0;
},
{
glyphname = zero;
lastChange = "2016-09-15 17:26:55 +0000";
layers = (
{
layerId = UUID0;
paths = (
{
closed = 1;
nodes = (
"36 327 LINE",
"35 141 OFFCURVE",
"155 -6 OFFCURVE",
"301 -7 CURVE SMOOTH",
"448 -8 OFFCURVE",
"572 139 OFFCURVE",
"573 324 CURVE SMOOTH",
"574 452 OFFCURVE",
"506 657 OFFCURVE",
"308 658 CURVE SMOOTH",
"107 659 OFFCURVE",
"37 454 OFFCURVE",
"36 327 CURVE SMOOTH"
);
},
{
closed = 1;
nodes = (
"51 328 LINE",
"52 523 OFFCURVE",
"164 645 OFFCURVE",
"307 644 CURVE SMOOTH",
"450 643 OFFCURVE",
"560 519 OFFCURVE",
"559 323 CURVE SMOOTH",
"558 130 OFFCURVE",
"431 6 OFFCURVE",
"303 7 CURVE SMOOTH",
"174 8 OFFCURVE",
"50 134 OFFCURVE",
"51 328 CURVE SMOOTH"
);
}
);
width = 616;
},
{
layerId = UUID1;
paths = (
{
closed = 1;
nodes = (
"591 564 OFFCURVE",
"465 672 OFFCURVE",
"312 671 CURVE",
"159 672 OFFCURVE",
"33 564 OFFCURVE",
"33 335 CURVE SMOOTH",
"33 335 LINE",
"33 335 LINE SMOOTH",
"33 106 OFFCURVE",
"159 -2 OFFCURVE",
"312 -1 CURVE",
"465 -2 OFFCURVE",
"591 106 OFFCURVE",
"591 335 CURVE SMOOTH",
"591 335 LINE"
);
},
{
closed = 1;
nodes = (
"410 531 OFFCURVE",
"440 448 OFFCURVE",
"440 339 CURVE",
"440 226 OFFCURVE",
"411 138 OFFCURVE",
"311 138 CURVE",
"212 138 OFFCURVE",
"184 226 OFFCURVE",
"184 336 CURVE",
"184 445 OFFCURVE",
"212 531 OFFCURVE",
"311 531 CURVE"
);
}
);
width = 628;
}
);
unicode = 0030;
},
{
glyphname = one;
lastChange = "2016-09-17 15:09:23 +0000";
layers = (
{
hints = (
{
horizontal = 1;
place = "{0, 21}";
target = up;
type = BottomGhost;
},
{
horizontal = 1;
place = "{650, -20}";
target = down;
type = TopGhost;
}
);
layerId = UUID0;
paths = (
{
closed = 1;
nodes = (
"34 636 LINE",
"147 636 LINE",
"147 0 LINE",
"161 0 LINE",
"161 650 LINE",
"34 650 LINE"
);
}
);
width = 249;
},
{
hints = (
{
horizontal = 1;
place = "{0, 21}";
target = up;
type = BottomGhost;
},
{
horizontal = 1;
place = "{650, -20}";
target = down;
type = TopGhost;
}
);
layerId = UUID1;
paths = (
{
closed = 1;
nodes = (
"45 523 LINE",
"98 523 LINE",
"98 0 LINE",
"244 0 LINE",
"244 663 LINE",
"45 663 LINE"
);
}
);
width = 334;
}
);
rightMetricsKey = H;
unicode = 0031;
},
{
glyphname = two;
lastChange = "2016-09-17 16:56:24 +0000";
layers = (
{
hints = (
{
horizontal = 1;
place = "{658, -20}";
target = down;
type = TopGhost;
},
{
horizontal = 1;
place = "{0, 21}";
target = up;
type = BottomGhost;
}
);
layerId = UUID0;
paths = (
{
closed = 1;
nodes = (
"449 0 LINE",
"449 14 LINE",
"89 14 LINE",
"89 14 LINE",
"228 158 OFFCURVE",
"403 309 OFFCURVE",
"403 464 CURVE SMOOTH",
"403 576 OFFCURVE",
"332 658 OFFCURVE",
"228 658 CURVE SMOOTH",
"113 658 OFFCURVE",
"50 576 OFFCURVE",
"50 469 CURVE SMOOTH",
"50 415 OFFCURVE",
"67 379 OFFCURVE",
"95 347 CURVE",
"98 350 OFFCURVE",
"101 352 OFFCURVE",
"104 355 CURVE",
"78 383 OFFCURVE",
"64 421 OFFCURVE",
"64 469 CURVE SMOOTH",
"64 538 OFFCURVE",
"96 644 OFFCURVE",
"228 644 CURVE SMOOTH",
"294 644 OFFCURVE",
"389 602 OFFCURVE",
"389 452 CURVE SMOOTH",
"389 326 OFFCURVE",
"225 165 OFFCURVE",
"53 0 CURVE"
);
}
);
width = 495;
},
{
hints = (
{
horizontal = 1;
place = "{658, -20}";
target = down;
type = TopGhost;
},
{
horizontal = 1;
place = "{0, 21}";
target = up;
type = BottomGhost;
}
);
layerId = UUID1;
paths = (
{
closed = 1;
nodes = (
"533 0 LINE",
"533 140 LINE",
"287 140 LINE",
"353 121 LINE",
"353 121 LINE",
"442 230 OFFCURVE",
"525 330 OFFCURVE",
"525 451 CURVE SMOOTH",
"525 565 OFFCURVE",
"434 671 OFFCURVE",
"297 671 CURVE SMOOTH",
"128 671 OFFCURVE",
"35 561 OFFCURVE",
"35 452 CURVE SMOOTH",
"35 403 OFFCURVE",
"68 303 OFFCURVE",
"126 275 CURVE",
"215 356 LINE",
"191 381 OFFCURVE",
"176 413 OFFCURVE",
"176 456 CURVE SMOOTH",
"176 492 OFFCURVE",
"210 531 OFFCURVE",
"272 531 CURVE SMOOTH",
"333 531 OFFCURVE",
"374 496 OFFCURVE",
"374 439 CURVE SMOOTH",
"374 310 OFFCURVE",
"218 168 OFFCURVE",
"54 0 CURVE"
);
}
);
width = 543;
}
);
unicode = 0032;
},
{
glyphname = three;
lastChange = "2016-09-17 17:34:57 +0000";
layers = (
{
hints = (
{
horizontal = 1;
place = "{-8, 21}";
target = up;
type = BottomGhost;
},
{
horizontal = 1;
place = "{650, -20}";
target = down;
type = TopGhost;
}
);
layerId = UUID0;
paths = (
{
closed = 1;
nodes = (
"103 650 LINE",
"103 636 LINE",
"390 636 LINE",
"319 544 OFFCURVE",
"249 453 OFFCURVE",
"178 361 CURVE",
"178 361 LINE",
"196 375 OFFCURVE",
"218 384 OFFCURVE",
"239 384 CURVE SMOOTH",
"344 384 OFFCURVE",
"432 300 OFFCURVE",
"432 195 CURVE SMOOTH",
"432 93 OFFCURVE",
"344 6 OFFCURVE",
"239 6 CURVE SMOOTH",
"184 6 OFFCURVE",
"135 33 OFFCURVE",
"103 71 CURVE",
"100 67 OFFCURVE",
"96 62 OFFCURVE",
"93 58 CURVE",
"130 18 OFFCURVE",
"182 -8 OFFCURVE",
"242 -8 CURVE SMOOTH",
"354 -8 OFFCURVE",
"446 83 OFFCURVE",
"446 195 CURVE SMOOTH",
"446 316 OFFCURVE",
"344 404 OFFCURVE",
"223 398 CURVE",
"289 482 OFFCURVE",
"356 566 OFFCURVE",
"422 650 CURVE"
);
}
);
width = 515;
},
{
background = {
paths = (
{
closed = 1;
nodes = (
"95 663 LINE",
"95 523 LINE",
"304 523 LINE",
"262 540 LINE",
"145 316 LINE",
"145 316 LINE",
"165 321 OFFCURVE",
"184 326 OFFCURVE",
"224 326 CURVE SMOOTH",
"282 326 OFFCURVE",
"317 288 OFFCURVE",
"317 230 CURVE SMOOTH",
"317 166 OFFCURVE",
"269 132 OFFCURVE",
"225 132 CURVE SMOOTH",
"179 132 OFFCURVE",
"134 162 OFFCURVE",
"114 187 CURVE",
"40 67 LINE",
"83 22 OFFCURVE",
"153 -8 OFFCURVE",
"219 -8 CURVE SMOOTH",
"344 -8 OFFCURVE",
"467 76 OFFCURVE",
"467 221 CURVE SMOOTH",
"467 313 OFFCURVE",
"430 405 OFFCURVE",
"320 436 CURVE",
"306 375 LINE",
"456 663 LINE"
);
}
);
};
hints = (
{
horizontal = 1;
place = "{-8, 21}";
target = up;
type = BottomGhost;
},
{
horizontal = 1;
place = "{650, -20}";
target = down;
type = TopGhost;
}
);
layerId = UUID1;
paths = (
{
closed = 1;
nodes = (
"95 663 LINE",
"95 523 LINE",
"304 523 LINE",
"262 540 LINE",
"145 316 LINE",
"145 316 LINE",
"165 321 OFFCURVE",
"184 326 OFFCURVE",
"224 326 CURVE SMOOTH",
"282 326 OFFCURVE",
"317 288 OFFCURVE",
"317 230 CURVE SMOOTH",
"317 166 OFFCURVE",
"269 132 OFFCURVE",
"225 132 CURVE SMOOTH",
"179 132 OFFCURVE",
"134 162 OFFCURVE",
"114 187 CURVE",
"40 67 LINE",
"83 22 OFFCURVE",
"163 -8 OFFCURVE",
"229 -8 CURVE SMOOTH",
"354 -8 OFFCURVE",
"467 76 OFFCURVE",
"467 221 CURVE SMOOTH",
"467 410 OFFCURVE",
"331 437 OFFCURVE",
"231 423 CURVE",
"306 375 LINE",
"456 663 LINE"
);
}
);
width = 525;
}
);
unicode = 0033;
},
{
glyphname = four;
lastChange = "2016-09-17 17:04:58 +0000";
layers = (
{
hints = (
{
horizontal = 1;
place = "{0, 21}";
target = up;
type = BottomGhost;
},
{
horizontal = 1;
place = "{658, -20}";
target = down;
type = TopGhost;
}
);
layerId = UUID0;
paths = (
{
closed = 1;
nodes = (
"389 183 LINE",
"389 0 LINE",
"403 0 LINE",
"403 183 LINE",
"500 183 LINE",
"500 197 LINE",
"403 197 LINE",
"403 658 LINE",
"281 500 OFFCURVE",
"159 341 OFFCURVE",
"37 183 CURVE"
);
},
{
closed = 1;
nodes = (
"389 197 LINE",
"67 197 LINE",
"174 337 OFFCURVE",
"282 477 OFFCURVE",
"389 617 CURVE"
);
}
);
width = 505;
},
{
hints = (
{
horizontal = 1;
place = "{0, 21}";
target = up;
type = BottomGhost;
},
{
horizontal = 1;
place = "{658, -20}";
target = down;
type = TopGhost;
}
);
layerId = UUID1;
paths = (
{
closed = 1;
nodes = (
"285 145 LINE",
"285 0 LINE",
"431 0 LINE",
"431 145 LINE",
"510 145 LINE",
"510 255 LINE",
"431 255 LINE",
"431 671 LINE",
"7 145 LINE"
);
},
{
closed = 1;
nodes = (
"285 255 LINE",
"219 255 LINE",
"218 254 OFFCURVE",
"286 344 OFFCURVE",
"285 343 CURVE"
);
}
);
width = 522;
}
);
unicode = 0034;
},
{
glyphname = five;
lastChange = "2016-09-17 17:33:20 +0000";
layers = (
{
hints = (
{
horizontal = 1;
place = "{-8, 21}";
target = up;
type = BottomGhost;
},
{
horizontal = 1;
place = "{650, -20}";
target = down;
type = TopGhost;
}
);
layerId = UUID0;
paths = (
{
closed = 1;
nodes = (
"367 -8 OFFCURVE",
"460 83 OFFCURVE",
"460 195 CURVE SMOOTH",
"460 307 OFFCURVE",
"367 395 OFFCURVE",
"255 395 CURVE SMOOTH",
"220 395 OFFCURVE",
"177 385 OFFCURVE",
"152 368 CURVE",
"157 364 LINE",
"157 636 LINE",
"430 636 LINE",
"430 650 LINE",
"143 650 LINE",
"143 341 LINE",
"143 341 LINE",
"166 363 OFFCURVE",
"207 381 OFFCURVE",
"253 381 CURVE SMOOTH",
"359 381 OFFCURVE",
"446 298 OFFCURVE",
"446 195 CURVE SMOOTH",
"446 93 OFFCURVE",
"359 6 OFFCURVE",
"253 6 CURVE SMOOTH",
"203 6 OFFCURVE",
"158 25 OFFCURVE",
"126 58 CURVE",
"115 48 LINE",
"152 13 OFFCURVE",
"201 -8 OFFCURVE",
"255 -8 CURVE SMOOTH"
);
}
);
width = 543;
},
{
hints = (
{
horizontal = 1;
place = "{-8, 21}";
target = up;
type = BottomGhost;
},
{
horizontal = 1;
place = "{650, -20}";
target = down;
type = TopGhost;
}
);
layerId = UUID1;
paths = (
{
closed = 1;
nodes = (
"388 -8 OFFCURVE",
"488 93 OFFCURVE",
"488 226 CURVE SMOOTH",
"488 346 OFFCURVE",
"408 449 OFFCURVE",
"269 450 CURVE SMOOTH",
"252 450 OFFCURVE",
"234 449 OFFCURVE",
"216 446 CURVE",
"233 416 LINE",
"233 523 LINE",
"439 523 LINE",
"439 663 LINE",
"108 663 LINE",
"108 291 LINE",
"108 291 LINE",
"159 318 OFFCURVE",
"193 328 OFFCURVE",
"234 328 CURVE SMOOTH",
"298 328 OFFCURVE",
"338 285 OFFCURVE",
"338 221 CURVE SMOOTH",
"338 162 OFFCURVE",
"297 132 OFFCURVE",
"251 132 CURVE SMOOTH",
"209 132 OFFCURVE",
"159 154 OFFCURVE",
"135 183 CURVE",
"60 67 LINE",
"101 26 OFFCURVE",
"183 -8 OFFCURVE",
"262 -8 CURVE SMOOTH"
);
}
);
width = 553;
}
);
unicode = 0035;
},
{
glyphname = six;
lastChange = "2016-09-17 17:40:34 +0000";
layers = (
{
hints = (
{
horizontal = 1;
place = "{-8, 21}";
target = up;
type = BottomGhost;
},
{
horizontal = 1;
place = "{633, -20}";
target = down;
type = TopGhost;
}
);
layerId = UUID0;
paths = (
{
closed = 1;
nodes = (
"50 193 LINE SMOOTH",
"50 82 OFFCURVE",
"141 -8 OFFCURVE",
"254 -8 CURVE SMOOTH",
"367 -8 OFFCURVE",
"458 82 OFFCURVE",
"458 193 CURVE SMOOTH",
"458 304 OFFCURVE",
"367 395 OFFCURVE",
"254 395 CURVE SMOOTH",
"187 395 OFFCURVE",
"128 363 OFFCURVE",
"91 314 CURVE",
"122 388 OFFCURVE",
"214 502 OFFCURVE",
"392 620 CURVE",
"389 624 OFFCURVE",
"385 629 OFFCURVE",
"382 633 CURVE",
"233 524 OFFCURVE",
"50 387 OFFCURVE",
"50 193 CURVE SMOOTH"
);
},
{
closed = 1;
nodes = (
"63 193 LINE SMOOTH",
"63 297 OFFCURVE",
"148 381 OFFCURVE",
"253 381 CURVE SMOOTH",
"358 381 OFFCURVE",
"444 297 OFFCURVE",
"444 193 CURVE SMOOTH",
"444 89 OFFCURVE",
"358 6 OFFCURVE",
"253 6 CURVE SMOOTH",
"148 6 OFFCURVE",
"63 89 OFFCURVE",
"63 193 CURVE SMOOTH"
);
}
);
width = 520;
},
{
background = {
paths = (
{
closed = 0;
nodes = (
"275 449 LINE",
"302 471 OFFCURVE",
"420 534 OFFCURVE",
"454 557 CURVE",
"429 588 OFFCURVE",
"403 621 OFFCURVE",
"377 652 CURVE",
"282 583 OFFCURVE",
"50 444 OFFCURVE",
"50 222 CURVE SMOOTH",
"50 222 LINE SMOOTH",
"50 52 OFFCURVE",
"186 -8 OFFCURVE",
"280 -8 CURVE SMOOTH",
"404 -8 OFFCURVE",
"511 96 OFFCURVE",
"511 223 CURVE SMOOTH",
"511 350 OFFCURVE",
"404 449 OFFCURVE",
"279 449 CURVE SMOOTH",
"278 449 OFFCURVE",
"277 449 OFFCURVE",
"275 449 CURVE"
);
},
{
closed = 1;
nodes = (
"180 222 LINE SMOOTH",
"180 281 OFFCURVE",
"224 328 OFFCURVE",
"280 328 CURVE SMOOTH",
"336 328 OFFCURVE",
"386 281 OFFCURVE",
"386 222 CURVE SMOOTH",
"386 164 OFFCURVE",
"337 113 OFFCURVE",
"280 113 CURVE SMOOTH",
"223 113 OFFCURVE",
"180 164 OFFCURVE",
"180 222 CURVE SMOOTH"
);
}
);
};
hints = (
{
horizontal = 1;
place = "{-8, 21}";
target = up;
type = BottomGhost;
},
{
horizontal = 1;
place = "{637, -20}";
target = down;
type = TopGhost;
}
);
layerId = UUID1;
paths = (
{
closed = 1;
nodes = (
"184 300 LINE",
"184 388 OFFCURVE",
"254 514 OFFCURVE",
"414 577 CURVE",
"317 682 LINE",
"159 588 OFFCURVE",
"30 444 OFFCURVE",
"30 287 CURVE SMOOTH",
"30 96 OFFCURVE",
"141 -8 OFFCURVE",
"286 -8 CURVE SMOOTH",
"410 -8 OFFCURVE",
"531 75 OFFCURVE",
"531 223 CURVE SMOOTH",
"531 350 OFFCURVE",
"432 437 OFFCURVE",
"336 437 CURVE SMOOTH",
"234 437 OFFCURVE",
"184 388 OFFCURVE",
"148 304 CURVE"
);
},
{
closed = 1;
nodes = (
"180 239 LINE SMOOTH",
"180 279 OFFCURVE",
"224 315 OFFCURVE",
"280 315 CURVE SMOOTH",
"336 315 OFFCURVE",
"380 284 OFFCURVE",
"380 222 CURVE SMOOTH",
"380 157 OFFCURVE",
"337 122 OFFCURVE",
"280 122 CURVE SMOOTH",
"223 122 OFFCURVE",
"180 167 OFFCURVE",
"180 215 CURVE SMOOTH"
);
}
);
width = 561;
}
);
unicode = 0036;
},
{
glyphname = seven;
lastChange = "2016-09-17 17:41:41 +0000";
layers = (
{
hints = (
{
horizontal = 1;
place = "{0, 21}";
target = up;
type = BottomGhost;
},
{
horizontal = 1;
place = "{650, -20}";
target = down;
type = TopGhost;
}
);
layerId = UUID0;
paths = (
{
closed = 1;
nodes = (
"14 650 LINE",
"14 636 LINE",
"392 636 LINE",
"296 424 OFFCURVE",
"201 212 OFFCURVE",
"105 0 CURVE",
"123 0 LINE",
"220 217 OFFCURVE",
"318 433 OFFCURVE",
"415 650 CURVE"
);
}
);
width = 469;
},
{
hints = (
{
horizontal = 1;
place = "{0, 21}";
target = up;
type = BottomGhost;
},
{
horizontal = 1;
place = "{650, -20}";
target = down;
type = TopGhost;
}
);
layerId = UUID1;
paths = (
{
closed = 1;
nodes = (
"40 663 LINE",
"40 523 LINE",
"331 523 LINE",
"284 540 LINE",
"79 0 LINE",
"241 0 LINE",
"488 663 LINE"
);
}
);
width = 503;
}
);
unicode = 0037;
},
{
glyphname = eight;
lastChange = "2016-09-17 17:43:19 +0000";
layers = (
{
hints = (
{
place = "{53, 69}";
},
{
place = "{382, 78}";
},
{
horizontal = 1;
place = "{-8, 21}";
target = up;
type = BottomGhost;
},
{
horizontal = 1;
place = "{658, -20}";
target = down;
type = TopGhost;
}
);
layerId = UUID0;
paths = (
{
closed = 1;
nodes = (
"53 195 LINE SMOOTH",
"53 83 OFFCURVE",
"144 -8 OFFCURVE",
"255 -8 CURVE SMOOTH",
"367 -8 OFFCURVE",
"460 83 OFFCURVE",
"460 195 CURVE SMOOTH",
"460 290 OFFCURVE",
"393 368 OFFCURVE",
"304 389 CURVE",
"358 408 OFFCURVE",
"396 456 OFFCURVE",
"396 514 CURVE SMOOTH",
"396 593 OFFCURVE",
"332 658 OFFCURVE",
"252 658 CURVE SMOOTH",
"173 658 OFFCURVE",
"108 595 OFFCURVE",
"108 518 CURVE SMOOTH",
"108 457 OFFCURVE",
"148 407 OFFCURVE",
"204 389 CURVE",
"117 367 OFFCURVE",
"53 289 OFFCURVE",
"53 195 CURVE SMOOTH"
);
},
{
closed = 1;
nodes = (
"67 195 LINE SMOOTH",
"67 298 OFFCURVE",
"149 381 OFFCURVE",
"253 381 CURVE SMOOTH",
"359 381 OFFCURVE",
"446 298 OFFCURVE",
"446 195 CURVE SMOOTH",
"446 93 OFFCURVE",
"359 5 OFFCURVE",
"253 5 CURVE SMOOTH",
"149 5 OFFCURVE",
"67 93 OFFCURVE",
"67 195 CURVE SMOOTH"
);
},
{
closed = 1;
nodes = (
"122 511 LINE SMOOTH",
"122 582 OFFCURVE",
"180 644 OFFCURVE",
"254 644 CURVE SMOOTH",
"327 644 OFFCURVE",
"382 582 OFFCURVE",
"382 511 CURVE SMOOTH",
"382 445 OFFCURVE",
"327 396 OFFCURVE",
"254 396 CURVE SMOOTH",
"180 396 OFFCURVE",
"122 445 OFFCURVE",
"122 511 CURVE SMOOTH"
);
}
);
width = 510;
},
{
hints = (
{
place = "{36, 144}";
},
{
place = "{330, 142}";
},
{
horizontal = 1;
place = "{-8, 21}";
target = up;
type = BottomGhost;
},
{
horizontal = 1;
place = "{658, -20}";
target = down;
type = TopGhost;
}
);
layerId = UUID1;
paths = (
{
closed = 1;
nodes = (
"7 215 LINE SMOOTH",
"7 99 OFFCURVE",
"111 -8 OFFCURVE",
"257 -8 CURVE SMOOTH",
"402 -8 OFFCURVE",
"509 99 OFFCURVE",
"509 215 CURVE SMOOTH",
"509 316 OFFCURVE",
"441 369 OFFCURVE",
"394 400 CURVE",
"426 432 OFFCURVE",
"451 457 OFFCURVE",
"451 524 CURVE SMOOTH",
"451 607 OFFCURVE",
"363 671 OFFCURVE",
"259 671 CURVE SMOOTH",
"155 671 OFFCURVE",
"70 607 OFFCURVE",
"70 517 CURVE SMOOTH",
"70 457 OFFCURVE",
"93 431 OFFCURVE",
"123 400 CURVE",
"76 372 OFFCURVE",
"7 318 OFFCURVE",
"7 215 CURVE SMOOTH"
);
},
{
closed = 1;
nodes = (
"156 221 LINE SMOOTH",
"156 283 OFFCURVE",
"208 330 OFFCURVE",
"264 328 CURVE SMOOTH",
"320 326 OFFCURVE",
"364 278 OFFCURVE",
"364 221 CURVE SMOOTH",
"364 162 OFFCURVE",
"315 114 OFFCURVE",
"258 114 CURVE SMOOTH",
"202 114 OFFCURVE",
"156 162 OFFCURVE",
"156 221 CURVE SMOOTH"
);
},
{
closed = 1;
nodes = (
"211 499 LINE SMOOTH",
"211 526 OFFCURVE",
"237 550 OFFCURVE",
"262 550 CURVE SMOOTH",
"287 550 OFFCURVE",
"312 526 OFFCURVE",
"312 499 CURVE SMOOTH",
"312 472 OFFCURVE",
"286 449 OFFCURVE",
"262 449 CURVE SMOOTH",
"238 449 OFFCURVE",
"211 472 OFFCURVE",
"211 499 CURVE SMOOTH"
);
}
);
width = 521;
}
);
unicode = 0038;
},
{
glyphname = nine;
lastChange = "2016-09-17 17:43:52 +0000";
layers = (
{
hints = (
{
horizontal = 1;
place = "{633, -20}";
target = down;
type = TopGhost;
},
{
horizontal = 1;
place = "{-8, 21}";
target = up;
type = BottomGhost;
}
);
layerId = UUID0;
paths = (
{
closed = 1;
nodes = (
"458 432 LINE",
"458 543 OFFCURVE",
"367 633 OFFCURVE",
"254 633 CURVE SMOOTH",
"141 633 OFFCURVE",
"50 543 OFFCURVE",
"50 432 CURVE SMOOTH",
"50 321 OFFCURVE",
"141 230 OFFCURVE",
"254 230 CURVE SMOOTH",
"321 230 OFFCURVE",
"380 262 OFFCURVE",
"417 311 CURVE",
"386 237 OFFCURVE",
"294 123 OFFCURVE",
"116 5 CURVE",
"119 1 OFFCURVE",
"123 -4 OFFCURVE",
"126 -8 CURVE",
"275 101 OFFCURVE",
"458 238 OFFCURVE",
"458 432 CURVE"
);
},
{
closed = 1;
nodes = (
"445 432 LINE",
"445 328 OFFCURVE",
"360 244 OFFCURVE",
"255 244 CURVE SMOOTH",
"150 244 OFFCURVE",
"64 328 OFFCURVE",
"64 432 CURVE SMOOTH",
"64 536 OFFCURVE",
"150 619 OFFCURVE",
"255 619 CURVE SMOOTH",
"360 619 OFFCURVE",
"445 536 OFFCURVE",
"445 432 CURVE"
);
}
);
width = 525;
},
{
background = {
paths = (
{
closed = 1;
nodes = (
"509 422 LINE",
"509 592 OFFCURVE",
"373 652 OFFCURVE",
"279 652 CURVE SMOOTH",
"155 652 OFFCURVE",
"48 548 OFFCURVE",
"48 421 CURVE SMOOTH",
"48 294 OFFCURVE",
"155 195 OFFCURVE",
"280 195 CURVE SMOOTH",
"281 195 OFFCURVE",
"282 195 OFFCURVE",
"284 195 CURVE",
"257 173 OFFCURVE",
"139 110 OFFCURVE",
"105 87 CURVE",
"130 56 OFFCURVE",
"156 23 OFFCURVE",
"182 -8 CURVE",
"277 61 OFFCURVE",
"509 200 OFFCURVE",
"509 422 CURVE"
);
},
{
closed = 1;
nodes = (
"379 422 LINE",
"379 363 OFFCURVE",
"335 316 OFFCURVE",
"279 316 CURVE SMOOTH",
"223 316 OFFCURVE",
"173 363 OFFCURVE",
"173 422 CURVE SMOOTH",
"173 480 OFFCURVE",
"222 531 OFFCURVE",
"279 531 CURVE SMOOTH",
"336 531 OFFCURVE",
"379 480 OFFCURVE",
"379 422 CURVE"
);
}
);
};
hints = (
{
horizontal = 1;
place = "{636, -20}";
target = down;
type = TopGhost;
},
{
horizontal = 1;
place = "{-9, 21}";
target = up;
type = BottomGhost;
}
);
layerId = UUID1;
paths = (
{
closed = 1;
nodes = (
"377 344 LINE",
"377 256 OFFCURVE",
"267 158 OFFCURVE",
"107 95 CURVE",
"204 -10 LINE",
"362 84 OFFCURVE",
"531 200 OFFCURVE",
"531 411 CURVE SMOOTH",
"531 548 OFFCURVE",
"420 652 OFFCURVE",
"275 652 CURVE SMOOTH",
"151 652 OFFCURVE",
"30 569 OFFCURVE",
"30 421 CURVE SMOOTH",
"30 294 OFFCURVE",
"129 207 OFFCURVE",
"225 207 CURVE SMOOTH",
"327 207 OFFCURVE",
"377 256 OFFCURVE",
"413 340 CURVE"
);
},
{
closed = 1;
nodes = (
"381 405 LINE SMOOTH",
"381 365 OFFCURVE",
"337 329 OFFCURVE",
"281 329 CURVE SMOOTH",
"225 329 OFFCURVE",
"181 360 OFFCURVE",
"181 422 CURVE SMOOTH",
"181 487 OFFCURVE",
"224 522 OFFCURVE",
"281 522 CURVE SMOOTH",
"338 522 OFFCURVE",
"381 477 OFFCURVE",
"381 429 CURVE SMOOTH"
);
}
);
width = 536;
}
);
unicode = 0039;
},
{
glyphname = onesuperior;
lastChange = "2016-09-17 16:22:57 +0000";
layers = (
{
components = (
{
name = one;
transform = "{0.4575, 0, 0, 0.46, 54, 401}";
}
);
layerId = UUID0;
width = 249;
},
{
hints = (
{
horizontal = 1;
place = "{401, 21}";
target = up;
type = BottomGhost;
},
{
horizontal = 1;
place = "{700, -20}";
target = down;
type = TopGhost;
}
);
layerId = UUID1;
paths = (
{
closed = 1;
nodes = (
"25 555 LINE",
"93 555 LINE",
"93 265 LINE",
"223 265 LINE",
"223 680 LINE",
"25 680 LINE"
);
}
);
width = 283;
}
);
unicode = 00B9;
},
{
glyphname = twosuperior;
lastChange = "2016-09-17 16:13:16 +0000";
layers = (
{
components = (
{
name = two;
transform = "{0.4954, 0, 0, 0.4939, 76, 375}";
}
);
layerId = UUID0;
width = 398;
},
{
hints = (
{
horizontal = 1;
place = "{699.986, -20}";
target = down;
type = TopGhost;
},
{
horizontal = 1;
place = "{375, 21}";
target = up;
type = BottomGhost;
}
);
layerId = UUID1;
paths = (
{
closed = 1;
nodes = (
"85 531 LINE",
"99 553 OFFCURVE",
"137 575 OFFCURVE",
"166 575 CURVE SMOOTH",
"202 575 OFFCURVE",
"218 554 OFFCURVE",
"218 509 CURVE SMOOTH",
"218 437 OFFCURVE",
"117 373 OFFCURVE",
"62 346 CURVE",
"62 265 LINE",
"378 265 LINE",
"378 381 LINE",
"165 381 LINE",
"142 287 LINE",
"212 341 OFFCURVE",
"364 424 OFFCURVE",
"364 548 CURVE SMOOTH",
"364 634 OFFCURVE",
"299 689 OFFCURVE",
"205 691 CURVE SMOOTH",
"141 692 OFFCURVE",
"71 663 OFFCURVE",
"45 623 CURVE"
);
}
);
width = 407;
}
);
unicode = 00B2;
},
{
glyphname = threesuperior;
lastChange = "2016-09-17 16:29:31 +0000";
layers = (
{
components = (
{
name = three;
transform = "{0.4929, 0, 0, 0.4924, 50, 380}";
}
);
layerId = UUID0;
width = 419;
},
{
hints = (
{
horizontal = 1;
place = "{376.061, 21}";
target = up;
type = BottomGhost;
},
{
horizontal = 1;
place = "{700.06, -20}";
target = down;
type = TopGhost;
}
);
layerId = UUID1;
paths = (
{
closed = 1;
nodes = (
"99 462 LINE",
"105 464 OFFCURVE",
"125 470 OFFCURVE",
"134 470 CURVE SMOOTH",
"170 470 OFFCURVE",
"200 445 OFFCURVE",
"200 407 CURVE SMOOTH",
"200 371 OFFCURVE",
"178 356 OFFCURVE",
"145 350 CURVE SMOOTH",
"117 345 OFFCURVE",
"89 380 OFFCURVE",
"79 392 CURVE",
"40 311 LINE",
"61 289 OFFCURVE",
"102 260 OFFCURVE",
"163 260 CURVE SMOOTH",
"262 260 OFFCURVE",
"326 324 OFFCURVE",
"326 403 CURVE SMOOTH",
"326 474 OFFCURVE",
"276 513 OFFCURVE",
"215 533 CURVE",
"212 476 LINE",
"315 680 LINE",
"57 680 LINE",
"57 580 LINE",
"196 580 LINE",
"167 600 LINE",
"92 474 LINE"
);
}
);
width = 376;
}
);
unicode = 00B3;
},
{
glyphname = foursuperior;
lastChange = "2016-09-17 16:29:56 +0000";
layers = (
{
components = (
{
name = four;
}
);
layerId = UUID0;
width = 600;
},
{
hints = (
{
horizontal = 1;
place = "{0, 21}";
target = up;
type = BottomGhost;
},
{
horizontal = 1;
place = "{658, -20}";
target = down;
type = TopGhost;
}
);
layerId = UUID1;
paths = (
{
closed = 1;
nodes = (
"111 437 LINE",
"129 387 LINE",
"241 551 LINE",
"211 543 LINE",
"211 265 LINE",
"331 265 LINE",
"331 687 LINE",
"243 687 LINE",
"30 393 LINE",
"32 359 LINE",
"379 359 LINE",
"379 437 LINE"
);
}
);
width = 409;
}
);
unicode = 2074;
},
{
glyphname = fraction;
lastChange = "2016-09-17 16:23:25 +0000";
layers = (
{
hints = (
{
horizontal = 1;
place = "{306, 21}";
target = up;
type = BottomGhost;
},
{
horizontal = 1;
place = "{1061, -20}";
target = down;
type = TopGhost;
}
);
layerId = UUID0;
paths = (
{
closed = 1;
nodes = (
"282 755 LINE",
"189 503 OFFCURVE",
"97 252 OFFCURVE",
"4 0 CURVE",
"18 0 LINE",
"111 252 OFFCURVE",
"203 503 OFFCURVE",
"296 755 CURVE"
);
}
);
width = 300;
},
{
hints = (
{
horizontal = 1;
place = "{181, 21}";
target = up;
type = BottomGhost;
},
{
horizontal = 1;
place = "{936, -20}";
target = down;
type = TopGhost;
}
);
layerId = UUID1;
paths = (
{
closed = 1;
nodes = (
"412 698 LINE",
"5 0 LINE",
"135 0 LINE",
"542 698 LINE"
);
}
);
width = 586;
}
);
unicode = 2044;
},
{
glyphname = asterisk;
lastChange = "2016-08-26 20:32:07 +0000";
layers = (
{
hints = (
{
horizontal = 1;
place = "{720, -20}";
target = down;
type = TopGhost;
},
{
horizontal = 1;
place = "{434, 21}";
target = up;
type = BottomGhost;
}
);
layerId = UUID0;
paths = (
{
closed = 1;
nodes = (
"158 434 LINE",
"172 434 LINE",
"173 477 OFFCURVE",
"173 519 OFFCURVE",
"174 562 CURVE",
"211 540 OFFCURVE",
"248 518 OFFCURVE",
"285 496 CURVE",
"288 501 OFFCURVE",
"291 506 OFFCURVE",
"294 511 CURVE",
"257 532 OFFCURVE",
"219 554 OFFCURVE",
"182 575 CURVE",
"182 575 LINE",
"220 597 OFFCURVE",
"257 619 OFFCURVE",
"295 641 CURVE",
"293 645 OFFCURVE",
"290 649 OFFCURVE",
"288 653 CURVE",
"250 632 OFFCURVE",
"212 610 OFFCURVE",
"174 589 CURVE",
"175 633 OFFCURVE",
"175 676 OFFCURVE",
"176 720 CURVE",
"158 720 LINE",
"158 589 LINE",
"121 611 OFFCURVE",
"83 632 OFFCURVE",
"46 654 CURVE",
"44 650 OFFCURVE",
"41 646 OFFCURVE",
"39 642 CURVE",
"76 620 OFFCURVE",
"113 598 OFFCURVE",
"150 576 CURVE",
"113 555 OFFCURVE",
"76 534 OFFCURVE",
"39 513 CURVE",
"42 508 OFFCURVE",
"45 503 OFFCURVE",
"48 498 CURVE",
"85 519 OFFCURVE",
"121 540 OFFCURVE",
"158 561 CURVE"
);
}
);
width = 335;
},
{
hints = (
{
horizontal = 1;
place = "{720, -20}";
target = down;
type = TopGhost;
},
{
horizontal = 1;
place = "{434, 21}";
target = up;
type = BottomGhost;
}
);
layerId = UUID1;
paths = (
{
closed = 1;
nodes = (
"128 434 LINE",
"208 434 LINE",
"208 457 OFFCURVE",
"209 480 OFFCURVE",
"209 503 CURVE",
"230 491 OFFCURVE",
"250 478 OFFCURVE",
"271 466 CURVE",
"285 490 OFFCURVE",
"299 515 OFFCURVE",
"313 539 CURVE",
"292 551 OFFCURVE",
"271 563 OFFCURVE",
"250 575 CURVE",
"250 575 LINE",
"272 587 OFFCURVE",
"293 600 OFFCURVE",
"315 612 CURVE",
"302 635 OFFCURVE",
"288 658 OFFCURVE",
"275 681 CURVE",
"254 669 OFFCURVE",
"232 657 OFFCURVE",
"211 645 CURVE",
"211 670 OFFCURVE",
"212 695 OFFCURVE",
"212 720 CURVE",
"128 720 LINE",
"128 645 LINE",
"107 657 OFFCURVE",
"86 670 OFFCURVE",
"65 682 CURVE",
"52 659 OFFCURVE",
"39 636 OFFCURVE",
"26 613 CURVE",
"46 601 OFFCURVE",
"67 588 OFFCURVE",
"87 576 CURVE",
"66 565 OFFCURVE",
"46 553 OFFCURVE",
"25 542 CURVE",
"39 518 OFFCURVE",
"53 493 OFFCURVE",
"67 469 CURVE",
"87 481 OFFCURVE",
"108 492 OFFCURVE",
"128 504 CURVE"
);
}
);
width = 335;
}
);
unicode = 002A;
},
{
glyphname = backslash;
lastChange = "2016-08-26 20:32:07 +0000";
layers = (
{
hints = (
{
horizontal = 1;
place = "{736, -20}";
target = down;
type = TopGhost;
},
{
horizontal = 1;
place = "{-19, 21}";
target = up;
type = BottomGhost;
}
);
layerId = UUID0;
paths = (
{
closed = 1;
nodes = (
"17 736 LINE",
"110 484 OFFCURVE",
"202 233 OFFCURVE",
"295 -19 CURVE",
"309 -19 LINE",
"216 233 OFFCURVE",
"124 484 OFFCURVE",
"31 736 CURVE"
);
}
);
width = 320;
},
{
hints = (
{
horizontal = 1;
place = "{736, -20}";
target = down;
type = TopGhost;
},
{
horizontal = 1;
place = "{-19, 21}";
target = up;
type = BottomGhost;
}
);
layerId = UUID1;
paths = (
{
closed = 1;
nodes = (
"-10 751 LINE",
"85 494 OFFCURVE",
"179 238 OFFCURVE",
"274 -19 CURVE",
"416 -19 LINE",
"321 238 OFFCURVE",
"227 494 OFFCURVE",
"132 751 CURVE"
);
}
);
width = 430;
}
);
unicode = 005C;
},
{
glyphname = bullet;
lastChange = "2016-08-26 20:32:07 +0000";
layers = (
{
hints = (
{
place = "{174, 131}";
},
{
horizontal = 1;
place = "{235, 131}";
}
);
layerId = UUID0;
paths = (
{
closed = 1;
nodes = (
"174 300 LINE SMOOTH",
"174 264 OFFCURVE",
"203 235 OFFCURVE",
"239 235 CURVE SMOOTH",
"276 235 OFFCURVE",
"305 264 OFFCURVE",
"305 300 CURVE SMOOTH",
"305 337 OFFCURVE",
"276 366 OFFCURVE",
"239 366 CURVE SMOOTH",
"203 366 OFFCURVE",
"174 337 OFFCURVE",
"174 300 CURVE SMOOTH"
);
}
);
width = 479;
},
{
hints = (
{
place = "{113, 254}";
},
{
horizontal = 1;
place = "{174, 254}";
}
);
layerId = UUID1;
paths = (
{
closed = 1;
nodes = (
"80 306 LINE SMOOTH",
"80 213 OFFCURVE",
"153 142 OFFCURVE",
"244 142 CURVE SMOOTH",
"336 142 OFFCURVE",
"410 213 OFFCURVE",
"410 306 CURVE SMOOTH",
"410 398 OFFCURVE",
"336 473 OFFCURVE",
"244 473 CURVE SMOOTH",
"153 473 OFFCURVE",
"80 398 OFFCURVE",
"80 306 CURVE SMOOTH"
);
}
);
width = 488;
}
);
unicode = 2022;
},
{
glyphname = colon;
lastChange = "2016-08-26 20:32:07 +0000";
layers = (
{
hints = (
{
place = "{65, 40}";
},
{
horizontal = 1;
place = "{0, 21}";
target = up;
type = BottomGhost;
},
{
horizontal = 1;
place = "{290, -20}";
target = down;
type = TopGhost;
}
);
layerId = UUID0;
paths = (
{
closed = 1;
nodes = (
"65 270 LINE SMOOTH",
"65 259 OFFCURVE",
"74 250 OFFCURVE",
"85 250 CURVE SMOOTH",
"96 250 OFFCURVE",
"105 259 OFFCURVE",
"105 270 CURVE SMOOTH",
"105 281 OFFCURVE",
"96 290 OFFCURVE",
"85 290 CURVE SMOOTH",
"74 290 OFFCURVE",
"65 281 OFFCURVE",
"65 270 CURVE SMOOTH"
);
},
{
closed = 1;
nodes = (
"65 20 LINE SMOOTH",
"65 9 OFFCURVE",
"74 0 OFFCURVE",
"85 0 CURVE SMOOTH",
"96 0 OFFCURVE",
"105 9 OFFCURVE",
"105 20 CURVE SMOOTH",
"105 31 OFFCURVE",
"96 40 OFFCURVE",
"85 40 CURVE SMOOTH",
"74 40 OFFCURVE",
"65 31 OFFCURVE",
"65 20 CURVE SMOOTH"
);
}
);
width = 175;
},
{
hints = (
{
place = "{33, 103}";
},
{
horizontal = 1;
place = "{0, 21}";
target = up;
type = BottomGhost;
},
{
horizontal = 1;
place = "{355, -20}";
target = down;
type = TopGhost;
}
);
layerId = UUID1;
paths = (
{
closed = 1;
nodes = (
"15 357 LINE SMOOTH",
"15 313 OFFCURVE",
"51 285 OFFCURVE",
"87 285 CURVE SMOOTH",
"120 285 OFFCURVE",
"157 313 OFFCURVE",
"157 357 CURVE SMOOTH",
"157 398 OFFCURVE",
"120 430 OFFCURVE",
"87 430 CURVE SMOOTH",
"51 430 OFFCURVE",
"15 398 OFFCURVE",
"15 357 CURVE SMOOTH"
);
},
{
closed = 1;
nodes = (
"15 72 LINE SMOOTH",
"15 28 OFFCURVE",
"51 0 OFFCURVE",
"87 0 CURVE SMOOTH",
"120 0 OFFCURVE",
"157 28 OFFCURVE",
"157 72 CURVE SMOOTH",
"157 113 OFFCURVE",
"120 145 OFFCURVE",
"87 145 CURVE SMOOTH",
"51 145 OFFCURVE",
"15 113 OFFCURVE",
"15 72 CURVE SMOOTH"
);
}
);
width = 179;
}
);
unicode = 003A;
},
{
glyphname = comma;
lastChange = "2016-08-26 20:32:07 +0000";
layers = (
{
hints = (
{
horizontal = 1;
place = "{86, -20}";
target = down;
type = TopGhost;
},
{
horizontal = 1;
place = "{-120, 21}";
target = up;
type = BottomGhost;
}
);
layerId = UUID0;
paths = (
{
closed = 1;
nodes = (
"104 86 LINE",
"78 17 OFFCURVE",
"53 -51 OFFCURVE",
"27 -120 CURVE",
"41 -120 LINE",
"70 -51 OFFCURVE",
"98 17 OFFCURVE",
"127 86 CURVE"
);
}
);
width = 200;
},
{
hints = (
{
horizontal = 1;
place = "{86, -20}";
target = down;
type = TopGhost;
},
{
horizontal = 1;
place = "{-120, 21}";
target = up;
type = BottomGhost;
}
);
layerId = UUID1;
paths = (
{
closed = 1;
nodes = (
"67 88 LINE",
"40 17 OFFCURVE",
"15 -52 OFFCURVE",
"-12 -122 CURVE",
"100 -122 LINE",
"129 -52 OFFCURVE",
"158 17 OFFCURVE",
"188 88 CURVE"
);
}
);
width = 205;
}
);
unicode = 002C;
},
{
glyphname = ellipsis;
lastChange = "2016-08-26 20:32:07 +0000";
layers = (
{
hints = (
{
horizontal = 1;
place = "{0, 21}";
target = up;
type = BottomGhost;
},
{
horizontal = 1;
place = "{40, -20}";
target = down;
type = TopGhost;
},
{
horizontal = 1;
place = "{0, 21}";
target = up;
type = BottomGhost;
},
{
horizontal = 1;
place = "{40, -20}";
target = down;
type = TopGhost;
},
{
horizontal = 1;
place = "{0, 21}";
target = up;
type = BottomGhost;
},
{
horizontal = 1;
place = "{40, -20}";
target = down;
type = TopGhost;
}
);
layerId = UUID0;
paths = (
{
closed = 1;
nodes = (
"66 20 LINE SMOOTH",
"66 9 OFFCURVE",
"75 0 OFFCURVE",
"86 0 CURVE SMOOTH",
"97 0 OFFCURVE",
"106 9 OFFCURVE",
"106 20 CURVE SMOOTH",
"106 31 OFFCURVE",
"97 40 OFFCURVE",
"86 40 CURVE SMOOTH",
"75 40 OFFCURVE",
"66 31 OFFCURVE",
"66 20 CURVE SMOOTH"
);
},
{
closed = 1;
nodes = (
"229 20 LINE SMOOTH",
"229 9 OFFCURVE",
"238 0 OFFCURVE",
"249 0 CURVE SMOOTH",
"260 0 OFFCURVE",
"269 9 OFFCURVE",
"269 20 CURVE SMOOTH",
"269 31 OFFCURVE",
"260 40 OFFCURVE",
"249 40 CURVE SMOOTH",
"238 40 OFFCURVE",
"229 31 OFFCURVE",
"229 20 CURVE SMOOTH"
);
},
{
closed = 1;
nodes = (
"392 20 LINE SMOOTH",
"392 9 OFFCURVE",
"401 0 OFFCURVE",
"412 0 CURVE SMOOTH",
"423 0 OFFCURVE",
"432 9 OFFCURVE",
"432 20 CURVE SMOOTH",
"432 31 OFFCURVE",
"423 40 OFFCURVE",
"412 40 CURVE SMOOTH",
"401 40 OFFCURVE",
"392 31 OFFCURVE",
"392 20 CURVE SMOOTH"
);
}
);
width = 489;
},
{
hints = (
{
horizontal = 1;
place = "{0, 21}";
target = up;
type = BottomGhost;
},
{
horizontal = 1;
place = "{105, -20}";
target = down;
type = TopGhost;
},
{
horizontal = 1;
place = "{0, 21}";
target = up;
type = BottomGhost;
},
{
horizontal = 1;
place = "{105, -20}";
target = down;
type = TopGhost;
},
{
horizontal = 1;
place = "{0, 21}";
target = up;
type = BottomGhost;
},
{
horizontal = 1;
place = "{105, -20}";
target = down;
type = TopGhost;
}
);
layerId = UUID1;
paths = (
{
closed = 1;
nodes = (
"15 72 LINE SMOOTH",
"15 28 OFFCURVE",
"51 0 OFFCURVE",
"87 0 CURVE SMOOTH",
"120 0 OFFCURVE",
"157 28 OFFCURVE",
"157 72 CURVE SMOOTH",
"157 113 OFFCURVE",
"120 145 OFFCURVE",
"87 145 CURVE SMOOTH",
"51 145 OFFCURVE",
"15 113 OFFCURVE",
"15 72 CURVE SMOOTH"
);
},
{
closed = 1;
nodes = (
"182 72 LINE SMOOTH",
"182 28 OFFCURVE",
"218 0 OFFCURVE",
"254 0 CURVE SMOOTH",
"287 0 OFFCURVE",
"324 28 OFFCURVE",
"324 72 CURVE SMOOTH",
"324 113 OFFCURVE",
"287 145 OFFCURVE",
"254 145 CURVE SMOOTH",
"218 145 OFFCURVE",
"182 113 OFFCURVE",
"182 72 CURVE SMOOTH"
);
},
{
closed = 1;
nodes = (
"349 72 LINE SMOOTH",
"349 28 OFFCURVE",
"385 0 OFFCURVE",
"421 0 CURVE SMOOTH",
"454 0 OFFCURVE",
"491 28 OFFCURVE",
"491 72 CURVE SMOOTH",
"491 113 OFFCURVE",
"454 145 OFFCURVE",
"421 145 CURVE SMOOTH",
"385 145 OFFCURVE",
"349 113 OFFCURVE",
"349 72 CURVE SMOOTH"
);
}
);
width = 501;
}
);
unicode = 2026;
},
{
glyphname = exclam;
lastChange = "2016-09-17 19:40:13 +0000";
layers = (
{
hints = (
{
horizontal = 1;
place = "{750, -20}";
target = down;
type = TopGhost;
},
{
horizontal = 1;
place = "{36, 21}";
target = up;
type = BottomGhost;
}
);
layerId = UUID0;
paths = (
{
closed = 1;
nodes = (
"81 65 LINE",
"81 56 LINE",
"81 48 LINE",
"93 36 LINE",
"100 36 LINE",
"100 36 LINE",
"108 36 LINE",
"120 48 LINE",
"120 56 LINE",
"120 65 LINE",
"108 76 LINE",
"100 76 LINE",
"93 76 LINE"
);
},
{
closed = 1;
nodes = (
"93 166 LINE",
"107 166 LINE",
"107 750 LINE",
"93 750 LINE"
);
}
);
width = 201;
},
{
hints = (
{
horizontal = 1;
place = "{750, -20}";
target = down;
type = TopGhost;
},
{
horizontal = 1;
place = "{0, 21}";
target = up;
type = BottomGhost;
}
);
layerId = UUID1;
paths = (
{
closed = 1;
nodes = (
"39 199 LINE",
"164 199 LINE",
"164 765 LINE",
"39 765 LINE"
);
},
{
closed = 1;
nodes = (
"153 -14 OFFCURVE",
"185 14 OFFCURVE",
"185 57 CURVE",
"185 98 OFFCURVE",
"152 130 OFFCURVE",
"105 130 CURVE",
"58 130 OFFCURVE",
"23 98 OFFCURVE",
"23 57 CURVE",
"23 14 OFFCURVE",
"57 -14 OFFCURVE",
"105 -14 CURVE"
);
}
);
width = 205;
}
);
unicode = 0021;
},
{
glyphname = numbersign;
lastChange = "2016-08-26 20:32:07 +0000";
layers = (
{
hints = (
{
horizontal = 1;
place = "{225, 196}";
},
{
horizontal = 1;
place = "{0, 21}";
target = up;
type = BottomGhost;
},
{
horizontal = 1;
place = "{643, -20}";
target = down;
type = TopGhost;
}
);
layerId = UUID0;
paths = (
{
closed = 1;
nodes = (
"197 643 LINE",
"188 569 OFFCURVE",
"179 495 OFFCURVE",
"170 421 CURVE",
"53 421 LINE",
"53 416 OFFCURVE",
"52 412 OFFCURVE",
"52 407 CURVE",
"168 407 LINE",
"161 351 OFFCURVE",
"155 295 OFFCURVE",
"148 239 CURVE",
"30 239 LINE",
"30 234 OFFCURVE",
"29 230 OFFCURVE",
"29 225 CURVE",
"146 225 LINE",
"137 150 OFFCURVE",
"129 75 OFFCURVE",
"120 0 CURVE",
"134 0 LINE",
"143 75 OFFCURVE",
"151 150 OFFCURVE",
"160 225 CURVE",
"330 225 LINE",
"321 150 OFFCURVE",
"313 75 OFFCURVE",
"304 0 CURVE",
"318 0 LINE",
"327 75 OFFCURVE",
"335 150 OFFCURVE",
"344 225 CURVE",
"480 225 LINE",
"480 230 OFFCURVE",
"481 234 OFFCURVE",
"481 239 CURVE",
"346 239 LINE",
"353 295 OFFCURVE",
"359 351 OFFCURVE",
"366 407 CURVE",
"503 407 LINE",
"503 412 OFFCURVE",
"504 416 OFFCURVE",
"504 421 CURVE",
"368 421 LINE",
"377 495 OFFCURVE",
"386 569 OFFCURVE",
"395 643 CURVE",
"381 643 LINE",
"372 569 OFFCURVE",
"363 495 OFFCURVE",
"354 421 CURVE",
"184 421 LINE",
"193 495 OFFCURVE",
"202 569 OFFCURVE",
"211 643 CURVE"
);
},
{
closed = 1;
nodes = (
"352 407 LINE",
"345 351 OFFCURVE",
"339 295 OFFCURVE",
"332 239 CURVE",
"162 239 LINE",
"169 295 OFFCURVE",
"175 351 OFFCURVE",
"182 407 CURVE"
);
}
);
width = 571;
},
{
hints = (
{
horizontal = 1;
place = "{188, 264}";
},
{
horizontal = 1;
place = "{0, 21}";
target = up;
type = BottomGhost;
},
{
horizontal = 1;
place = "{643, -20}";
target = down;
type = TopGhost;
}
);
layerId = UUID1;
paths = (
{
closed = 1;
nodes = (
"161 656 LINE",
"153 596 OFFCURVE",
"146 539 OFFCURVE",
"138 479 CURVE",
"59 479 LINE",
"54 439 OFFCURVE",
"51 398 OFFCURVE",
"46 358 CURVE",
"125 358 LINE",
"122 336 OFFCURVE",
"120 314 OFFCURVE",
"117 292 CURVE",
"38 292 LINE",
"34 251 OFFCURVE",
"28 211 OFFCURVE",
"23 170 CURVE",
"102 170 LINE",
"96 113 OFFCURVE",
"88 57 OFFCURVE",
"82 0 CURVE",
"209 0 LINE",
"214 57 OFFCURVE",
"223 113 OFFCURVE",
"229 170 CURVE",
"290 170 LINE",
"284 113 OFFCURVE",
"276 57 OFFCURVE",
"270 0 CURVE",
"396 0 LINE",
"402 57 OFFCURVE",
"410 113 OFFCURVE",
"416 170 CURVE",
"501 170 LINE",
"505 211 OFFCURVE",
"511 251 OFFCURVE",
"516 292 CURVE",
"431 292 LINE",
"433 314 OFFCURVE",
"436 336 OFFCURVE",
"439 358 CURVE",
"524 358 LINE",
"529 398 OFFCURVE",
"532 439 OFFCURVE",
"536 479 CURVE",
"452 479 LINE",
"460 539 OFFCURVE",
"467 596 OFFCURVE",
"475 656 CURVE",
"348 656 LINE",
"341 596 OFFCURVE",
"333 539 OFFCURVE",
"326 479 CURVE",
"264 479 LINE",
"272 539 OFFCURVE",
"279 596 OFFCURVE",
"287 656 CURVE"
);
},
{
closed = 1;
nodes = (
"312 358 LINE",
"310 336 OFFCURVE",
"307 314 OFFCURVE",
"305 292 CURVE",
"243 292 LINE",
"246 314 OFFCURVE",
"249 336 OFFCURVE",
"251 358 CURVE"
);
}
);
width = 582;
}
);
unicode = 0023;
},
{
glyphname = period;
lastChange = "2016-08-26 20:32:07 +0000";
layers = (
{
hints = (
{
horizontal = 1;
place = "{0, 21}";
target = up;
type = BottomGhost;
},
{
horizontal = 1;
place = "{40, -20}";
target = down;
type = TopGhost;
}
);
layerId = UUID0;
paths = (
{
closed = 1;
nodes = (
"66 20 LINE SMOOTH",
"66 9 OFFCURVE",
"75 0 OFFCURVE",
"86 0 CURVE SMOOTH",
"97 0 OFFCURVE",
"106 9 OFFCURVE",
"106 20 CURVE SMOOTH",
"106 31 OFFCURVE",
"97 40 OFFCURVE",
"86 40 CURVE SMOOTH",
"75 40 OFFCURVE",
"66 31 OFFCURVE",
"66 20 CURVE SMOOTH"
);
}
);
width = 163;
},
{
hints = (
{
horizontal = 1;
place = "{0, 21}";
target = up;
type = BottomGhost;
},
{
horizontal = 1;
place = "{105, -20}";
target = down;
type = TopGhost;
}
);
layerId = UUID1;
paths = (
{
closed = 1;
nodes = (
"15 72 LINE SMOOTH",
"15 28 OFFCURVE",
"51 0 OFFCURVE",
"87 0 CURVE SMOOTH",
"120 0 OFFCURVE",
"157 28 OFFCURVE",
"157 72 CURVE SMOOTH",
"157 113 OFFCURVE",
"120 145 OFFCURVE",
"87 145 CURVE SMOOTH",
"51 145 OFFCURVE",
"15 113 OFFCURVE",
"15 72 CURVE SMOOTH"
);
}
);
width = 167;
}
);
unicode = 002E;
},
{
glyphname = question;
lastChange = "2016-09-17 19:39:59 +0000";
layers = (
{
hints = (
{
horizontal = 1;
place = "{25, 21}";
target = up;
type = BottomGhost;
},
{
horizontal = 1;
place = "{732, -20}";
target = down;
type = TopGhost;
}
);
layerId = UUID0;
paths = (
{
closed = 1;
nodes = (
"208 164 LINE",
"222 164 LINE",
"222 242 LINE SMOOTH",
"222 330 OFFCURVE",
"262 332 OFFCURVE",
"314 370 CURVE SMOOTH",
"374 413 OFFCURVE",
"412 466 OFFCURVE",
"412 537 CURVE SMOOTH",
"412 644 OFFCURVE",
"326 732 OFFCURVE",
"216 732 CURVE SMOOTH",
"130 732 OFFCURVE",
"57 676 OFFCURVE",
"31 599 CURVE",
"35 598 OFFCURVE",
"40 597 OFFCURVE",
"44 596 CURVE",
"44 596 LINE",
"67 669 OFFCURVE",
"137 718 OFFCURVE",
"216 718 CURVE SMOOTH",
"318 718 OFFCURVE",
"398 641 OFFCURVE",
"398 537 CURVE SMOOTH",
"398 488 OFFCURVE",
"380 444 OFFCURVE",
"339 408 CURVE SMOOTH",
"274 351 OFFCURVE",
"208 343 OFFCURVE",
"208 261 CURVE SMOOTH"
);
},
{
closed = 1;
nodes = (
"215 25 LINE SMOOTH",
"225 25 OFFCURVE",
"235 34 OFFCURVE",
"235 45 CURVE SMOOTH",
"235 57 OFFCURVE",
"225 65 OFFCURVE",
"215 65 CURVE SMOOTH",
"206 65 OFFCURVE",
"196 57 OFFCURVE",
"196 45 CURVE SMOOTH",
"196 34 OFFCURVE",
"206 25 OFFCURVE",
"215 25 CURVE SMOOTH"
);
}
);
width = 452;
},
{
hints = (
{
horizontal = 1;
place = "{0, 21}";
target = up;
type = BottomGhost;
},
{
horizontal = 1;
place = "{732, -20}";
target = down;
type = TopGhost;
}
);
layerId = UUID1;
paths = (
{
closed = 1;
nodes = (
"140 197 LINE",
"280 197 LINE",
"280 218 LINE",
"280 393 OFFCURVE",
"442 368 OFFCURVE",
"442 561 CURVE",
"442 692 OFFCURVE",
"353 746 OFFCURVE",
"240 747 CURVE",
"85 748 OFFCURVE",
"23 627 OFFCURVE",
"8 579 CURVE",
"123 525 LINE",
"141 570 OFFCURVE",
"167 617 OFFCURVE",
"225 617 CURVE",
"255 617 OFFCURVE",
"293 591 OFFCURVE",
"293 548 CURVE",
"293 435 OFFCURVE",
"140 436 OFFCURVE",
"140 250 CURVE"
);
},
{
closed = 1;
nodes = (
"258 -14 OFFCURVE",
"290 14 OFFCURVE",
"290 57 CURVE",
"290 98 OFFCURVE",
"257 130 OFFCURVE",
"210 130 CURVE",
"163 130 OFFCURVE",
"128 98 OFFCURVE",
"128 57 CURVE",
"128 14 OFFCURVE",
"162 -14 OFFCURVE",
"210 -14 CURVE"
);
}
);
width = 462;
}
);
unicode = 003F;
},
